<?xml version="1.0" standalone="no"?>
<!DOCTYPE svg PUBLIC "-//W3C//DTD SVG 1.1//EN" "http://www.w3.org/Graphics/SVG/1.1/DTD/svg11.dtd" >
<svg xmlns="http://www.w3.org/2000/svg" xmlns:xlink="http://www.w3.org/1999/xlink" version="1.1">
<metadata>
Created by FontForge 20161116 at Thu Sep 30 01:36:51 2004
 By Jimmy Warting
Copyright (c) Christian Robertson, 2004. All rights reserved.
</metadata>
<defs>
<font id="DearSarah-Regular" horiz-adv-x="500" >
  <font-face 
    font-family="Dear Sarah Rg"
    font-weight="400"
    font-stretch="normal"
    units-per-em="1000"
    panose-1="0 0 0 0 0 0 0 0 0 0"
    ascent="800"
    descent="-200"
    x-height="299"
    cap-height="751"
    bbox="-705 -910 4950 1431"
    underline-thickness="50"
    underline-position="-100"
    unicode-range="U+000D-F8FF"
  />
<missing-glyph horiz-adv-x="252" 
 />
    <glyph glyph-name="t_t" unicode="tt" horiz-adv-x="836" 
d="M8 81l-7 -38l91 48c71 65 146 133 218 198l153 121h-23l-139 -97l-88 -70l-41 -34c-29 -28 -60 -59 -90 -87zM324 89l3 14c29 41 60 85 88 126l36 39c8 14 18 30 26 43l18 18c2 4 5 11 8 15c29 34 59 69 88 103c9 2 19 5 28 7c19 2 37 4 57 6c48 -2 102 -4 152 -6
c0 -1 3 -5 3 -7l-94 -82c-25 -27 -51 -54 -76 -81c-52 -51 -106 -101 -159 -152c-53 -17 -113 -36 -166 -53c-3 4 -8 7 -12 10zM851 52l5 33l-60 -6c-26 -7 -57 -17 -83 -25c-2 5 -6 10 -10 14l20 41l4 26l34 52l13 28c10 20 22 42 31 62l37 54c27 44 55 90 82 135h381
l27 -5h122l3 20l-113 14h-373l5 27l39 39c8 11 19 25 28 35l64 53l46 63l5 29h-35l-49 -42c-15 -18 -31 -37 -45 -56c-33 -35 -69 -72 -101 -106c-17 -15 -39 -34 -56 -49c-77 -2 -158 -5 -235 -7v27l84 131l9 49l-29 5l-46 -41c-6 -9 -13 -19 -19 -28
c-26 -30 -53 -64 -78 -94c-21 -17 -45 -37 -66 -54h-163l-111 -7l-4 -22h241c6 -2 11 -5 17 -7l-6 -34c1 -14 1 -27 1 -41l-114 -107c-16 -24 -32 -48 -47 -70l-51 -59l-29 -43l-13 -69l27 -7l67 13l155 55l32 15l128 108c7 8 17 20 26 28l66 67c21 24 46 52 67 76
c5 3 11 7 16 10c3 -4 7 -10 10 -14l-45 -61l-34 -51l-93 -157l-24 -67l-5 -56l43 -14l32 41l94 28l14 6z" />
    <glyph glyph-name="T_h" unicode="Th" horiz-adv-x="1301" 
d="M716 -29l-17 23l1 19l19 35l8 7h-1c17 34 36 69 53 103l30 46c74 147 150 290 224 437l20 27c0 5 1 10 1 15l-24 -8l-95 -9h-9l-90 -15l-123 10l-15 -3c-12 -23 -25 -48 -36 -71l-49 -75c-6 -16 -14 -35 -20 -51l-15 -28l-9 -27l-35 -52v1c-6 -19 -13 -40 -19 -59
l-31 -56l-14 -18c-2 -3 -4 -7 -5 -10l-20 -23c-32 -45 -71 -99 -102 -144c5 -3 9 -5 13 -8c46 -4 98 -9 144 -13l-17 -19l-100 -13l-108 9c-25 -5 -55 -10 -80 -15h-103l-24 8l-29 31l1 39l63 26l53 -10h1l9 -5c17 -6 38 -13 55 -19h32c3 3 9 8 10 9l14 10
c12 12 23 25 35 36c32 53 71 112 103 165c8 17 19 39 27 56l106 192l61 102c0 3 3 6 3 9l21 25c0 2 -1 3 0 5c-21 3 -40 6 -61 9c-30 0 -86 1 -116 1h-80c-11 -1 -21 -3 -31 -4c-9 -3 -20 -7 -29 -10c-28 -17 -56 -35 -84 -52c-10 -13 -23 -28 -33 -41
c-3 -14 -9 -35 -11 -49c3 -6 7 -11 10 -17c17 -4 35 -10 53 -14l-3 -20l-28 -15l-61 39l3 83l34 42l39 38l99 47l86 15l94 -9h162c25 29 53 62 77 91l64 44l72 38h14l10 -12l-1 -20h-11l-3 4c-21 -9 -51 -24 -72 -33c-13 -13 -29 -27 -42 -40c-14 -23 -33 -49 -47 -72
c28 -3 57 -7 85 -10h68c64 13 142 20 206 33c8 7 17 14 24 21c10 11 23 36 33 47l4 6c6 9 25 23 30 31l53 34l39 20h7c6 2 15 6 21 8l88 -27l21 -25l-2 -43l-37 -20l-65 -24c-8 -3 -20 -7 -28 -10l-47 -18l-59 -20c-23 -31 -47 -66 -69 -97c-2 -6 -7 -14 -9 -20l-50 -77
c-1 -4 -4 -11 -5 -15l-15 -27l-4 -20l-34 -49c-17 -35 -42 -86 -59 -121h10c16 8 42 20 58 28h43l19 -9l-2 -81l-15 -85c0 -14 3 -28 3 -42c4 -9 10 -22 13 -31c11 -9 25 -19 36 -28h-1c17 -4 33 -9 51 -13c17 6 32 11 49 17l17 5h-1c8 3 19 7 27 10c22 9 50 21 70 29l16 -8
l3 -14l-19 -12l-15 -2c-5 -3 -11 -8 -17 -11l-24 -10l1 1c-5 -4 -11 -11 -16 -15l-72 -22h-64l-42 13l-46 28l-19 34l-16 52l17 75c1 23 0 46 1 69h-7c-11 -5 -31 -13 -42 -18c-28 -32 -60 -71 -87 -103c-12 -19 -24 -42 -35 -61l-9 -52l-19 -23c-4 -6 -13 -18 -15 -23
l-25 -25h-22zM1225 794l-31 -49c50 15 139 48 183 74c1 4 0 7 0 11c-18 1 -37 3 -53 4c-15 -1 -28 -3 -42 -4c-19 -12 -37 -24 -57 -36z" />
    <glyph glyph-name="t_h" unicode="th" horiz-adv-x="1061" 
d="M197 41l14 -44l22 -6l78 9l247 189l90 71l16 19l36 25c4 -4 10 -12 13 -16l-20 -31l-77 -153l-4 -16l-32 -43l-32 -43l15 -18h27l79 77l11 9l6 7l25 34l25 27l66 45l72 24l9 -6c4 -6 7 -15 11 -22l-5 -14l-10 -48l-12 -46l14 -50l15 -22l18 -10l22 3l136 63l11 19l-9 4
l-109 -50c-2 1 -6 10 -10 10l-17 61l14 49l34 75v39l-18 7l-34 7l-82 -22l-125 -91l-17 -15l18 55l55 83c1 4 1 12 2 17l25 51l22 35l25 55l99 86l35 36l121 130l75 107l-1 15l-19 34h-62l-38 -18l-77 -76l-43 -45l-67 -86l-50 -86l-21 -34l-58 -104l-240 -215l-188 -140
l-25 -4l-4 8l35 105l36 68l30 79l41 60l7 17l48 61l39 17l32 26h134l25 8l22 1l9 17l-3 9h-135l-10 9l-23 7l67 139l37 54l7 26l-24 14l-45 -43l-89 -126l-43 -68l-232 -8l-10 -18l3 -9l177 -9l12 -17l-31 -47c-5 -8 -12 -17 -17 -25l-41 -52l-225 -200l-120 -68l-5 -27
l5 -6l195 120c24 25 50 52 73 77h16l-7 -26zM893 527l32 57l14 34l40 61l120 130h34l10 -15l-9 -26l-51 -62l-115 -130l-56 -48z" />
    <glyph glyph-name=".notdef" horiz-adv-x="252" 
 />
    <glyph glyph-name=".null" horiz-adv-x="0" 
 />
    <glyph glyph-name=".null" horiz-adv-x="0" 
 />
    <glyph glyph-name="CR" unicode="&#xd;" horiz-adv-x="252" 
 />
    <glyph glyph-name="space" unicode=" " horiz-adv-x="274" 
 />
    <glyph glyph-name="period" unicode="." horiz-adv-x="255" 
d="M137 96l-17 -2l-23 -26l-3 -65l13 -10l32 -4l48 33l19 61z" />
    <glyph glyph-name="comma" unicode="," horiz-adv-x="300" 
d="M57 -96l-46 -43l-6 -20h20l32 16l77 86l44 83l3 64l-32 24l-31 -16l-12 -40l-3 -56l-12 -38z" />
    <glyph glyph-name="hyphen" unicode="-" horiz-adv-x="297" 
d="M133 227l-28 -58l163 -3l31 65l-98 6z" />
    <glyph glyph-name="comma.alt" horiz-adv-x="262" 
d="M158 89l-25 -28l-55 -77l-24 -52l-46 -78l27 -8l18 -4l91 120l53 86l-18 12z" />
    <glyph glyph-name="colon" unicode=":" horiz-adv-x="308" 
d="M221 368l-17 -2l-24 -27l-2 -64l13 -9l31 -3l50 31l18 61zM152 126l-13 -18l-26 -33l-8 -48l24 -16l24 -13l50 33l24 35v37l-25 33l-32 -17z" />
    <glyph glyph-name="A" unicode="A" horiz-adv-x="1119" 
d="M883 -39l-5 56l14 32c6 32 18 93 23 125c-6 35 -14 77 -20 112c-9 16 -21 31 -29 47c-8 7 -14 15 -21 22c-27 -16 -52 -33 -78 -49c-11 -13 -21 -26 -32 -38l-119 -95c7 -2 14 -5 21 -7h41c20 10 45 23 66 33c1 9 2 18 3 26h17l37 -31l-20 -47l-35 -5h1
c-8 -5 -18 -10 -27 -15l-56 -11h-14c-15 -3 -32 -6 -47 -9l-61 9c-26 -14 -53 -29 -78 -43c-4 -3 -10 -8 -15 -11l-9 -5c-6 -6 -14 -11 -20 -17l-24 -9c-15 -8 -36 -18 -51 -26l-106 -9l-51 -2l-19 11c-9 3 -22 8 -31 11l-44 21l-2 27l40 31h33l-12 -20c1 -4 1 -11 2 -15
c4 -3 11 -8 14 -10h125c27 7 56 15 83 22c42 22 86 45 129 68c-20 19 -44 38 -64 59l-28 38l-23 49l-9 81l22 64l39 30l96 46h110l61 -21l92 -43l62 -41c20 11 42 24 62 35c1 2 3 4 5 6l275 222h-1c13 22 25 44 37 65l16 17l137 119l20 13h42l2 -24l-18 -16h1l-88 -90
c-10 -19 -22 -41 -30 -59l-29 -32c-9 -23 -18 -46 -25 -68l-48 -70c-3 -9 -8 -19 -12 -28l-161 -262c-6 -20 -15 -41 -22 -60l-34 -70c-2 -9 -7 -18 -9 -26l-8 -11c-2 -8 -2 -18 -3 -25l-17 -32c-2 -11 -7 -27 -9 -38l-20 -22h-25zM537 184l23 -7c23 11 49 26 71 37v-1
c23 21 47 43 69 63l22 13v-1c22 19 48 42 69 61l15 9c2 3 12 12 14 15v8c-2 3 -12 12 -16 16c-43 20 -92 44 -135 65h1c-30 3 -59 6 -88 8c-37 -15 -75 -32 -113 -47l-21 -36c2 -21 5 -46 6 -67c5 -16 12 -41 17 -57h-1c22 -26 45 -53 67 -80v1zM957 225l14 -15l86 163
c1 4 3 9 3 12l85 163v-1c7 18 15 33 22 51h-4c-68 -53 -139 -106 -206 -158h1c-7 -8 -15 -19 -23 -28l-53 -29c16 -28 31 -56 48 -84z" />
    <glyph glyph-name="A.1" horiz-adv-x="857" 
d="M277 179l-2 1l-5 22l-14 72c1 5 0 12 0 17l9 52l7 36l8 30l4 19l21 39l27 32l15 21l24 19l57 20l53 2l52 -10l18 -26l15 -31c2 -5 5 -16 6 -21c-11 -17 -25 -36 -37 -52l-21 -30l-29 -25l-33 -29l-20 -18l-51 -51zM710 272l-22 -21l-25 127l-17 71l5 29l75 71l83 73
c10 7 23 17 34 25l27 20c17 12 35 26 52 38l56 36l59 33l4 4h7l9 4c1 -1 3 -4 2 -6l-61 -70l-24 -35l-13 -18l-14 -20l-14 -23l-120 -172l-54 -90zM-163 -156l-91 -35l-3 -17l94 20l61 42c3 3 9 7 13 10l7 4l6 3l268 195l44 36l70 -52l69 -33h59l40 34l38 56l11 33v89
l-21 10l-38 -11l-17 -30l-2 -12l13 -13c3 -2 5 -5 7 -6l15 -18l-27 -70c0 -3 -10 -6 -10 -9c-5 -5 -11 -12 -16 -17c-5 -4 -10 -7 -16 -10h-15c-18 17 -31 3 -50 23l-34 32l-5 6l-11 28l-5 7l1 7l29 28l85 74l24 20l71 65l90 79c4 -4 9 -10 14 -14l8 -19c2 -4 5 -10 7 -15
l3 -39c-1 -2 0 -4 1 -6l6 -43l2 -9v-5l-8 -247l18 -18h39l36 26l8 44l9 42l16 46l14 43l40 78l12 27l43 70l13 21l16 32l32 55l17 27l22 39l41 45l12 11l7 10l4 10l19 24l13 20l20 23l15 15l112 94l1 29l-15 18h-50l-179 -80l-217 -173l-122 -96l-17 9l-46 68l-68 29l-43 1
l-80 -15l-61 -51l-34 -45l-42 -107l-17 -147c1 -9 5 -60 5 -69l10 -31l-109 -91l-53 -40l-6 -5c-1 -1 -4 -2 -6 -4l-22 -16l-60 -41l-26 -20l-54 -40l-37 -23z" />
    <glyph glyph-name="B" unicode="B" horiz-adv-x="824" 
d="M257 358l-198 -352l15 -37l26 -2l36 18l21 66l111 136c7 17 14 33 20 48l43 84c21 23 45 50 64 72l28 23l28 34l65 79l76 62l65 40l30 21l74 32l32 -12l9 -40l-52 -103l-115 -94l-67 -21l-4 -44l11 -13l101 46h24l34 -22l19 -56l6 -63l-14 -72l-34 -50l-35 -35l-81 -59
l-60 -23l-63 1l-56 16l-26 38l4 40l26 43l-8 17l-15 7l-18 1l-16 -24l-18 -37l-9 -42l6 -50l78 -46h92l95 16l37 15l77 43l79 91l31 101l-1 80l-23 58l-76 64c1 3 13 11 14 15l51 43l41 55l47 54l4 51l-24 77l-15 8h-48l-113 -26c-6 -8 -26 -19 -34 -27l-43 -30l-55 -61
l-28 -24l-34 -33l-167 -200l-10 15l36 60l12 23l16 33l32 61l20 32l11 30l11 11l44 122l-13 16h-24l-50 -44l-18 -63l-66 -126z" />
    <glyph glyph-name="C" unicode="C" horiz-adv-x="684" 
d="M227 -7l-42 65l-2 80l20 105l20 50l8 8l-98 -22h-86l-23 25l12 30l26 6l30 -6l30 -19l125 17l67 111l141 153l33 45l66 57l136 73l58 15h66l19 -8c18 -7 37 -15 55 -21l20 -44l-18 -45l-32 -50l-15 -17c0 -3 -22 -23 -22 -25l-57 -35l-56 -49l-133 -70l-60 -26l-97 -51
l-69 -21l-34 -73l-28 -70v-82l22 -65l35 -32l53 -9l34 3c3 3 19 8 23 10l73 59l133 147l39 55l20 1l13 -8v-23l-38 -42l-128 -143l-160 -113h-56l-88 25zM433 460l-60 -98l144 61l127 64l80 55l85 74l39 75l-8 27l-63 23l-84 -16l-60 -31z" />
    <glyph glyph-name="D" unicode="D" horiz-adv-x="983" 
d="M120 -4l-19 43l5 41l40 6h68l131 -25c1 3 29 14 39 19c16 17 41 40 56 55l54 72c11 19 20 35 32 54c-8 1 -20 3 -26 4l-17 11c-8 2 -17 7 -24 10l-77 59l-21 39l-20 70l10 121l27 76l70 96l135 117l76 36l63 15h91l90 -35l45 -37c2 -5 11 -8 14 -11l85 -124l15 -55
l12 -51l-7 -49c2 -25 4 -50 2 -77l-11 -52c-4 -17 -7 -36 -10 -55c-5 -26 -9 -52 -13 -76l-26 -55c-4 -8 -7 -17 -9 -23l-18 -21c-4 -8 -6 -17 -11 -25l-127 -107l-62 -30l-18 -4c-4 -4 -10 -8 -17 -13l-68 -8h-296c-10 -5 -22 -8 -31 -11l-11 -6h-59
c-40 -3 -85 -7 -127 -11zM552 55l124 -7c28 5 57 13 86 17c28 16 62 35 91 51c22 20 47 44 70 66c15 26 40 67 57 93c8 59 20 121 29 180l14 138c-2 24 -6 49 -8 73c-5 6 -12 15 -15 22l-4 11c-9 17 -21 36 -26 56c-17 19 -42 45 -59 65c-28 14 -68 31 -97 47h-106l-15 -6
l-62 -15c-28 -21 -56 -41 -83 -61c-6 0 -38 -28 -49 -40c-20 -30 -44 -60 -67 -88c-4 -13 -9 -28 -13 -41l-19 -44l-6 -59c7 -45 18 -88 35 -135c17 -16 38 -38 55 -53c22 -9 45 -18 67 -26c20 38 42 73 61 111l128 212l48 44h22l14 -13l-4 -23l-18 -25
c-22 -37 -48 -86 -67 -120l-23 -42c-1 -6 -7 -15 -9 -21l-51 -108h21c34 13 74 27 107 39c11 9 25 20 39 29h22l-6 -34l-24 -10c-2 -1 -3 -5 -4 -7l-83 -41l-42 -14c-8 -5 -19 -12 -27 -17l-40 -9c-16 -19 -24 -32 -38 -52l-25 -29c-11 -16 -22 -35 -31 -51l-49 -54
c9 -2 21 -7 27 -25z" />
    <glyph glyph-name="E" unicode="E" horiz-adv-x="615" 
d="M133 58l69 -49l47 -22h77l128 24l86 47l73 50l30 19l15 22l21 36l-12 20h-36l-22 -36l-84 -86l-65 -29l-92 -18l-30 2l-55 18l-56 61l-2 62l30 119l47 61l12 16l40 28l70 29l142 9l21 10l7 29l-134 23l-7 32l18 66l52 42l94 41h69l22 -27l-43 -93l11 -12l37 10l35 64
l21 23l9 43l-25 11l-27 21h-84l-111 -30l-88 -45l-57 -63l-13 -63l-1 -22l13 -36l-98 -49c-12 -13 -27 -27 -40 -40l-72 -73l-49 -73l-20 -81z" />
    <glyph glyph-name="F" unicode="F" horiz-adv-x="787" 
d="M90 -57l-43 27l-4 26l34 30h68l119 -15c24 15 49 32 73 46c48 42 97 85 144 127c11 18 11 15 22 33c25 47 53 99 77 148l-79 -8l-12 35l25 9h22h62l7 7l96 152l47 57l41 40c-58 -2 -121 -7 -180 -9h-52c-44 -5 -91 -13 -134 -18h-69c-26 -10 -55 -23 -80 -32
c-12 -13 -12 -21 -24 -33l-4 -26l17 -21c39 -2 71 -14 111 -16c7 1 18 3 25 4l-3 -17l-26 -15h-27l-120 19l-22 30l10 56l12 9l7 5c3 5 6 10 8 13l56 38l49 17l90 6c60 7 124 15 183 22h183c21 3 41 7 63 10c6 4 16 9 22 14l35 17h56l23 -29l-3 -15l-9 -11l-71 -3
c-14 -4 -28 -11 -42 -14l-40 -37c-5 -5 -9 -11 -13 -17l-10 -9c-7 -14 -17 -32 -25 -46l-10 -15c-6 -8 -11 -18 -15 -27l-65 -91l-4 -20c17 -2 37 -6 54 -8c31 2 65 6 97 8c13 11 29 22 42 33l25 -14l-5 -26l-35 -23c-14 -13 -29 -26 -41 -38l-15 -36l-6 -32h-21l-8 28l5 28
l13 34h-138c-26 -36 -51 -72 -77 -107c-4 -9 -11 -21 -15 -29l-37 -57l-65 -58l-14 -9l-21 -19l-14 -8l-10 -8l-32 -29l118 3h25c21 7 44 13 65 19l24 10h23l11 -17l-21 -47l-21 -9l-30 13h-76c-12 -2 -25 -7 -38 -9l-53 -4c-8 -1 -19 -4 -27 -5h-13c-26 -4 -57 -7 -83 -10
c-18 -9 -39 -18 -59 -27h-128z" />
    <glyph glyph-name="G" unicode="G" horiz-adv-x="849" 
d="M142 -236l-33 30l-30 43l-10 73l11 80l20 25l80 71h30l15 -9l-5 -43l-22 -20l-18 4l-49 -49l-13 -41l2 -58l4 -18l25 -33l48 -20l66 5l104 25l107 68l63 57l55 88l114 271l23 49l-10 -4l-43 -30l-29 -14l-41 -28l-41 -11l-56 4l-51 47l-12 29l2 35l17 68l-193 -114
l-52 -16l-27 10l2 24l70 26l14 3l30 12l55 18l25 12l11 10l38 22l42 20l30 33l43 53l5 7l59 67l154 140l47 27l65 21l28 -10l20 -34l-44 -63l-68 -64l-197 -118l-68 -82l-11 -34l-13 -20l-1 -50l27 -29h27l20 8l20 5l130 64l53 48l41 51l119 77l31 6l15 -6l-1 -31l-52 -27
l-61 -48l-39 -45l-19 -38l-19 -24l-19 -30l-5 -13l-16 -35l-60 -148l-49 -73l-2 -19l-28 -49l-50 -61l-95 -88l-39 -19h-10l-30 -24l-15 -5l-37 -15l-109 -30h-74zM651 590l-1 -1l56 32l26 20l8 5l86 64l52 64v8l-3 6l-17 -3l-72 -49l-92 -88l-27 -43z" />
    <glyph glyph-name="H" unicode="H" horiz-adv-x="1145" 
d="M796 -58l-12 27l17 116l25 55l22 100l1 50l-12 13l-121 -20l-53 -5l-66 -96l-29 -54l-24 -23l-18 -28l-64 -62l-55 -38l-14 -8l-35 -20l-97 -11l-28 8l-43 31l-64 66l-19 34l12 31l16 16l19 8l19 -2l11 -12l1 -20l-5 -36l12 -43l31 -34l39 -13l45 5l55 19l70 58l27 31
l4 4l36 46l82 151l-23 4h-23l-71 31l-16 20l-13 23v31l15 31l28 27l42 17h163l19 29l8 16l57 78l39 69l18 4l20 8h39l-1 -19l-18 -39l-25 -23l-3 -8l-31 -50l-17 -36l-11 -11l-22 -37v-11l50 -35l25 -25l11 -16l7 -7l15 -15h47l57 15l61 89l19 23l12 30l29 36l36 52l43 54
l54 51l34 -13l-2 -24l-46 -49l-2 -8l-37 -48l-15 -31l-13 -20l-15 -35l-20 -26l-11 -23l-12 -12l-9 -22l162 38l100 -9l19 -11l8 -12l-1 -15l-46 -10l-14 15l-5 12h-36l-109 -22l-108 -30l-12 -16l-12 -11l-59 -73l-16 -28l-12 -15l-39 -82l-6 -31l-8 -42l-4 -16l-12 -42
l-12 -32l-16 -15h-20zM883 229h11l52 89h-31l-47 -15l7 -20zM680 324l31 -4l78 10l15 8l18 -1l-8 19l-50 35l-27 16l-13 -16l-17 -27zM530 321l63 -7l19 19l29 54l15 28v15l-43 8h-38l-13 3h-23l-45 -23l-12 -11l-13 -27l8 -20l20 -23z" />
    <glyph glyph-name="I" unicode="I" horiz-adv-x="538" 
d="M78 -1l5 27h72c15 5 34 12 48 17l17 15l29 42c34 72 70 145 102 217l102 184l23 29c5 9 9 12 15 21l14 19c11 16 16 22 27 39l49 60l2 7h-59l-62 6c-44 -7 -94 -12 -140 -19c-28 -5 -59 -14 -88 -20l-28 -32c-4 -7 -10 -17 -13 -24l-4 -5l-3 -19l14 -16h24
c14 10 35 12 47 20l11 -13l-19 -25l-46 -27l-62 4l-30 36l7 42l23 27l41 53l58 28l213 25l184 -13c21 14 49 32 72 47h34l15 -20l-8 -45l-104 -23c-11 -11 -19 -20 -28 -30c-3 -6 -7 -17 -9 -23l-45 -61c-3 -10 -10 -20 -14 -30l-32 -39c-7 -17 -20 -39 -28 -58l-5 -5
c-3 -8 -10 -19 -14 -26l-23 -36c-5 -11 -11 -24 -15 -35l-23 -31c-13 -29 -27 -60 -41 -90c-5 -15 -11 -32 -16 -48l-30 -44c-3 -5 -6 -15 -9 -18l-41 -59c14 -3 26 -5 40 -7h119c24 2 54 6 78 8l-2 -13l-34 -10l-9 -4l-125 -16h-141c-10 -5 -27 -10 -39 -13h-76z" />
    <glyph glyph-name="J" unicode="J" horiz-adv-x="716" 
d="M-59 -190l47 -50l92 -13l101 12l36 10l51 21l43 16l21 10l143 121l39 41l29 35l89 132l11 18l73 128l94 162l104 205l66 60l11 31l-4 15l-135 -16l-168 -42l-126 -73l-73 -63l-84 -96l-29 -53l-6 -31l-15 -48l10 -41l7 -18l33 -14l25 18l13 12l2 12l3 13l-11 25l-6 13
l3 39l4 31l34 49l48 62l72 62l109 67l141 30l46 -2l-61 -63l-55 -83l-22 -39l-26 -54l-25 -43l-20 -45l-24 -22l-88 -177l-16 -26l-22 -37l-12 -18l-23 -25l-90 -119l-20 -24l-65 -61l-62 -32l-21 -10l-74 -28l-76 -15l-66 19l-23 25l-13 43l8 35l18 21l34 7l25 20l12 29
l-20 15l-52 -20l-57 -55l-20 -58z" />
    <glyph glyph-name="K" unicode="K" horiz-adv-x="927" 
d="M286 -9l-8 4c-18 4 -33 9 -52 12l-67 -22c-7 -3 -15 -6 -22 -9h-39l-22 6l-26 21l-5 26l20 28l26 19h58l86 -29l44 28l72 63l19 26l37 66c54 100 80 156 133 255l-6 11l39 57l81 121l47 18l19 -9l-3 -18l-18 -30c-1 -3 -4 -8 -5 -10l-45 -72c-3 -12 -8 -27 -12 -39
l-40 -82l-13 -18l-10 -28l-23 -35c3 1 6 2 8 3c17 14 38 28 55 42l54 34c43 32 92 67 235 182l65 48c12 13 41 28 52 41l116 66l8 7l52 15h32l22 -27l-3 -18l-17 -15l-29 4v5h-26c-8 -5 -20 -14 -27 -19l-65 -33l-42 -33l-74 -55l-41 -25l-19 -10c-7 -5 -16 -12 -23 -17
l-14 -9c-35 -25 -70 -52 -105 -77l-10 -7l-6 -6l-69 -48l-1 -5l22 -38l19 -111l5 -32c1 -6 2 -14 2 -19c2 -32 7 -68 10 -99l9 -35c9 -18 17 -38 27 -56c7 -9 11 -19 16 -28c17 -6 29 -18 45 -24h43c27 8 54 15 80 23c8 5 19 11 25 16c11 9 20 18 31 27l1 15c0 4 1 13 0 16
l6 12l14 5l23 -12l7 -20l-38 -50l-28 -14c-18 -9 -41 -19 -60 -28l-81 -22h-31l-13 3h-13l-39 13l-29 22l-20 23l-44 86l-12 59l-22 92l9 27l-15 81c-2 9 -7 19 -11 27l-27 -24l-71 -41c-25 -43 -27 -49 -53 -91l-40 -54l-31 -35l-16 -18l-55 -35l-52 -33c6 -2 13 -4 20 -7
c5 -2 12 -3 14 -5c55 -6 56 -8 108 -15c24 2 98 8 121 9l9 -11l-17 -11l-31 -6h-10c-6 -1 -13 -2 -20 -3h-80zM97 12l11 -2h37c12 4 23 9 36 14c-8 5 -15 9 -24 13h-37c-4 -2 -11 -5 -14 -5l-12 -6c-1 -2 -2 -4 -3 -7c1 -2 3 -5 6 -7z" />
    <glyph glyph-name="L" unicode="L" horiz-adv-x="1008" 
d="M724 -70l-50 12l-8 5c-7 1 -17 2 -25 3c-42 14 -53 18 -79 28l-49 24c-19 7 -38 18 -56 26l-7 2c-31 9 -64 19 -96 28c-58 -19 -121 -40 -181 -60l-48 -7c-7 -2 -18 -7 -26 -9l-25 3l-23 23l1 27l37 41l96 48l61 9l97 -16c20 16 45 30 65 46c48 54 89 107 126 165l26 58
l13 15c44 72 91 149 134 222l34 27c5 6 13 14 18 22l79 54l20 9c8 4 27 16 35 21l23 11l114 -25l22 -24l13 -51l4 -81l-29 -87c1 -10 0 -21 -1 -31l-9 -10h-30l-13 15l-1 45l35 54c3 7 5 20 7 28l-3 94c-11 17 -32 13 -50 14c-18 -3 -36 -7 -53 -9c-20 -12 -41 -25 -62 -37
l-57 -66c-3 -4 -6 -8 -7 -11l-77 -92c-1 -6 -4 -11 -5 -18l-73 -105c-1 -2 -4 -10 -4 -12l-59 -95c-4 -9 -11 -20 -14 -29l-81 -84l-8 -7l-15 -18l-40 -29l2 -4c65 -32 130 -64 194 -95c39 -13 50 -16 88 -29c22 -3 46 -7 69 -11h77c19 4 37 8 55 11c14 8 25 16 35 20l10 8
h-25l-18 35l6 32l30 17l34 -9l20 -21l1 -41l-22 -43l-24 -9c-7 -3 -13 -6 -20 -9l-58 -22h-138zM151 50l1 -9h10c42 16 78 32 121 47c-1 0 -3 2 -4 2h-73l-40 -22z" />
    <glyph glyph-name="M" unicode="M" horiz-adv-x="1191" 
d="M895 14l18 -61l38 -22l30 -1l32 23l206 106l7 13l-5 15l-214 -84l-30 2l-2 31l16 47l24 81l48 90l7 38l29 55l63 134l10 66l-6 19l-55 16l-67 -16l-84 -59l-110 -111l-79 -84l-39 -48h-13l1 18l54 94l25 56l51 76l25 113l-24 30h-78l-54 -15l-66 -67l-84 -81l-99 -103
l-9 11l24 141l-8 37l-17 47l-11 25l-33 19l-70 19l-128 3l-77 -27l-45 -35l-104 -124l2 -34l41 -16l33 4l20 34l-10 25l16 47l27 47l73 43l74 8l77 -10l57 -35l7 -35l-7 -116l-26 -38l-19 -78l-40 -73l-10 -29l-57 -99l-66 -89l-2 -18l-20 -33l12 -17l61 8l34 30l79 121
l22 58l49 56l104 138l149 142l48 49l41 4l20 -4l-8 -48l-35 -102l-18 -37l-28 -48l-11 -17v-14l-66 -118l-83 -180l-8 -47h38l39 33l20 43l73 111l140 171l184 172l32 19l28 -3l5 -31l-26 -54l-38 -75l-62 -130l-48 -143z" />
    <glyph glyph-name="N" unicode="N" horiz-adv-x="719" 
d="M485 48l20 -53l38 -8l27 14l15 97l37 91l72 141l88 174l40 53l92 88l60 47l52 20l41 2c16 -8 22 -18 37 -25l5 -46l-8 -21l-4 -40h20l33 28l27 74l4 41l-71 49h-43l-111 -31l-128 -112l-19 -22l-46 -69l-80 -154l-19 -26l-44 -87l-47 -106l-33 220l-5 32l-4 50l-14 70
l5 60l-24 116h-31l-27 -13l-20 -80l-26 -39l-46 -107l-61 -116l-103 -188l-92 -104l-14 -75l34 -7l23 18l76 110l182 378l45 74l13 -145l-2 -10l21 -60l11 -72l5 -40z" />
    <glyph glyph-name="O" unicode="O" horiz-adv-x="648" 
d="M766 576l-91 -5l-17 24l9 43l52 52l51 13l42 -3l20 -10l8 -12l-2 -25l-15 -39zM269 60l-27 24l-15 97l34 117l68 111l92 117l63 64l39 22l65 47l49 15l-23 -45l1 -71l30 -29l144 20c-1 -13 -1 -11 -2 -23l-106 -183l-121 -138l-83 -69l-87 -62l-43 -14l-56 -8
c-8 2 -15 6 -22 8zM139 31l50 -36l38 -4l37 5l85 20l149 82l81 69l161 196l108 184c15 11 19 22 33 32l108 34l71 17l57 39l-17 20l-51 -13l-68 -25l-93 -30l-10 21l-1 62l-47 39h-37l-68 -5l-19 40l-34 -10l-63 -22l-55 -42l-96 -60l-78 -73l-75 -82l-121 -164l-44 -112
l-16 -72z" />
    <glyph glyph-name="P" unicode="P" horiz-adv-x="593" 
d="M111 34l1 -34l45 -19l34 13l28 80l33 64c15 35 33 74 49 108l37 53l21 37l18 27l33 57l41 48l21 38l135 160l28 18l31 2l27 -7l21 -22l11 -33l8 -55l-44 -144l-40 -47l-79 -64l-46 -24l-28 -5l-19 17l-26 47l-35 18l-18 -13l1 -29l49 -65l35 -4l14 -3l67 8l67 38l59 45
l52 53l48 73l16 148l-4 34l-29 63l-33 33l-57 3l-73 -38l-156 -172l-17 6l50 159l-25 27h-31l-12 -44l-27 -89l-71 -151l-25 -38l-19 -50c-23 -51 -49 -106 -72 -157z" />
    <glyph glyph-name="Q" unicode="Q" horiz-adv-x="780" 
d="M237 -46l-38 15l4 20l58 40l72 -12l-3 -19zM589 -174l30 -15h37l107 -24l81 -3l79 23l69 72l2 42l-23 13l-61 -10l-4 -22l9 -18l-15 -26l-35 -34l-63 -12l-67 4l-50 25l-53 26l-26 14l-82 80l-40 48c1 5 3 11 4 16l38 32l35 17l18 22l28 15l65 56l47 64l17 16l66 79
l57 63l39 74l43 63l30 158l-6 25l-36 32l-87 7l-89 -7l-34 -28l-75 -29l-105 -61l-160 -136l-123 -176l-13 -23l-22 -33l-11 -62l18 -25h49l68 25c5 5 13 10 19 15l36 23l124 104l82 95l43 55l4 25l-11 12l-52 -43c-14 -21 -31 -43 -44 -64l-81 -87l-94 -79l-73 -48h-39
c-4 4 -8 11 -11 16l12 23l22 50l28 46l11 23l37 62l9 8l11 18l57 47l64 62l144 95h36l104 41h66l13 -40l-25 -131l-68 -138l-133 -166c-5 -5 -9 -11 -13 -16l-39 -48l-114 -95h-72l-46 16h-91l-94 -60l-18 -28l13 -50l35 -12l79 17l64 27h48l51 -63l41 -33l103 -46h6z" />
    <glyph glyph-name="R" unicode="R" horiz-adv-x="1023" 
d="M880 -79l-19 9l-49 19l-51 29l-8 4l-67 66l-37 49l-114 228l-16 17l-90 -14l-26 -13l-49 -119l-21 -40l-9 -19l-20 -18l-64 -68l50 -16l18 -6l40 -13h80l51 18l24 23l11 -15l-32 -35l-40 -24h-71l-118 26l-41 13l-25 1l-71 -32l-61 -17l-30 5l-27 14l-10 18l-2 24l45 27
l52 -2h78l11 13l17 5l12 15l54 71l200 447l14 50l1 20l28 33l20 -10h11l4 -24l4 -16l-1 -14l-4 -13l-3 -15l-1 -13l-8 -12l-13 -62l-12 -32l12 9l26 18l116 109l12 3l16 16l105 55h50l31 -27l8 -21l6 -56l-13 -35l-10 -9l-19 -30l-75 -84l-96 -57l-69 -35l5 -14l25 -40
l36 -56l33 -61l6 -15l57 -90l36 -52l19 -13l14 -14l54 -30l41 -9h78l40 22l25 8l12 11l4 21h24l17 -15l2 -11l-67 -44l-28 -8l-33 -23l-63 -13zM523 403l25 -5l113 52l70 66l47 52l22 53l-9 40l-19 11l-33 -12l-18 -13l-26 -8l-33 -17l-23 -23l-16 -11l-90 -92l-14 -10
l-66 -73l2 -10h68zM29 18l10 -13l35 3l57 27l-1 4l-66 -3l-24 -3z" />
    <glyph glyph-name="S.1" horiz-adv-x="605" 
d="M167 -55h30l50 -18h34l74 43l22 9l20 25l61 49l32 53l3 48l10 17l-11 343l25 51c10 24 32 39 42 62l61 50l107 4l36 -19l8 -24c-8 -17 -15 -32 -22 -49l-31 -3l-21 -55l-1 -19l30 -8l39 12l39 53l8 34l1 66l-19 44l-133 11l-71 -18l-123 -70l-55 -87l-30 -96l5 -75l5 -84
l16 -81l-9 -117l-28 -25l-24 -45l-26 -13l-47 -27l-52 -14l-73 23l-21 51l-14 17l-1 23l57 65l31 46h-47l-50 -43l-51 -25l-35 -29v-18l1 -24l11 -21l47 -48z" />
    <glyph glyph-name="S" unicode="S" horiz-adv-x="980" 
d="M-52 -57l-2 16l31 18l35 2l2 -6c15 2 30 4 45 5c47 21 140 57 165 73l12 4l-1 -1c85 57 459 332 545 390c5 4 10 6 11 7l10 7c44 34 91 76 135 109c1 7 2 13 3 20c9 49 32 102 40 149l59 68l84 50l26 7h59l35 -31l-5 -30l-21 -31l-67 -78l-27 -27l-8 -2
c-4 -4 -8 -10 -13 -14l-53 -39c-4 -11 -12 -30 -17 -44c-2 -15 -3 -32 -6 -49c0 -2 0 -5 -1 -7l-3 -14c-2 -24 -5 -55 -7 -79l-6 -22l-6 -54c-2 -17 -1 -33 -4 -49l-20 -82c0 -4 0 -8 -1 -13l-2 -13l-9 -16c-4 -21 -25 -61 -35 -89l-20 -26c-8 -12 -22 -25 -29 -39l-54 -35
l-40 -16c-19 -6 -43 -3 -61 -11l-82 -10h-68l-65 23l-23 23c-6 0 -13 3 -19 3l-36 48l-1 26l10 27l54 36l51 13h43l67 -10l56 -30l-10 -23l-24 -4l-35 13c-18 5 -37 10 -57 14c-22 -4 -46 -12 -68 -18l-12 -9c-3 -3 -6 -7 -12 -11c2 -34 22 -42 39 -59l-1 1l15 -6
c6 -2 9 -6 14 -8h112c133 35 158 65 200 114l-1 -1l17 44l34 116c1 84 18 186 7 268c-28 -23 -63 -53 -93 -79l-30 -25l-9 -5c-36 -27 -79 -55 -112 -83l-4 -4c-21 -20 -48 -32 -68 -49l-16 -13c-4 -4 -7 -6 -10 -8l-47 -32c-5 -3 -6 -5 -8 -6l1 1c-22 -14 -49 -30 -68 -47
l-162 -124l-14 -7c-45 -26 -95 -51 -142 -75l-105 -42l-69 -7zM1050 663l2 -19c59 32 103 93 146 141c4 7 6 16 9 23c1 7 -11 12 -20 14c-2 0 -10 -2 -13 -4l-28 -5c-29 -17 -40 -30 -66 -54c-7 -32 -24 -75 -30 -96z" />
    <glyph glyph-name="T" unicode="T" horiz-adv-x="637" 
d="M17 -33l-16 44l24 23l45 8h111c29 26 58 50 87 75c35 53 72 106 106 159c53 104 108 209 161 313l38 60c-34 4 -72 7 -106 11l-46 8h-110c-17 -2 -37 -6 -54 -8c-18 -5 -38 -10 -55 -15c-14 -6 -26 -13 -40 -19c-4 -8 -8 -16 -11 -23l-13 -25c0 -11 2 -24 2 -35
c6 -9 11 -19 16 -28h16c11 7 29 21 38 27l-13 -31l-26 -21h-28l-24 24l-12 31l3 51l21 39l31 31l43 15l76 16h123l2 19h17l-2 -19h21l163 -19c10 8 25 19 36 27h33l3 -16v-13c1 -1 3 -5 4 -6c34 -4 73 -8 108 -12h68c23 17 48 38 71 55l31 1l16 10h77l25 -12l23 -25l-2 -30
l-27 -5c-3 -1 -9 -3 -11 -4l-86 -11c-3 -1 -10 -3 -12 -4h-35c-5 -3 -28 -13 -35 -16c-13 -15 -26 -29 -38 -43l-33 -51c-3 -7 -6 -14 -8 -21l-32 -48l-26 -8l-14 16l46 129l29 38c-53 3 -100 8 -155 11c-7 -6 -16 -15 -21 -20c-16 -30 -35 -62 -51 -92c-1 -5 -4 -9 -5 -14
l-24 -36c-2 -7 -7 -17 -9 -24l-9 -15c-2 -6 -6 -15 -8 -21l-52 -79c-3 -9 -8 -17 -11 -26l-97 -142l-6 -10l-121 -128c36 -7 70 -15 105 -22h37c10 4 23 8 31 11c6 3 13 8 18 11c4 5 16 23 19 27l27 25h29l6 -15l-1 -15l-18 -16c-8 -11 -18 -27 -26 -38l-26 -7
c-14 -6 -28 -13 -42 -19h-58l-76 15h-94c-16 -8 -38 -19 -53 -27l-34 -8h-45zM978 668l-9 -6h16c17 2 33 6 50 8c4 0 14 5 19 9h-49c-7 -2 -16 -5 -23 -7c-1 -1 -1 -2 -4 -4z" />
    <glyph glyph-name="U" unicode="U" horiz-adv-x="795" 
d="M130 -9l12 -34l60 -12l47 18l95 60l96 105l35 33l22 24l9 7l17 19l125 122h10l-74 -155l-49 -110l-8 -74l15 -25l71 1l50 19l135 63l20 32h-15l-109 -49l-46 -10h-37l-1 25l43 95l23 73l29 48l40 85l51 75l32 55l28 34l28 66l25 33l-10 19l-44 -10l-22 1l-47 -74l-18 -33
l-39 -57l-351 -350l-15 -17l-42 -33l-23 -23l-47 -15l-23 10l17 62l61 141l51 84l64 130l61 66l31 51l15 80l7 30l-17 25l-25 16l-42 1l-72 -12l-154 -61l-70 -38l-14 -32l7 -15l29 -5l22 22l64 56l96 39l45 13h33l22 -16l12 -11l-14 -30l-15 -17l-16 -38l-33 -65l-38 -40
l-5 -19l-65 -91l-74 -147l-38 -66l-57 -120z" />
    <glyph glyph-name="V" unicode="V" horiz-adv-x="501" 
d="M218 178l-50 -148l4 -23l30 -25l27 2l25 19l29 76l136 182l198 189l180 144l35 12l36 16h57l32 54l-14 20h-63l-101 -48l-73 -65l-18 -15l-90 -87l-40 -40l-13 -16l-63 -62c-4 -6 -10 -14 -14 -19l-19 -14l-120 -130l-17 -3l26 146l14 50l12 48l30 78l31 119l-18 18
l-40 -1l-40 -1l-115 -31l-23 -16l12 -24l99 24l27 -7l4 -25l-55 -179l-10 -28c-2 -8 -4 -17 -6 -25l-22 -92z" />
    <glyph glyph-name="W" unicode="W" horiz-adv-x="772" 
d="M85 29l-6 -51l27 -8l46 22l79 104l61 52l36 48l45 53l25 32l29 26l12 16l13 8l49 68l50 42l69 76l62 52l20 23h7c-4 -15 -8 -33 -13 -49l-107 -247l-65 -154l-42 -89l-21 -31l21 -46l57 19l99 133l49 50l32 42l152 209l73 80l135 126l45 20l18 -6l24 -32h30l21 38v29
l-10 17l-16 19h-89l-21 -16l-42 -26l-154 -177l-51 -74l-154 -191l-9 13l10 27l44 158c0 1 2 6 2 8l30 50l45 110l8 92l-55 10l-100 -101l-75 -73l-268 -314l-50 -34l10 41l12 16l20 76l33 69l59 196l-3 37l-25 37h-57l-29 -24l-7 -18l20 -25h6l22 -12l-66 -217l-45 -75
l-2 -16l-17 -35c-6 -14 -13 -29 -18 -43l-15 -25l-49 -111z" />
    <glyph glyph-name="X" unicode="X" horiz-adv-x="951" 
d="M618 214l25 -213l56 -57c7 5 32 0 38 5l189 99l29 26l-9 14l-49 -25l-86 -32l-45 -10l-30 26l-7 99l-8 126l21 58c67 70 149 153 217 222c8 6 17 12 24 18l74 29l37 -11l37 11l31 39l-6 31l-60 12c-8 -2 -16 -6 -23 -8l-9 -3l-113 -64l-146 -156l-61 -47
c-3 0 -9 -1 -12 -1l2 181l-13 55l-70 -9l-112 -87l-49 -48l17 -16c24 25 59 51 83 76c8 1 19 2 27 2c9 -27 17 -57 27 -85l-17 -152l-23 -35l-270 -213l-147 -79l-56 7l-9 27c7 16 15 34 23 50l48 15l9 55l-64 -5l-29 -59l-25 -58l2 -37l34 -23c9 0 20 -7 28 -6h22l72 20
l35 11l37 31l73 40l145 113l46 35z" />
    <glyph glyph-name="Y.swash" horiz-adv-x="749" 
d="M37 -38l42 31v-2l145 86l125 51c44 102 92 205 137 308c-19 -16 -42 -31 -61 -46v1c0 -1 -1 -3 -1 -3l-20 -14h1l-4 -4l-25 -20v1l-19 -19l-12 -7l1 1c-35 -29 -73 -60 -108 -89c-27 -27 -60 -57 -88 -84l-22 -9h-27l-20 22l2 47l210 330c6 15 11 29 17 44
c2 14 7 29 10 43c1 20 0 37 2 57h-12c-5 -8 -12 -21 -15 -27l-20 18l43 41h41l24 -25l8 -35l-3 -42l-23 -68l-21 -26l1 1c-2 -3 -5 -8 -6 -11l-41 -71l-92 -123h1c-22 -36 -39 -67 -60 -103h17c8 6 18 14 26 19h-1l5 5l314 243l24 36c28 48 58 96 85 144l51 65l21 15l46 16
h30l18 -18l-1 -33l-7 -7l-32 -18h1l-78 -75c-14 -27 -32 -59 -45 -86l-34 -46c-2 -7 -6 -15 -8 -22l-24 -31l1 1c-4 -13 -10 -27 -14 -40l-64 -132c-2 -4 -4 -10 -5 -13l-31 -63c0 -5 -1 -10 -1 -15c45 9 93 18 139 27l110 8l36 -8l21 -26l3 -59l-11 -20l-4 -23l-27 -35
l-27 -18h-24l-10 12l-9 20l4 16l22 29c8 24 14 46 22 70c-5 4 -11 10 -16 14h-72c-43 -10 -92 -22 -134 -32h1c-13 -6 -27 -14 -40 -20c-2 -2 -7 -7 -10 -9c-5 -13 -14 -29 -19 -42l-154 -254l-77 -99l-21 -19l-21 -18l-54 -51l-14 -10h1c-8 -6 -13 -10 -21 -16l-17 -11h1
c-3 -2 -6 -6 -9 -8l-17 -8c-8 -8 -16 -16 -23 -24l-75 -47l-9 -3c-18 -13 -40 -27 -57 -40l-32 -8h-62l-36 27l-27 39l-7 27l2 57l35 63l54 65l148 135l58 44c2 2 8 6 10 8h20l-167 -147l1 1c-8 -9 -21 -22 -29 -31l-21 -21c-21 -34 -43 -70 -64 -104v2
c-3 -12 -6 -25 -9 -37c-1 -16 -1 -30 -2 -46c8 -10 17 -23 25 -34l28 -16h40c14 7 35 17 49 24v-1c10 6 28 18 38 24l2 1l-1 -1c39 29 81 60 120 89c43 41 91 88 135 129v-1c20 27 42 56 63 83l-1 -1c39 72 80 146 118 218c9 20 15 37 24 58c-6 -1 -10 -3 -14 -4h1
c-2 -1 -2 0 -4 -1l-70 -26h1c-23 -10 -46 -22 -68 -32l-2 -2l-92 -51h-15l-1 -12l-43 -31zM683 657v-1c18 17 37 35 54 52c1 2 0 6 1 8c-1 0 -3 2 -4 2c-10 -4 -25 -10 -34 -14c-6 -15 -11 -32 -17 -47zM10 -57h17l-25 -24h-17z" />
    <glyph glyph-name="Y" unicode="Y" horiz-adv-x="645" 
d="M-54 -193l-11 34l11 13l47 20l26 -9l11 -2l13 -41l48 -34l71 4l36 17l37 31l73 102l189 335l13 17l50 70l34 40l-4 6l-53 -47l-20 -9l-150 -120l-37 -23l-29 -23h-59l-23 31l6 65l52 79l103 192l1 51l23 20h42l19 -23l-12 -41l-16 -33l-1 -6l-15 -25c0 -4 -3 -11 -3 -15
l-66 -122l-47 -62c-4 -15 -9 -30 -13 -45l15 -20c42 32 88 66 132 97l79 63l10 1l52 48l101 80c21 23 45 48 67 70l136 110l60 -15l-29 -42l-101 -77l-84 -110l-33 -65l-46 -34l-64 -109l-26 -32l-13 -23l-35 -48l-2 -7l-77 -154l-118 -141l-12 -15l-30 -24
c-13 -15 -38 -18 -52 -33l-70 -18h-65l-117 28z" />
    <glyph glyph-name="Z" unicode="Z" horiz-adv-x="894" 
d="M127 7l-31 -25l18 -23l29 2c6 3 17 9 24 13l17 4c5 4 31 5 36 9l56 5c4 4 18 2 23 6l126 -23l86 -22l58 -10c10 1 22 3 32 3l50 2l71 26l72 72l26 44l32 33l15 30l46 33l-30 43l-34 -13l-35 -27l-23 -45l-7 -38l-38 -50l-9 -7c-1 -3 -6 -9 -9 -13l-66 -16l-65 3l-188 37
l-97 -4l2 9l24 23l2 9l17 12l73 74l86 68l26 11l51 37l32 19l14 -1l115 11l91 -7l26 19l-20 18l-43 8l-41 -3l-92 2l81 73l96 93l21 8l24 11l14 5l23 16l-9 33l-116 8l-38 1l-53 -1l-188 -1l-54 2l-27 -2l-97 -101l-7 -29l27 -2l79 47l50 15l82 1l56 6c10 1 21 3 31 3l53 2
l60 2c3 -4 7 -8 10 -12l-33 -40l-55 -45l-16 -16l-96 -81l-205 -11l-39 -1l-36 -26l11 -15l96 11l32 4l55 -7c4 -2 11 -3 15 -4l-17 -13l-18 -20l-112 -95l-65 -75c-25 -18 -52 -38 -77 -56l-21 -7l-34 -20z" />
    <glyph glyph-name="a.up" horiz-adv-x="477" 
d="M137 50l-12 13c5 22 11 46 16 68l19 18l82 82l36 8h42c-2 -10 -6 -23 -8 -34l-62 -81l-22 -24c-22 -16 -45 -32 -67 -49zM30 20l13 -25l42 -9h25l89 42l120 135h27l-49 -114l7 -42v-14l43 4l85 28l65 28l7 32l-59 -19l-32 -13h-24l-10 33l47 119c-1 9 -2 18 -3 26l10 36
l-12 17h-18l-51 -34l5 24l-20 28l-90 17l-215 -43l-3 -31l216 38l7 -9l-164 -131l-41 -61z" />
    <glyph glyph-name="b.up" horiz-adv-x="470" 
d="M456 514l-51 -23l33 61l43 69l22 60l31 48l53 81l55 61l27 20l11 -10l-6 -67l-87 -122c-4 -11 -12 -24 -16 -34zM104 38l25 -34l3 -18h28l30 20l43 15l41 22l61 66l23 30l5 28l14 54l34 28h103l9 34h-68l-50 9h-47l-26 -43l10 -52l-17 -48l-34 -51l-65 -45l-36 10l46 116
l8 26l30 52l55 112l46 70l105 69l68 95l27 36l46 53l33 41l30 45l34 88l5 44l-45 28l-54 -18l-30 -23l-53 -74l-56 -99l-112 -181l-23 -52c-18 -26 -35 -53 -54 -78l-129 -86l-70 -40l-49 -8l-8 -31h34l77 36l82 56c2 -1 5 -6 7 -8l-97 -179l-5 -17z" />
    <glyph glyph-name="c.up" horiz-adv-x="406" 
d="M419 52l10 33l-162 -52l-44 -7l-25 12l-18 60c-1 11 -3 25 -3 37l22 66l80 100l72 29l46 -19l29 -8l28 24l17 52h-27l-53 8l-66 -15l-62 -35c-11 -8 -23 -17 -33 -25c-31 -9 -66 -19 -96 -28l-87 -3l-6 -32h65l72 9l-8 -25l-41 -49l-27 -86l-6 -108l31 -17h97l90 44z" />
    <glyph glyph-name="d.up" horiz-adv-x="560" 
d="M79 53l10 -36l35 -17h39l52 14l37 32l116 109l-20 -101l6 -51l19 -17l40 9l159 57l6 32l-135 -36l-23 18l16 73l40 78l59 121l62 95l104 172l19 9l41 72l-24 17h-18l-41 -35l-64 -106l-13 -16l-50 -86l-20 -17l-42 -70l-24 -35l-52 -86l-56 -60l-22 -26l-21 -17l-74 -79
l-78 -42l-14 16l7 25c-1 4 -5 15 -6 18l13 70l72 102l142 69l64 9l14 19l-20 35h-62l-89 -45l-50 -42l-62 -17l-125 -8l-7 -30l141 2l-84 -112z" />
    <glyph glyph-name="e.up" horiz-adv-x="374" 
d="M289 284v22l56 39c3 1 8 1 12 2l9 -11l-6 -20l-9 -17c-4 -3 -9 -8 -14 -11l-32 -14c-4 0 -9 2 -13 2c0 2 -3 6 -3 8zM120 128l-12 -42l-3 -62l25 -12l89 -3l78 22l89 21l9 34l-61 -12l-28 -8l-78 -22l-36 6c-4 5 -7 13 -12 18c4 31 7 63 11 94l30 49l77 12l77 58
c0 2 -1 5 -2 6l6 17l26 10l9 44l-5 34l-21 9l-25 -3l-77 -37l-65 -53l-31 -44l-59 18l-85 1l-9 -35l80 -5l41 -30z" />
    <glyph glyph-name="f.up" horiz-adv-x="365" 
d="M441 470l-14 1c3 8 8 16 13 23l20 26l12 37l20 24l42 64l43 60l28 20l40 20l16 -11c-11 -25 -23 -50 -33 -75l-60 -58l-62 -68zM-14 -391h-17l18 45l42 102l15 35l4 26l13 17l58 110l20 12l17 -22l-3 -90l-35 -77l-62 -81zM-112 -417l11 -35l26 -9h32l91 92l70 84l40 58
l32 78l14 78l113 81l60 41l20 24l-12 16l-164 -104l-11 29l-28 34l34 52l81 135l88 145l82 78l70 80l50 50l55 52l22 26l39 84l13 35l-15 17h-21c-1 -1 -12 -6 -14 -7l-39 -8l-61 -46l-72 -70l-16 -37l-24 -25l-125 -192l-16 -36l-161 -82l-118 -24l-10 -20l4 -13l98 13
l22 10l75 40l18 9h17c-5 -12 -11 -24 -16 -36l-42 -86l-61 -103l-12 -17l-26 -53l-52 -95l-3 -17l-25 -49l-53 -112l-1 -16l-40 -78z" />
    <glyph glyph-name="g.up" horiz-adv-x="527" 
d="M179 68l-14 10l5 34l35 66l82 70l39 8l24 17l33 -7l-6 -58l-62 -71zM-110 -565l24 86l36 50l17 26l11 17l42 29l21 18l89 93h7l-49 -97l-50 -88l-82 -109l-23 -18l-27 -17zM-102 -427l-23 -60l-24 -98l10 -22l47 -16l66 36l37 57l27 26l61 71l59 90l22 38l23 33l20 53
l11 21l34 70l74 78l195 103l13 23l-6 13l-202 -104l-18 -3l13 16l57 96l54 94l58 148l-42 8l-19 -8l-23 -28l-36 16l-125 -3l-103 -29l-112 -13l-8 -31l89 8l82 27l58 3v-10l-141 -117l-32 -48l-14 -40l2 -34l14 -27l55 -7l31 21l11 9l56 28l65 43h7l-54 -98l-81 -159
l-156 -151l-37 -27l-20 -17z" />
    <glyph glyph-name="h.up" horiz-adv-x="550" 
d="M461 513l-6 11c13 30 29 62 42 93l22 26l36 70l87 68c5 3 9 7 14 10c5 -3 13 -8 18 -12l-10 -35l-53 -76l-25 -28zM189 157l-55 -79v0l-49 -94l8 -18h49l50 60l127 135l43 37c12 5 26 13 38 20l26 -5v-24l-22 -25l-51 -140l8 -21l35 -20h43l121 68l12 20l-7 12l-103 -58
l-31 3l-13 16l40 95l44 92l-5 23l-9 14l-47 -2l-48 -18l-144 -119l2 16c19 27 49 84 68 112l16 21l19 34l31 46l47 88l12 16l46 43l22 28l65 75l47 43l23 25l50 70l17 35l-6 26l-52 28l-72 -36l-103 -110l-54 -97l-53 -104l-37 -69l-47 -53l-108 -50l-46 -12l-91 -30
l-13 -18l5 -10l116 35l89 33l35 9l-50 -89z" />
    <glyph glyph-name="i.up" horiz-adv-x="293" 
d="M279 531l1 -36l24 -19l61 15l18 35l28 21l-8 31l-26 13l-60 -13c-4 -10 -8 -21 -13 -30zM47 19l14 -36h62l181 69l11 18l-4 13l-136 -43l-37 -3l-7 6l51 88l35 58l18 35l48 60l16 30l-37 30l-42 -25l-179 -41l-11 -13l5 -20l120 19l24 -6l20 15l4 -2c2 -6 6 -13 9 -20
l-8 -7l-31 -5l-5 -10l-58 -72l-59 -113z" />
    <glyph glyph-name="j.up" horiz-adv-x="315" 
d="M401 581l-29 -40l20 -52l31 2l23 27l41 31l-5 28l-13 29l-11 -5l-23 -10zM329 53l9 21l-5 9l-40 -10l-45 -18l-23 -12c-14 -4 -28 -4 -41 -8l12 27l115 180l25 58l41 53l9 34l-36 -6l-37 1l-23 -18l-29 -31l-77 -30l-141 -25l-13 -18l2 -12h39l75 18l45 10l63 7l-52 -89
l-126 -222l-302 -285l-64 -85l-4 -27l27 3l24 38l53 73l188 175c7 0 17 2 24 3l-86 -128l-4 -26l-49 -110l-14 -35l-104 -195c-39 -41 -85 -87 -126 -128l-46 -2v31l20 40l6 8c0 5 -1 12 -2 17l40 100l-14 18l-74 -89l-13 -37l-7 -55l-6 -43l4 -24l32 -10l62 -3l80 67l46 58
l10 10l21 27l30 27l35 58l46 58l10 27l24 56l157 284l24 49l29 46l34 30l19 12z" />
    <glyph glyph-name="k.up" horiz-adv-x="564" 
d="M455 584l-9 4l97 145l33 55l66 66h33l14 -16l-15 -38l-8 -22l-22 -37l-41 -37l-65 -56zM58 61l-21 -54l4 -11c3 1 9 1 12 2l24 -6l26 7l37 70l62 69l92 121l27 17l37 22l36 23h12c9 0 19 -2 28 -3l12 -12l-36 -55l-45 -25l-47 13l-13 -10c2 -4 6 -9 9 -12l11 -31l18 -32
l14 -70l22 -38l30 -43h37l49 9l81 42l19 21l-11 8l-33 -15l-60 -32c-6 0 -14 -1 -20 -2l-13 10l-54 101l-13 29l-19 36l57 18l49 20l44 80v20l-5 12l-16 11l-23 2l-98 -28l-35 -18l-92 -81l16 49l23 38l15 25l32 60l34 43l48 64l41 32l54 46l98 84l46 37l25 28l14 23l46 103
l-25 25h-52l-77 -43l-54 -44l-45 -55l-67 -96l-26 -34l-65 -110c-11 -11 -22 -25 -33 -36l-116 -111l-141 -95l-9 -31h11l64 38l140 109l4 -6l-31 -65l-70 -133l-26 -34l-34 -61z" />
    <glyph glyph-name="l.up" horiz-adv-x="266" 
d="M379 465l-10 2l55 86l56 74l37 42l34 27l22 4c4 -6 7 -15 11 -22l-40 -60l-100 -100zM44 277l-12 -19l6 -12l62 26l92 45l7 -8l-39 -61l-49 -75l-14 -17c-1 -3 -2 -7 -3 -10l-22 -64l-18 -54c4 -4 7 -10 9 -14l-5 -17l18 -10l94 33l107 31l15 22l-5 8l-99 -23l-26 -5
l-13 23l24 62l66 110c5 11 12 25 16 35l60 92l64 52l47 42l55 53l115 124l28 44l2 49l-30 19l-17 -5l-11 10l-39 -7l-64 -62l-39 -41l-101 -162l-50 -78c-13 -10 -32 -28 -45 -38l-138 -73z" />
    <glyph glyph-name="m.up" horiz-adv-x="806" 
d="M106 68l-49 -54l14 -18h36l33 27c2 5 9 12 12 17l89 78l118 118l39 22l36 10c4 1 11 3 17 5c3 -5 7 -12 10 -17l-10 -39l-118 -186l13 -17h53l196 214c18 14 39 28 56 43l27 7l24 -4c2 -8 9 -26 12 -35l-71 -119c-3 -8 -5 -18 -7 -26l-22 -48l1 -32l-3 -26h52l19 12
c26 13 52 27 79 40l54 16l11 17l-5 12c-36 -11 -77 -22 -115 -34h-15l16 47l77 156l-3 23l5 22l-12 13l-13 16h-37l-45 -11l-42 -28l-86 -70l-85 -93l-12 4l60 106l13 53l-16 19l-3 8h-52l-80 -37l-109 -90h-16l24 97l1 18l-7 15l-39 18l-55 -9l-130 -50l-10 -19l3 -12
l138 54h26c9 -3 9 -7 10 -10l4 -40l-42 -89z" />
    <glyph glyph-name="n.up" horiz-adv-x="617" 
d="M89 70l-46 -52l3 -9l26 -9h26l207 164l34 35l86 64l32 -10l-66 -174l-18 -77l12 -18h65l56 19l122 48l12 25l-3 8l-127 -48l-33 -8h-16l3 43l63 149c1 5 3 12 4 17l29 45l-25 34h-62l-108 -44l-77 -71c-17 -17 -33 -35 -49 -52l-41 -38h-16l48 131l-8 24l-31 25l-18 4
l-126 -13l-9 -36l91 10l16 -5l6 -37z" />
    <glyph glyph-name="o.up" horiz-adv-x="498" 
d="M209 60l18 88l57 111l33 25l42 -10l28 -40l-7 -24l-13 -43l-23 -43l-32 -41l-50 -44l-21 -6l-14 4zM130 43l10 -34l15 -12l39 -7h36l97 66l15 12l26 41l38 66l15 41l29 7l96 30l12 24l-4 4c-22 -2 -48 -5 -70 -7l-10 63h-44l-29 -7c2 -4 3 -11 5 -16
c-6 -5 -14 -8 -20 -13l-44 35l-45 -1l-118 -39l-18 4l-115 -21l-12 -20l3 -13l90 20c12 -1 24 -3 36 -5l44 -12l-44 -74z" />
    <glyph glyph-name="p.up" horiz-adv-x="522" 
d="M33 248l-2 20l4 9l39 9l74 30l124 59c13 29 28 60 42 89l24 14c5 5 9 10 12 15l44 20h18l9 -4l-5 -33l-12 -29l-89 -88l-19 -34l-13 -34l-20 -35c-8 -17 -17 -35 -24 -52l-18 -47l6 -8l123 115l44 27l8 3h45l35 -36l3 -13l-38 -112l-43 -51c-2 -7 -7 -14 -9 -21
c-3 -10 -4 -18 -7 -28l34 -8l120 57l5 -9l-7 -20l-118 -61l-24 -7l-83 14l-31 7l-6 18l1 14l20 10l18 -10l26 41l25 63l31 106h-25l-127 -115l-26 -32l-47 -69l-23 -35l-6 -18l-23 -70l-42 -94l-21 -35c-4 -17 -10 -36 -15 -53l-28 -43l-29 -44l-54 -78l-38 -61l-19 -26
l-21 -35l-75 -51h-27l-14 17l-10 104l63 130l71 96l79 105l95 126l100 125l9 42l42 88l42 74c-3 5 -6 9 -8 13l-80 -30l-37 -18l-25 -8zM-237 -503l3 -43l6 -4h23l15 11l81 101l93 192l10 17l11 27l29 51l42 85c2 12 2 24 4 35l-28 -17c-5 -8 -12 -17 -17 -25
c-6 -8 -15 -19 -20 -26l-30 -54l-98 -120l-20 -39l-25 -38l-17 -27l-21 -38l-34 -54z" />
    <glyph glyph-name="q.up" horiz-adv-x="481" 
d="M110 39l10 42l23 27c7 7 17 18 23 25l104 78h41l-7 -33c-27 -28 -60 -60 -87 -87l-74 -52h-33zM-36 -625l14 61l52 112l1 8l23 76c6 14 13 29 18 42l13 17l27 44l13 18l5 26l22 17h25l-28 -130l-42 -110c-40 -59 -84 -123 -125 -181h-18zM-63 -547l-22 -105l12 -26h44
l67 69c5 11 12 25 16 36l30 25l106 205l34 155l12 10l32 34c15 15 31 32 45 47l60 43l122 106l8 37l-183 -151l-101 -64l-11 17l24 33l10 20l22 43l25 34l27 52l23 25l15 26l42 35l63 87l21 17l37 44l-22 26h-27l-72 -60v43h-53l-97 -44l-53 -43l-80 -95c0 -1 -2 -6 -2 -8
l-35 -43l-21 -54l12 -26h61l48 18l115 94l-3 -16l-104 -155l-16 -28l-39 -17l-12 -17l-3 -52l-120 -254l-25 -54z" />
    <glyph glyph-name="r.up" horiz-adv-x="429" 
d="M180 54l-25 -46v-29l1 -35l38 -9l42 17l47 3c20 15 41 27 62 42l97 54l16 20l-4 20l-195 -110c-4 0 -9 1 -12 1l8 55l66 137l84 100l11 5l12 10l10 36h-26l-32 -13l-31 57c3 14 7 29 11 42l10 25l-18 25h-40l-39 -51l-13 -44l-91 -42l-121 -40l-16 -29l8 -12l68 11l94 45
l47 22l11 -10l5 -28l39 -29l-28 -33z" />
    <glyph glyph-name="s.up" horiz-adv-x="527" 
d="M290 160l-47 -43l-51 -37l-16 -4l-20 -3l-16 -9l-4 12l2 11c8 9 18 17 26 26l13 13zM62 47l-9 -29l3 -19l11 -7l23 -7l41 1l134 55c1 5 13 12 14 18l14 8l101 117l121 59l59 5l12 24l-3 12l-56 -5l-74 -30l-49 -22l12 45l20 52l26 98l44 49l-15 18h-26l-54 -43l-49 -52
l-80 -44l-131 -52l-105 -19l-13 -21l5 -12l112 17l106 43c10 5 55 22 65 26h25l-3 -34l-34 -97l-140 -40l-28 -14l-63 -62z" />
    <glyph glyph-name="t.up" horiz-adv-x="424" 
d="M41 279l-14 -23l7 -13l120 38l113 75c3 7 7 17 10 24l28 7l-6 -26l-65 -118l-40 -98l-33 -57l-1 -19l-17 -71l25 -22l102 5l28 15l45 15l104 43l4 21l-9 9l-188 -68l-15 13l-6 19l27 71l27 72l47 87l37 49l82 139l52 25l205 8c62 6 126 12 187 19l23 -9h35l5 27l-392 -10
l-67 27l18 45l49 95l-32 18h-28l-67 -77l-40 -71l-22 -28l-94 -6l-46 -3l-21 -18l12 -14l107 -3l14 -18l-12 -31l-192 -124z" />
    <glyph glyph-name="u.up" horiz-adv-x="530" 
d="M550 54l7 18l-19 11l-96 -45l-24 20l31 116l15 26c1 8 5 17 6 24l70 62l11 43l-11 6l-51 -6l-40 -50l-100 -91l-150 -138l-21 13l17 33l2 17l20 35c3 14 7 30 10 43l51 88l-13 17l-116 -9l-103 -8l-11 -12l2 -21l157 15l6 -9l-53 -69l-58 -149l-7 -68l24 -9h35l64 52
l49 25l18 27l45 42c4 6 9 15 13 20c11 8 22 16 31 24l-19 -109l26 -35l60 -8l64 41l18 9z" />
    <glyph glyph-name="v.up" horiz-adv-x="545" 
d="M592 253l5 29h-12l-49 -3l-39 56h-29l-34 -28l-24 -98c-2 -6 -6 -11 -8 -16l-74 -95l-74 -64h-16l-8 17l6 33l19 17l18 29l7 11l16 52l7 75l-27 40l-34 11l-97 -11l-42 -11l-56 -15l-11 -36c40 12 85 25 126 37h39l19 -22l-22 -120l-29 -44c-6 -13 -13 -27 -18 -40
l-10 -18l-7 -40l12 -29h47c8 6 17 11 25 17l38 17l7 6l50 33c5 8 12 17 17 24l6 6l29 34l58 74l28 33l69 27l44 7z" />
    <glyph glyph-name="w.up" horiz-adv-x="615" 
d="M102 130l-100 -164l10 -15h28l40 8l23 35l48 50l20 22l9 7l39 41l42 44c6 6 13 15 19 21l33 14h7l-15 -27l4 -16l-15 -56l-32 -70l-13 -45h59l80 65l79 77l47 43l57 57l91 28l10 37l-81 -14l-90 -69l-81 -94c-14 -6 -31 -16 -45 -23l-18 2l15 27l22 87l9 36h-86
l-113 -100c-17 -18 -37 -37 -54 -55c-5 1 -10 4 -15 5l21 27l34 72l11 43l-8 51l-51 21l-107 -23l-8 -28l89 15l5 -64z" />
    <glyph glyph-name="x.up" horiz-adv-x="428" 
d="M40 -15l-41 -89l19 -25h28l23 17l-23 18l12 42l80 79l76 45l13 -20l5 -43l16 -43h50l33 26l-36 36l8 128l102 85l201 141l2 9h-19l-93 -62c-5 -3 -9 -6 -12 -9l-52 -34l-94 -58c-2 2 -3 5 -5 8c4 19 11 39 15 58l25 27l16 62l-13 17h-28l-41 -44c-21 -10 -45 -23 -66 -33
l-115 -27l-85 -14l-8 -38l96 14l92 25c25 12 52 25 76 38l-23 -60l-42 -122z" />
    <glyph glyph-name="y.up" horiz-adv-x="538" 
d="M-163 -743l-14 17l13 70l60 144l118 121l1 9l31 26l22 27l31 26l61 47h23l-118 -220l-23 -35l-51 -85l-93 -117c-20 -10 -42 -21 -61 -30zM-221 -726l2 -35l30 -17h27l59 12l110 123l64 96l67 78l45 106l23 35l15 33l3 17l51 86l24 36l1 8l12 18c0 2 2 6 2 9
c16 16 32 36 48 53l187 121l7 36l-151 -104h-27l22 58l17 44l14 25l30 69l56 113l-20 27h-27c-14 -15 -29 -30 -43 -44l-160 -164l-69 -43l-6 8l17 86l52 79l23 25l5 28h-73l-49 8l-123 -26l-7 -30l124 23l24 -9l-32 -81l-38 -103l-11 -44l-27 -44l13 -17h39l97 61l88 93
l31 27l39 33l-21 -66l-3 -17l-12 -17l-5 -28l-92 -179l-61 -62c-11 -11 -23 -24 -33 -34l-91 -78l-131 -139l-7 -6c-4 -6 -11 -15 -14 -20l-20 -17c-8 -7 -18 -18 -24 -25l-8 -9l-67 -129z" />
    <glyph glyph-name="z.up" horiz-adv-x="472" 
d="M-15 -476l-14 16l-3 39l30 55l62 65l27 35l192 187l26 -50c-10 -15 -20 -29 -30 -42l-11 -14l-31 -46l-63 -84l-121 -131zM496 69l-6 16l-132 -72l-28 26l-34 60l-77 33l55 52l43 35l48 51l20 27l12 44l-54 24l-70 -3l-147 -64l-77 -16l-9 -36l66 10l180 80l42 -21
l-39 -68l-33 -26l-20 -17l-145 -115l21 -26c24 -8 49 -17 72 -25l75 -73c5 -4 9 -9 13 -13l-221 -216l-78 -75c0 -3 3 -9 3 -13l-40 -52l-32 -73l9 -44h34l64 13l113 91c6 7 14 14 22 21l96 77l66 106l50 84l26 33l-18 72l15 17l105 66z" />
    <glyph glyph-name="a" unicode="a" horiz-adv-x="492" 
d="M180 52l-5 17c1 14 3 31 5 44l98 107l33 21l44 27c10 1 21 5 31 6l17 -1c1 -4 3 -9 5 -13l-12 -16l-21 -25l-41 -70l-108 -88l-21 -9h-25zM505 53l10 24l-1 10l-115 -52l-16 4l-4 13l25 61l33 52l56 86l40 44l-29 18l-23 -15l-55 15h-58l-143 -89l-46 -64l-166 -84
l-8 -26h11l108 38h10l-10 -13l-4 -23l15 -33l12 -10l67 5l40 21l23 17l37 29l-11 -47l20 -25l44 -18l31 6z" />
    <glyph glyph-name="b" unicode="b" horiz-adv-x="657" 
d="M493 396h-25l82 126l16 34l17 35l14 25l47 78l75 105l34 33l26 31l38 28l46 4l9 -10l-6 -32l-45 -53l-13 -18l-46 -53l-76 -95l-103 -133l-33 -32zM496 174l-4 -24l-57 -61l-55 -36l-55 -21l-18 15l25 94l58 99l21 52l139 130l159 197l60 65l51 78l82 90l14 62l-26 32
l-25 3l-72 -36l-120 -96l-76 -105l-36 -59l-72 -114l-73 -127l-11 -17l-58 -102l-31 -28l-21 -16l-124 -81l-38 -26l-133 -67l-3 -17l5 -11l122 52l40 33l71 36l83 62h7l-52 -81l-38 -85l12 -64l21 -15h55l82 53l44 24l17 13l30 44l19 19l33 44l15 10l62 34l85 27l11 24
l-11 7l-83 -18l-40 -12l-50 -19l-69 24l-23 -22l-7 -15l6 -13l9 -7l25 1z" />
    <glyph glyph-name="c" unicode="c" horiz-adv-x="442" 
d="M141 31l39 -44h29l28 -4l42 10l57 21l121 38l13 25l-5 8l-74 -27l-111 -34l-17 -4h-24l-18 13l-14 76c4 20 11 44 17 64l50 65l85 41c7 0 18 2 24 2c-2 -10 -2 -22 -3 -32l-15 -26l14 -17h18l32 25l25 97l-38 16h-43l-42 -18l-59 -35l-72 -65l-107 -87l-84 -61l-7 -28
l17 4l127 92l-14 -53z" />
    <glyph glyph-name="d" unicode="d" horiz-adv-x="668" 
d="M9 50l-3 16l7 15l81 52l50 33l96 61l110 94l39 17h44l36 -33l100 128l46 63l29 23l71 105l76 104l12 18l32 41l33 45h34l-5 -28l-52 -68l-24 -60l-60 -87l-52 -103l-34 -45l-38 -77l-13 -26l-54 -113l-36 -60l-13 -42l-6 -70l8 -18h41l40 8l89 47l6 -8l-12 -28l-75 -36
l-53 -18h-76l-43 17l-15 32l-3 23l22 59l35 69l12 17l48 87l69 104l4 25h-8c-10 -14 -22 -30 -32 -43l-31 -34l-38 -62l-128 -146l-20 -17l-14 -19l-39 -34l-53 -60l-65 -26l-48 -8l-12 8l-6 26l9 51l38 64l16 21l-24 -15l-137 -87zM192 36l7 -5l108 92l48 43
c5 5 11 12 16 18l53 60l3 17l-27 -10l-70 -8l-48 -26l-69 -104zM328 278l-3 -14c1 0 4 -3 3 -4h41c6 1 14 3 18 4l26 24l2 10c-1 1 -3 3 -4 5h-29z" />
    <glyph glyph-name="e" unicode="e" horiz-adv-x="359" 
d="M164 145l5 12l7 14c0 3 2 5 2 7l38 43c24 18 52 37 75 55l15 4l20 -4l2 -20c-1 -5 -4 -12 -5 -17l-21 -22l-61 -39l-58 -26c-6 -3 -13 -4 -19 -7zM-1 57l5 -9l67 40l4 -49l28 -39l58 -20l54 9l102 35l58 32l13 24l-6 8l-95 -45l-20 -12l-60 -12c-10 1 -24 7 -34 9l-15 7
c-2 9 -2 19 -3 29l8 44l68 33l90 47l36 43l16 63l-19 25l-24 10l-20 -4l-77 -32l-116 -110l-35 -59l-71 -44z" />
    <glyph glyph-name="f" unicode="f" horiz-adv-x="395" 
d="M-60 -516l-20 20l19 46l8 23l5 11c2 8 6 21 7 29l20 45l7 6l51 91l13 22l16 17l19 35l18 50l73 80h12l12 -10l18 -7l-13 -40l-30 -91l-7 -11l-15 -22l-17 -29c0 -2 -3 -5 -4 -8l-26 -60l-56 -74l-28 -53l-40 -45l-23 -10c-7 -5 -14 -10 -19 -15zM406 52l14 27l-8 7
l-29 -17l-92 -51h-55l1 28l14 41l19 45c2 7 6 14 8 21l17 23l21 40l11 30l41 63l17 55l46 64l7 21l37 33l99 87l12 16l59 142l2 34l-45 11l-26 -11l-100 -163l-134 -190l-278 -292l-55 -37l-11 -18l5 -13l32 18l39 26l142 137l24 34l42 43c4 -2 8 -5 11 -8l-30 -56l-9 -12
c-4 -9 -8 -19 -13 -27l-11 -14l-16 -29l-30 -56l-44 -81l-15 -16l-39 -70l-26 -40l-13 -23l-18 -28l-13 -23l-26 -45l-19 -46l-6 -11l-13 -35l-25 -44c-1 -7 -4 -16 -7 -23l-19 -35l-20 -74l10 -41l42 -16l56 34l35 39l11 11l37 59l27 40l72 113l26 51l11 46l27 56l16 46
l45 25c6 6 13 14 19 20l57 35c2 1 4 4 5 5z" />
    <glyph glyph-name="g" unicode="g" horiz-adv-x="545" 
d="M185 64l-2 4l3 46l12 12l45 70l84 35h43c10 -5 19 -12 30 -17l-74 -95l-120 -79zM-70 -650l-20 35l45 119l30 26l3 17l124 140l59 42h17l-36 -59l-51 -95l-20 -36l-25 -43l-91 -146h-35zM571 76l-6 15l-50 -30l-134 -100h-7l83 158l21 25l34 53c2 4 5 7 7 11l82 77l27 44
l-7 12l-28 15l-62 -43l-22 -29l-53 -43l-42 43h-52l-93 -27l-152 -103l-21 -25l-87 -49l-10 -21l13 -9l97 52l-8 -34l41 -72h43l57 28l40 31l84 58h16l-68 -124l-13 -42l-51 -94l-81 -70l-71 -70l-38 -34l-165 -190l-22 -140l25 -43l41 -18l87 70l28 53l65 94l18 59l39 35
l75 139l35 61l25 53l62 60l21 25l61 43l30 27l34 27l37 21z" />
    <glyph glyph-name="h" unicode="h" horiz-adv-x="640" 
d="M474 527l32 57l14 34l28 61l132 130h34l16 -26l-13 -26l-33 -51l-135 -130l-56 -48zM-7 54l5 -14l51 38l29 17l52 44l99 121l16 19l36 25c4 -4 10 -12 13 -16l-20 -31l-77 -153l-4 -16l-32 -43l-32 -43l15 -18h27l79 77l11 9l6 7l25 34l25 27l64 35l68 23l15 5
c4 -6 7 -15 11 -22l-5 -14l-10 -48l-12 -46l14 -50l15 -22l18 -10l22 3l136 63l11 19l-7 12l-109 -50c-3 1 -8 2 -12 2l-17 61l14 49l34 75v39l-18 7l-34 7l-82 -22l-125 -91l-17 -15l18 55l55 83c1 4 1 12 2 17l25 51l22 35l18 39l99 86l42 52l141 130l64 122l-29 34h-62
l-38 -18l-89 -76l-39 -25l-69 -106l-40 -86l-21 -34l-58 -104l-249 -265l-79 -64z" />
    <glyph glyph-name="i" unicode="i" horiz-adv-x="425" 
d="M362 476l-7 -23l17 -11l57 2l51 39l-8 36l-26 12l-50 -31zM184 124l-40 -90l9 -41l16 -15l66 -1l57 17l145 59l13 18l-7 12l-185 -64l-25 4l6 41l9 24l75 120l60 96l-48 18l-23 -1l-54 -69l-50 -48l-104 -82l-95 -43l-10 -18l5 -13l103 36l20 19c13 6 30 19 44 26
c4 -2 10 -3 13 -5z" />
    <glyph glyph-name="j" unicode="j" horiz-adv-x="444" 
d="M400 578l-39 -29l19 -57l33 -10l65 38l8 51l-29 10l-3 25h-51c0 -8 -2 -20 -3 -28zM-347 -693l26 -36h44l85 61l60 70l32 32l14 19l9 8l39 62l26 49l41 61l29 51l26 35l21 51l50 70l8 34l76 78l65 25l22 16l29 17l102 45l13 18l-7 13l-261 -121l27 57l18 31l43 77l14 27
l17 34l45 77c4 17 9 36 13 53l12 35l-84 -18l-3 -17l-7 -15l-7 -25l-9 -15l-137 -105l-133 -80l-14 -21l6 -12l147 76l106 81l-123 -236l-77 -145l-148 -122l11 -11c31 23 65 48 97 71h8c-2 -8 -6 -18 -7 -26l-74 -138l-109 -186l-112 -104h-16l-13 17l45 111l23 43
c17 25 36 53 54 80c4 5 11 16 15 22l44 63h-19l-76 -83c-8 -12 -18 -26 -26 -37l-10 -9l-68 -121z" />
    <glyph glyph-name="k" unicode="k" horiz-adv-x="736" 
d="M506 466h-6l30 52l18 33l15 27l18 35l29 43l15 26l26 34c10 15 21 30 31 45l64 53c25 13 60 37 86 49l11 -2l8 -46l-25 -57c-18 -19 -41 -40 -59 -59l-47 -43c-7 -8 -17 -17 -24 -25l-89 -80l-34 -33c-22 -16 -45 -35 -67 -52zM-9 73l-1 -18l18 -3l49 31l59 35l70 44
l116 99l5 -10l-11 -20l-13 -17l-37 -77l-68 -131l19 -26h53l22 53l42 60l22 18l61 68l37 12h20l22 -1l13 -14l14 -50l65 -117l29 -18l159 66l4 17l-5 6l-92 -27l-26 -8l-51 68l-25 61l-16 48l105 124l-3 33l-11 4l-62 -21l-116 -78l-88 -70h-7l11 44l65 83l31 46l111 112
l92 86l56 48l141 132l11 18l14 40l-1 61l-18 26h-60l-38 -8l-84 -52l-83 -95l-119 -177l-75 -157l-68 -90l-227 -177l-118 -69z" />
    <glyph glyph-name="l" unicode="l" horiz-adv-x="399" 
d="M429 403l-9 6l23 42l37 68l89 162l47 43l23 17l46 25h18l13 -17l-16 -41l-83 -110l-39 -42zM16 78l-13 -26l4 -6l65 28l75 47l106 103h7l-43 -111l-30 -99l16 -27l48 9l165 61l8 23l-6 3l-147 -32l-8 13c3 10 13 64 15 75l18 26l22 43l16 26c0 2 2 6 2 9l55 67l20 36
l126 131l48 44l167 211l17 53l-13 17l-14 34h-22l-82 -35l-88 -67l-149 -248l-88 -173l-127 -105c-7 -7 -14 -17 -21 -24l-61 -63z" />
    <glyph glyph-name="m" unicode="m" horiz-adv-x="881" 
d="M206 49l-29 -43l5 -11l24 -8l49 18l64 78l164 128h26l6 -9l-10 -33l-107 -136l-7 -28l9 -6l37 6l160 154l59 35l50 27h24l7 -7l-1 -28l-46 -92l-38 -78l3 -16l30 -27h44l167 83l10 19l-6 8l-136 -57l-23 -1l-9 19l15 33l17 33l29 76l13 53l-11 19h-71l-108 -55
c-6 -5 -13 -10 -20 -16l-26 -8l14 52l-20 27h-44l-49 -19l-113 -69l-26 -34h-16l49 94l22 53l-13 21l-19 4l-70 -9l-19 -13l-80 -74l-181 -133l2 -31l176 123l85 72l22 10l11 -2v-30l-82 -155z" />
    <glyph glyph-name="n" unicode="n" horiz-adv-x="642" 
d="M664 73l-7 10l-19 -10l-104 -65h-22l-8 12v14l54 92l55 113l-7 10l-50 24h-11l-48 -18l-135 -87l-75 -65l26 99l-4 17l-26 20h-46l-96 -64l-131 -99l-8 -17l3 -11l25 11l142 102l48 35h16l4 -5l-12 -55l-49 -99l-22 -45l1 -8h43l46 43c18 19 38 39 56 58l156 118l42 21
l9 -1c2 -5 5 -16 8 -22l-104 -195l2 -17l29 -32l69 7l138 89z" />
    <glyph glyph-name="o" unicode="o" horiz-adv-x="476" 
d="M217 54l-9 35c5 19 11 40 17 59l80 78l69 27h16c-3 -14 -7 -29 -10 -42l-13 -15c-28 -41 -59 -87 -87 -127c-9 -4 -20 -10 -29 -15h-34zM124 63l18 -53l40 -17h63l98 76l94 167l85 15l12 20l-4 8h-63l-31 48c-11 -1 -25 -3 -36 -4h-17l-59 -25l-49 -19
c-1 -5 -3 -11 -5 -17l-74 -51l-75 -52l-111 -80l-5 -22l6 -6l89 57c8 2 19 6 27 8z" />
    <glyph glyph-name="p" unicode="p" horiz-adv-x="712" 
d="M-167 -609l29 2l25 2l24 41l85 113l15 47l15 16l6 37l18 29l14 32l81 132l126 143l14 12l56 62l13 14l46 43l102 107l14 5h29l11 -12l4 -56c-1 -3 -3 -9 -3 -12l-47 -80l-58 -5l-53 -28l-7 -17l21 -21h134l17 6l38 7l38 14c2 1 6 4 9 5l12 5l61 19l12 20l-7 11l-46 -16
l-78 -24l-40 -10l-30 -1c-2 0 -6 2 -8 3l40 48l13 5l33 26l30 51l-3 32l-13 33l-24 30l-65 17l-14 -3l-44 -34l-134 -135l-51 -62l-63 -53c-8 -12 -17 -25 -25 -36c-2 -1 -4 -3 -6 -4l29 80l7 12l30 80l32 51l40 79l89 102l-1 36l-15 16h-25l-253 -236l-129 -95l-6 -24l9 -4
l113 73l41 30l115 115l1 -17l-90 -145c-1 -5 -3 -12 -4 -17l-13 -26l-6 -18l-5 -6l-56 -106c-3 -8 -7 -16 -11 -24l-15 -27l-12 -20l-7 -12l-58 -124l-13 -32l-11 -19l-25 -44l-18 -30l-67 -63l-16 -15l-36 -75l-2 -14z" />
    <glyph glyph-name="q" unicode="q" horiz-adv-x="632" 
d="M290 80l-8 9c7 15 14 28 20 42l61 60c38 18 77 38 114 57l-51 -85l-68 -78c-5 -2 -12 -6 -16 -9l-21 -1c-10 1 -22 4 -31 5zM23 -746l1 12l50 118l46 71l23 39l9 20l14 26l16 39l29 39l17 49c4 -12 8 -25 12 -36l-6 -78l-19 -66l-18 -18l-16 -47l-36 -51l-23 -31l-38 -47
zM643 51l14 35l-6 5l-97 -72l-187 -161l-28 -18h-15c-2 1 -4 5 -4 7l21 42l37 32l10 19l61 78l61 104l31 44l30 50l57 62l53 86l4 36l-11 5l-52 -5l-68 -67l-42 -2l-154 -61l-93 -61l-44 -25l-30 -22l-64 -26l-122 -57l-8 -27l5 -8l140 57l17 17l45 16l-4 -87l7 -10l60 -18
h45l52 43l44 36l-18 -44l-11 -17l-23 -61l-28 -34l-79 -137l-82 23l-10 -5l-12 -29l21 -33l-5 -87l-35 -64l-115 -221l-23 -45c-2 -10 -2 -21 -4 -32l-13 -60l-1 -6l13 -12l4 -27h26l74 45l113 138l17 46l33 78l28 97l-22 91l8 19c0 3 2 10 1 13l29 33l106 62l58 62l50 47
l100 88z" />
    <glyph glyph-name="r" unicode="r" 
d="M262 49l13 -52l31 -17l62 7l146 66l9 20l-5 10c-25 -12 -53 -24 -77 -37l-47 -10l-27 -3l-7 6l1 64l44 85l16 16l28 67l18 17l7 26l-94 43l3 36l12 30l-25 11l-43 6l-12 -7c-2 -20 -1 -45 -4 -65l-58 -119l-97 -85l-148 -86l-7 -20l6 -11l110 47l37 29c7 5 13 11 21 16
l92 65l52 67l22 16l16 -19v-15l-38 -74z" />
    <glyph glyph-name="s" unicode="s" horiz-adv-x="482" 
d="M265 -17l37 12l35 6l121 40l36 10l14 26l-6 6l-146 -43h-19l16 12l54 75l12 21l20 108l28 48l39 35l20 23l12 21l5 19l-31 21l-9 -2l-33 -27l-24 -42l-85 -56l-24 -18l-36 -29l-25 -20l-58 -27l-63 -35l-150 -91l-8 -19l8 -10l72 37l19 9l113 68l42 17l40 33l18 6l48 38
l-11 -47c0 -4 2 -9 2 -13l-10 -68c-20 -29 -41 -61 -61 -91l-44 -21c-11 1 -21 4 -32 5l-26 44l-42 -1l-10 -6l-18 -30l12 -24l57 -28l74 -5z" />
    <glyph glyph-name="t" unicode="t" horiz-adv-x="459" 
d="M197 41l14 -44l43 -18l77 21l140 56l15 20l-8 8l-147 -46l-33 6l-4 8l35 105l36 68l30 79l41 60l7 17l48 61l39 17l32 26h174l81 9h36l9 17l-3 9h-245l-10 9l2 37l52 109l47 52l6 26l-12 16l-64 -41l-101 -128l-43 -68l-176 -8l-10 -18l3 -9l121 -9l12 -17l-31 -47
c-5 -8 -12 -17 -17 -25l-41 -52l-235 -201l-110 -67l-5 -27l5 -6l195 120c24 25 50 52 73 77h16l-7 -26z" />
    <glyph glyph-name="u" unicode="u" horiz-adv-x="645" 
d="M12 80l-6 -28l6 -4l245 186c7 0 12 2 19 2l-6 -13l-67 -81l-33 -46l-17 -62l19 -25l33 -18l12 1l88 35l19 11l145 138c0 -3 3 -5 4 -8l-49 -94l4 -36l24 -43h55l149 61l12 20l-6 9l-130 -47l-10 4l-4 16l58 154l36 89l-13 17h-31l-202 -191l-49 -50l-39 -16h-20
c1 4 -5 4 -3 8l23 70l96 147l-7 8h-62l-49 -19z" />
    <glyph glyph-name="v" unicode="v" horiz-adv-x="585" 
d="M238 143l-45 -138l15 -15l49 -12l68 61l156 134l93 75h58l15 14l-3 16l-62 5l-13 32l-23 -1l-72 -90l-22 -24l-127 -116l-15 12l46 129l30 113l-23 16l-16 2l-66 -15l-20 -12l-121 -135l-136 -119l-7 -23l9 -6l12 6l143 122l35 32l83 88h15c-7 -30 -16 -63 -23 -94z" />
    <glyph glyph-name="w" unicode="w" horiz-adv-x="765" 
d="M500 208l-53 -199l12 -8l47 -1l50 51l57 43l26 27l103 118l72 10l10 15l-4 17l-55 1l-1 60h-16l-30 -14l-21 -32l-18 -64l-59 -87l-53 -46l-15 15l41 152l-11 13h-49l-91 -49l-105 -91l-28 -7l44 119l21 35l14 52l-23 18l-21 -15l-55 -12l-71 -55l-63 -61l-145 -131
l-13 -19l-2 -13l10 -2l131 105l34 30l89 85l14 5l17 -9l-88 -196l-23 -54l12 -17h27l63 45l62 69l65 50l85 60z" />
    <glyph glyph-name="x" unicode="x" horiz-adv-x="597" 
d="M624 80l-7 7l-95 -55l-9 1l-13 31l-12 40l-12 45c4 17 9 36 13 54l97 67l70 48l8 8l39 81l1 9l-19 26l-22 -2l-31 -17l-6 -10l3 -24c3 -6 8 -11 11 -17l-10 -26l-13 -28c-7 -3 -8 -9 -15 -12l-127 -67l-12 26l-5 31l-11 62l-26 16h-48l-7 -4l-118 -81l-235 -206l-16 -29
l7 -8l10 5l251 210l60 37l42 -2c5 -15 11 -35 15 -50l-1 -60l-40 -39l-104 -82l-87 -101l-10 -39l13 -8l19 8l25 38l21 23l13 16l85 67l72 50l29 -87l34 -53l14 -1l47 15l96 60z" />
    <glyph glyph-name="y" unicode="y" horiz-adv-x="621" 
d="M-63 -558l16 30l15 44l81 88l116 122l58 46h15l-40 -71l-26 -35l-41 -77l-97 -113l-68 -52l-29 3v15zM604 316l-71 -10l-8 -25l-34 -33l-57 -79l-136 -119l-28 -7l-5 5v25l47 76l41 62l20 25l5 18l-16 32l-8 3l-70 -16l-69 -52l-138 -95l-65 -46l-14 -25l9 -4l134 83
l8 10l54 38l81 51h13l-15 -27l-69 -90l-42 -87l20 -35l12 -5l64 5l122 101h8l-29 -82l-90 -161l-222 -190l-115 -138l-19 -18l-30 -75l-2 -43l32 -8l91 17l17 11l100 93l29 43l32 33l78 131l47 106l53 53l104 73l83 54c13 9 27 20 39 29l39 28l14 25l-6 9l-58 -34l-81 -58
l-114 -72l48 82l17 26l23 60l58 87l16 27l63 103z" />
    <glyph glyph-name="z" unicode="z" horiz-adv-x="548" 
d="M176 -291l-18 6l-3 11l18 36l51 49l111 85l-32 -65l-39 -51zM555 50l18 27l-6 9l-12 -3l-86 -49l5 51l-3 6l-22 26l-8 4l-78 3c-10 4 -20 6 -31 9l44 41l43 55l8 32l-6 8l-37 30h-78l-41 -18l-64 -52l-196 -155l-12 -22l13 -6l109 77l64 53l102 74l14 3l33 -9l4 -8
l-9 -32l-37 -45l-145 -108l-2 -12l14 -19l147 61h78l12 -18l-8 -59l-22 -51l-220 -182l-56 -80l9 -34l21 -18h26l41 26l21 9l98 78l86 95l48 114l45 44z" />
    <glyph glyph-name="t.alt" horiz-adv-x="338" 
d="M162 51l-31 -79l48 -26h34l83 69l58 35l15 30l-19 4c-2 -3 -6 -6 -9 -9l-106 -58l15 77l36 52c1 5 3 12 4 17l25 43l27 87l60 86l23 26l42 50l45 53c20 2 41 5 61 8l216 -7l39 17l-64 35c-25 -3 -53 -5 -79 -8l-113 1l-5 9l84 120l-37 35l-67 -27l-96 -135l-186 -14
l-22 -19l26 -11l146 -4l-14 -35l-57 -67l-116 -112l-220 -213l-15 -29l16 -11l243 233l12 -3z" />
    <glyph glyph-name="s.alt" horiz-adv-x="569" 
d="M212 8l-15 13c0 6 2 15 2 21c4 6 9 12 13 18l22 16l89 42c1 -3 4 -8 5 -10l-26 -60l-41 -25zM146 119l59 24l43 25l114 95l17 1c-7 -30 -16 -61 -23 -92l-62 -33l-46 -16l-57 -37c-3 -4 -8 -10 -11 -13l-31 -37l5 -44l28 -22l46 7l126 44l45 55l38 66l9 35l77 37l96 37
l19 29l-11 8l-87 -37c-21 -11 -45 -22 -66 -32c-4 1 -8 4 -12 5l21 119l31 71l-12 21l-40 -1l-29 -65l-222 -178l-80 -49l-117 -58l-16 -24l8 -14l94 51l33 13z" />
    <glyph glyph-name="a.alt" horiz-adv-x="538" 
d="M141 58l-5 43l18 30l66 68l86 60h23c6 -8 11 -17 16 -26l-30 -67l-119 -96zM50 70l-4 -70l66 -7l124 67l106 88l29 8l-26 -86l11 -52l37 -18l97 27l60 26l16 29l-15 4l-47 -27c-12 -1 -36 -3 -47 -5l-11 26l-3 34l95 224h-52l-69 -77h-24l-14 26l-23 26l-74 -27l-104 -77
l-76 -77z" />
    <glyph glyph-name="b.alt" horiz-adv-x="617" 
d="M554 499h-16l53 101l50 67c15 23 32 47 47 70l19 9l21 20l17 -21c-4 -18 -10 -38 -14 -56l-32 -65l-38 -53zM266 156l-17 -109l40 -27h48l86 60l68 53l36 50l15 36l141 44l6 26l-118 -10l-68 22l-27 -28l25 -37l-31 -85l-37 -22l-51 -43l-30 -12l-28 22l3 26l91 166
l48 86c2 9 6 18 8 26l55 43l161 123l53 80l34 78l11 26l-25 78l-18 11l-20 1l-84 -54l-118 -186l-11 -35l-117 -190l-86 -59l-172 -139l-124 -89l-12 -44l49 18l144 131l30 16l129 104c-4 -16 -8 -34 -13 -50z" />
    <glyph glyph-name="d.alt" horiz-adv-x="528" 
d="M209 59l-13 17c4 20 10 40 15 60l6 3l50 32c33 35 71 73 105 108h38l-32 -105l-50 -56l-87 -59h-32zM122 89l-11 -80l75 -18l75 22l10 9l36 31l37 35l29 25h17l-30 -76l18 -32h75l62 32l28 17l9 34l-88 -40c-10 3 -21 7 -30 10c26 60 56 123 84 183l56 98l86 135l36 45
l40 52l-19 27h-27l-53 -51l-91 -139l-38 -62l-41 -56l-32 42h-58l-81 -35l-156 -158l-131 -59l-7 -27h16l86 36h18z" />
    <glyph glyph-name="e.alt" horiz-adv-x="369" 
d="M22 88l-10 -39h32l36 6l20 -89h78l103 20l98 62l4 2l10 40l-112 -55l-81 -20l-27 38l10 34l70 61l108 86l72 77l16 62l-32 44h-69l-100 -44l-26 -35l-22 -16l-25 -70l-18 -27l-51 -96l-78 -41h-6z" />
    <glyph glyph-name="f.up.alt" horiz-adv-x="625" 
d="M-73 -544l19 78l42 60l34 61l69 95l46 111l19 -24l-13 -113l-92 -155l-58 -52l-51 -61h-15zM481 366h-24l58 97l34 59l25 25l24 61l62 104l47 43h25l12 -17l-25 -95l-68 -95l-28 -42l-12 -9l-53 -70zM-127 -483l-33 -122l22 -18l45 9l99 76l17 28l50 60l79 104l49 192
l-16 34l-12 52l45 69l41 95l51 68l4 -7l69 97l39 52l120 52l90 85l35 62l32 25c5 11 12 24 17 34l38 50l26 64l7 95l-24 34h-35l-79 -35l-100 -110l-117 -218l-40 -53l-31 -59l-81 -34l-107 -17l-7 -28h36l102 35l4 -17l-62 -88l-26 -34l-2 -10l-82 -147l-46 -8l-16 -60
c-2 -15 -1 -30 -3 -44l-11 -43l-63 -104l-18 -35z" />
    <glyph glyph-name="l.alt" horiz-adv-x="393" 
d="M501 516h-7l67 104l6 17l19 35l13 7l56 67l98 92l42 3l18 -10l5 -31l-58 -69l-28 -28l-94 -82l-86 -62zM1 74l-5 -24l7 -4l56 31c4 7 11 16 16 22l98 102l77 72l28 10c-7 -15 -13 -31 -20 -47l-74 -105l-32 -57l-16 -18l-9 -27l-3 -12l-14 -35l11 -17h36l103 38l148 50
l20 30l-10 7l-168 -55h-38l13 46c3 8 8 17 11 26l21 33l31 47l77 104l59 112l107 95l14 17l60 43l65 53l12 8l54 52l120 127l4 73l2 17l-20 6h-88l-106 -77l-63 -53l-103 -143l-31 -34l-33 -63l-27 -51l-18 -43l-15 -17l-4 -10l-20 -25z" />
    <glyph glyph-name="r.alt" horiz-adv-x="477" 
d="M211 18l5 -44l32 -17h58l168 84l23 21l5 15l-8 6l-137 -72l-33 -11h-32c-1 2 1 14 -1 18l50 95l111 146l-3 24l-55 34l-9 26l7 74l-18 26l-31 1l-23 -14l-12 -14c-3 -27 2 -48 3 -73l-7 -26l-144 -128l-156 -114l-6 -20l7 -9l102 67l210 165l37 -17l-15 -52l-78 -103z
" />
    <glyph glyph-name="s.up.alt" horiz-adv-x="464" 
d="M104 -11l11 41l76 60h7l-9 -42l-36 -54l-19 -16h-22zM40 -18l18 -30l47 -24l15 2l41 12l96 96l59 128l95 62l111 22l15 27l-6 11l-151 -39l-22 7l4 51l43 59l35 71l-20 22l-12 -2l-50 -29l-49 -52l-80 -43l-187 -54l-9 -31l12 -4l185 62l36 8l5 -16l-45 -139l-151 -119
l-28 -40z" />
    <glyph glyph-name="v.up.alt" horiz-adv-x="474" 
d="M204 186l-169 -236v-35h54l48 52l22 17l22 26l30 19c7 8 23 16 32 24l117 89l45 43l42 46l20 9l59 7l10 37l-42 1l-12 16h-27l-21 -12l-60 -85l-189 -159l-8 9l5 17l52 68l33 36l29 38l12 47l6 53l-12 18l-53 25l-30 -6l-121 -62l-53 -8l-9 -31h72l29 8l25 10l23 -1
l28 -28l1 -18z" />
    <glyph glyph-name="p.alt2" horiz-adv-x="703" 
d="M-197 -671l-22 9l26 116l44 100l42 53l34 43l6 7l32 44l51 60l27 45l18 15l13 20l72 85h8l-29 -85c0 -2 -2 -6 -2 -9l-12 -17c-1 -5 -1 -12 -2 -17l-42 -97l-24 -42l-21 -43c-20 -44 -42 -89 -61 -132l-10 -8l-33 -51l-65 -68c-16 -8 -33 -19 -50 -28zM-263 -663l21 -34
l89 10l84 66l30 45l11 8l21 24l44 73l12 18l29 52l79 163l10 18l26 52l37 69l14 26l10 17l27 70l46 77l48 52l67 35l18 16l83 35c3 -2 5 -6 7 -8l-4 -18l-4 -25l-27 -43l-34 -74l-29 -22l37 -44l50 -14l46 17l132 56l8 37h-8l-115 -52l-25 9l55 130l12 88l-70 8l-99 -26
l-95 -61h-16l4 25l57 96l84 131l32 34l2 18h-57l-50 -34l-23 -26l-102 -127l-87 -70l-83 -82l-79 -59l-52 -9l-8 -36l80 16l75 45l49 49l89 81l6 -9l-65 -95l-37 -78c-4 -17 -10 -34 -15 -51l-116 -130c-6 -8 -15 -19 -20 -26l-174 -206l-124 -215z" />
    <glyph glyph-name="f.alt2" horiz-adv-x="456" 
d="M-48 -489l4 23l63 130l27 69l23 34l61 130c12 17 24 35 34 51l31 37h25l22 -15c-4 -21 -12 -44 -16 -64l-38 -79l-3 -17l-69 -128l-41 -36l-51 -60l-52 -52c-7 -7 -12 -15 -20 -23zM426 374l3 17l22 35l95 171l94 121l65 58l38 17l22 -4c2 0 3 0 3 -1l-3 -25l-28 -102
l-51 -45zM-121 -536l-12 -69h26l48 43c11 16 25 36 37 52l48 42c10 15 22 30 32 44l94 105c1 5 1 12 2 17l10 17l2 9l22 34l24 43l24 44c15 33 31 66 47 99l39 35l152 74l12 24l-8 10l-153 -61c-8 2 -15 8 -21 10l-34 47l33 91l37 77l176 157l106 114l146 119l21 51l15 27
l14 51l8 43l-11 37h-60l-65 -18l-58 -52l-97 -129l-73 -87l-65 -113l-81 -138l-124 -114l-39 -25l-147 -92l-14 -28l6 -14l148 81l69 58l30 29c6 3 14 7 19 10h8l-220 -382l-94 -225z" />
    <glyph glyph-name="p.alt" horiz-adv-x="661" 
d="M-231 -634l-8 40l18 43l14 34l24 77l31 42l10 9c4 6 9 13 13 18l22 25l26 43l72 70l144 138l17 19l8 -11l-51 -103l-55 -104l-23 -42l-34 -61l-87 -134l-48 -64l-78 -43zM677 54l7 41l-101 -37h-26l45 81c3 8 8 18 13 26l24 34v45h-71l-215 -130h-25l59 119l22 28
c3 16 10 34 13 50l11 10c7 7 14 17 21 25l12 9l10 57h-27l-48 -39l-64 -51l-142 -128l-50 -26l-129 -80l-8 -37l48 18l110 62l151 130h13l-25 -36l-87 -172c-4 -9 -8 -18 -13 -25l-268 -269l-75 -78l-57 -75l-33 -54l-18 -51l-18 -44l-21 -61l11 -63l87 2l57 17l54 60l50 42
l12 19l22 36l49 86l23 43l21 34l24 52l16 26l25 51l78 147l22 26l19 52l81 69l65 32l31 26l68 28h35l-5 -25l-65 -116l-98 -61l7 -9h43l71 26z" />
    <glyph glyph-name="S2.alt" horiz-adv-x="766" 
d="M101 38l-9 17l4 79l35 67c8 6 19 14 26 20h49l12 -17l10 -21l9 -20l9 -29l-121 -96h-24zM341 -29h-63l-80 26l-47 12l7 20l83 67l41 25l56 57l154 123l86 87h20l-42 -107l-23 -25l-21 -77l-67 -116l-75 -79zM236 -55l21 -12l84 -13l41 13l107 103l136 185l21 17l23 83
l59 100l19 43l28 42l19 41l30 51l43 78l81 85l-17 20h-26l-95 -75l-87 -79l-35 -71l-25 -31l-29 -44l-155 -162l-158 -126l-40 53l-46 18h-83l-35 -17l-51 -84l-25 -92l18 -74l-112 -75l24 -31l123 88h41l37 -18z" />
    <glyph glyph-name="T.alt" horiz-adv-x="744" 
d="M73 -80l64 -49l29 -17l84 3l102 48h18l50 18c2 2 5 6 7 9l11 -2l13 1l31 37l16 5l69 105l13 24l47 72l42 59l39 77l91 163l35 39l167 3l-37 -138h23l78 128l43 47l10 39l-9 15l-60 -15l-140 -15l-55 10h-73c-9 -2 -20 -6 -29 -8l-152 -29l-75 -22c-1 -4 -3 -9 -6 -14
l-64 -22l-48 -32c-5 -9 -14 -20 -20 -28l-47 -53l-64 -50l-5 -19l34 -47l19 12l-10 30l35 37l15 27c10 10 23 24 32 35l98 67l54 8l149 40l95 5c-1 -4 -3 -8 -3 -11l-75 -75l-69 -76l-47 -78l-5 -25l-80 -131c-5 -11 -11 -24 -16 -34l-47 -77l-112 -91l-99 -29h-77l-39 21
l9 17c-9 8 -18 19 -25 27l5 23l22 5l31 13l8 31h-70l-74 -22l-5 -22z" />
    <glyph glyph-name="one" unicode="1" horiz-adv-x="686" 
d="M400 33l29 -33h20l50 28l33 65l32 36l9 29l6 9l13 22l9 9l32 52l28 41l31 28l23 45l40 57l3 24l-46 9l-23 -10l-56 -51l-72 -50l-49 -14l-19 -17l-21 -6l-145 -55l-96 -23h-152l-36 -14l-4 -30l78 -18l79 15l15 3l62 9l24 15h13l25 10l73 28l80 37l43 8l31 23h17l-4 -22
l-54 -88l-2 -4l-91 -139z" />
    <glyph glyph-name="two" unicode="2" horiz-adv-x="555" 
d="M157 23l20 -9l69 -14l60 9h28c14 4 30 10 44 14h56l42 9l21 19l19 5l23 18l-14 11h-23l-29 -10h-125l-73 10l-12 9l21 9l29 21c6 6 13 13 18 19l21 11l29 22l18 22l24 23l61 65l19 38l31 45l8 66l-21 47l-36 13l-97 -4l-45 -15l-33 -22l-32 -15l-40 -27l-13 -24l8 -9h33
l56 37l40 18h32c4 1 10 4 14 5h32l17 -18l5 -28l2 -10l-5 -40c-5 -11 -11 -21 -13 -31l-84 -98l-61 -46l-28 -24l-79 -46h-78l-72 -32l-14 -13l-3 -16l13 -14h117z" />
    <glyph glyph-name="three" unicode="3" horiz-adv-x="380" 
d="M-331 -355l-5 -33l23 -15h50l111 23c1 1 6 4 8 5h38l35 23l47 5l40 28l31 13l26 28l49 27l67 75l41 36l42 64l22 28l4 29l24 61l6 45c0 4 -2 11 -3 15l-4 65l-27 32v7l36 32c6 8 13 17 18 25l4 3l15 29l10 69l-18 46l-38 24h-60l-89 -38l-47 -40l-7 -20l5 -18h17l32 41
l76 18c6 -4 18 -9 26 -13c5 -16 13 -36 21 -51l-9 -54l-31 -32l-45 -33l-79 -28l-22 -18l-4 -25l14 -5l37 5l21 18l44 15l33 -27l10 -65l-9 -65l-16 -47c-16 -25 -33 -52 -48 -76l-21 -23l-20 -24l-61 -55l-14 -5c-6 -6 -12 -13 -16 -18l-31 -16l-10 -8l-80 -41l-145 -47
l-83 -3l1 36l-8 10l-14 -5z" />
    <glyph glyph-name="four" unicode="4" horiz-adv-x="482" 
d="M263 45l6 1zM139 -209l18 -37l17 -10l37 15c4 9 8 19 12 28l17 22l20 70l5 4l5 9l17 19l5 13l9 10l8 38l43 65l7 22l23 38v5l22 55l30 41l8 28l18 28l6 18l8 14l8 23l12 22l14 37l7 15l5 33l-12 13l-31 -13l-34 -37l-44 -87l-30 -19l-22 -5l-41 -19l-111 -10l-21 15l6 13
l3 19l15 5l35 32l29 68l5 34l-11 18l-36 -15l-27 -27l-10 -42l-19 -45l-65 -55l-38 -46l-2 -20l7 -10h33c5 3 15 8 21 10h45c4 1 10 3 14 5h55c6 1 14 6 20 8l43 5l16 10l28 5l10 3h12l-5 -35l-17 -28l-46 -97l-19 -27l-19 -43l-18 -27l-21 -41z" />
    <glyph glyph-name="five" unicode="5" horiz-adv-x="482" 
d="M-48 -284l21 -17l37 -5c13 1 25 3 37 5h28l121 27l26 23c2 4 6 10 8 13l22 5l42 37c14 21 30 45 42 65l16 14c4 10 9 22 13 33l26 46l24 107l-7 79l-43 50l-50 19l-57 -9h-51c-4 2 -11 7 -15 10l-6 21l5 37l22 27l31 56l46 7h127l40 30l2 18l9 20c-17 -1 -36 -4 -52 -5
l-108 5l-50 -5l-23 -19l-19 -13l-4 -32l-17 -14l-12 10l-2 -12c3 -1 9 -6 13 -8l-33 -65c-15 -24 -31 -48 -48 -72l-9 -10l-30 -83l31 -14l21 26c2 1 7 4 10 5l60 28l58 -15l29 10l27 -10l24 -45c3 -16 4 -35 8 -50l-11 -69l-23 -70l-53 -78l-47 -41
c-27 -13 -57 -29 -84 -42l-89 -14l-45 4l-27 47h-14l-5 -38z" />
    <glyph glyph-name="six" unicode="6" horiz-adv-x="467" 
d="M234 66l-16 8l5 42l7 9l12 23l38 13h70l-5 -35l-38 -32l-60 -28h-13zM86 37l21 -18l17 -19h33c5 1 11 4 17 5h23l34 4l31 23h8l53 25l57 49l16 56l6 37l-19 24c-19 -2 -40 -3 -58 -4h-19l-63 -15l-46 -41l-25 -50l-15 18l2 18l-2 45l11 19c5 20 9 41 13 60l31 51l7 19
l28 40l32 28l21 28c10 7 20 15 27 23l41 19l37 32l54 32l38 13l31 14l33 5l4 29h-28l-55 -23l-20 -5l-69 -46l-12 -6l-24 -17l-26 -10l-87 -64l-76 -88l-23 -26c-2 -5 -4 -11 -7 -15l-38 -53l-27 -45l-11 -18l-7 -51l2 -46c7 -10 13 -22 18 -33z" />
    <glyph glyph-name="seven" unicode="7" horiz-adv-x="505" 
d="M41 -253l-4 -28l14 -10h28l45 25l60 135l18 15l26 59l26 33l58 107l21 22l14 -1c6 0 14 2 20 3l96 4l28 29l-11 16c-10 -1 -21 -3 -31 -3l-44 3l-21 10l36 54c2 4 5 9 5 14l13 19l6 9c1 4 5 9 7 12l9 7l15 42l52 78l-6 46h-51l-100 -14h-88l-39 14h-24l-30 -14l-46 -32
l-59 -36l-17 -47l20 -19l23 -3l13 17v10c1 5 0 9 0 13l4 9l32 28l15 4c2 1 7 4 10 5h13l62 -23c42 4 88 9 130 14h41l24 -24l-18 -27l-5 -13l-60 -90l-17 -16l-8 -19l-49 -40c-12 -1 -25 -5 -38 -6l-30 4l-42 -3l-21 -26v-11l39 1l47 3l13 -11l-1 -9l-5 -3l-39 -79l-5 -8
l-19 -24l-22 -28z" />
    <glyph glyph-name="eight" unicode="8" horiz-adv-x="417" 
d="M317 449l-9 12l-12 110l26 53l30 18l12 24l21 9h36v-14l13 -19l-6 -58l-14 -28l-85 -107h-12zM194 20l-45 18l-39 22l-13 13l4 25l27 48c1 6 5 15 6 21l4 9l23 29c5 8 13 17 18 24l13 10l8 17l16 12l34 40l16 11h7l23 -26l25 -134l-18 -64l-32 -29l-46 -46h-31zM95 -1
l53 -8l32 -8h37c9 4 20 11 30 16l29 8l45 52c1 2 5 4 6 6l24 24l13 27l10 8l2 11l7 14l7 100c-1 4 -6 11 -7 15l3 16l-6 23l-3 25l-25 46l2 43l11 7c2 4 4 11 7 16l10 12l2 16l54 78l5 9l18 23l4 20l8 23l6 37l-3 50l-12 15l-24 5l-65 -5l-35 -24l-11 -4l-21 -24l-44 -37
l-44 -51l-21 -97l11 -52l35 -55c0 -5 5 -13 6 -19l-33 -36l-39 -47l-27 -28l-29 -25l-25 -46l-12 -14l-13 -33c-2 -6 -7 -13 -8 -20l-13 -22l1 -33v-49l27 -3z" />
    <glyph glyph-name="nine" unicode="9" horiz-adv-x="437" 
d="M-106 -273l3 -20l13 -5l38 -3l72 31l30 22l23 8l56 37l47 55l49 35l71 80l53 92l10 28l7 8l28 70l8 13l24 65c1 15 1 29 3 43l7 55l-7 23l-2 17l-36 44l-42 12l-76 -20l-80 -38l-21 -8l-38 -30c-4 -6 -10 -13 -14 -18l-6 -9l-17 -33l-9 -60l6 -48l17 -7l19 -20l61 -3
l34 18l57 52l-10 17l-47 -41l-26 -16l-44 1l-4 8l-15 12l-12 44l24 63l20 18c5 5 11 12 16 18c8 6 16 11 23 17l18 4l24 17l48 -2l44 -60l-6 -27l6 -19c1 -5 5 -14 7 -19l-11 -42l-37 -102c-1 -4 -3 -13 -4 -17l-63 -110l-22 -26c-2 -4 -4 -11 -7 -15l-19 -31l-80 -76
l-130 -81l-33 -8l-17 15l-11 1z" />
    <glyph glyph-name="zero" unicode="0" horiz-adv-x="502" 
d="M206 53l-26 16c-9 21 -16 44 -23 65v69l10 65l6 10l6 13l17 24l12 17l41 28l19 4l48 19l12 -14h37l15 -13l18 -10l36 -35l9 -38l-3 -14l2 -65l1 -18c-4 -10 -9 -22 -14 -32c-8 -9 -18 -18 -26 -27l-41 -20l-50 -31c-14 -4 -28 -9 -42 -13h-64zM139 9h13l32 -14l27 10h37
l24 4h15l25 19l15 4l21 14l40 23l25 24l30 22c1 3 6 8 7 9l23 24l5 10l11 8l-3 15l2 9l2 50l-12 52l-3 37l-35 41l-14 10l-12 18l-41 23l-51 -19l-21 10l-48 -14l-22 -14l-23 -14l-77 -49l-44 -60l-19 -34l-12 -74l2 -55l9 -30l45 -44z" />
    <glyph glyph-name="Asmall" unicode="&#xf761;" horiz-adv-x="586" 
d="M287 223l-37 4l4 9l10 11l22 31l67 80l23 35l37 21l16 -5l5 -41l6 -30l-25 -101l-12 -11h-106zM364 -1h64h67l15 16l29 23l-3 14l-52 7l-6 20l22 60l5 63l-4 73l-2 5l5 148l6 16l-6 30l-12 1l1 19l-17 18l-12 -8h-91l-28 8l-31 -14l-15 -19l8 -12l38 -9l20 -13l-7 -21
l-33 -56l-11 -13l-20 -28l-139 -186l-41 -63l-40 -18l-24 -15l-24 -5l-8 3l-19 -5l-38 -19l-8 -25h19l27 5h26l6 -3h35l30 18l43 39l33 58l7 17l24 28l17 13h120l66 14l14 -10l-1 -26l6 -24l-7 -39l-12 -14l-6 -16l-5 -4l-14 -7l-21 -32z" />
    <glyph glyph-name="Bsmall" unicode="&#xf762;" horiz-adv-x="603" 
d="M319 288l-35 -7l-8 11l-14 11l33 88l35 35l47 32l49 20h47l39 -27l-27 -87l-13 -17l-47 -34l-29 -4l-19 -15zM376 39h-120l-56 28l-2 7l-3 42l30 72l10 15l6 13h55h81l30 -3l19 -19l35 -23l7 -38l-8 -24l-37 -31l-5 -7zM188 3l21 -14h148l46 7l27 39l28 14l54 35l28 81
l-2 6l8 24l-8 49l-6 5l-1 7h-18l-8 7l-25 11l6 12l62 46l13 21l19 23l16 47l-3 20l-14 30l-33 31l-60 25l-147 -18h-69l-9 -3l-56 22l-38 -26l-6 -19l6 -8l53 -41l9 -25l-29 -89l-22 -58l-18 -11l-13 -74l-10 -31l-33 -52l-6 -14l-27 -38l-16 -30l16 -21z" />
    <glyph glyph-name="Csmall" unicode="&#xf763;" horiz-adv-x="446" 
d="M154 7l51 -4l20 -3l42 3c4 3 8 6 10 8l21 11l56 41l27 18l40 37l-9 26h-9l-18 -10c-5 -8 -14 -16 -22 -25l-58 -41l-37 -10c-16 1 -30 5 -45 6l-35 24l-11 45c6 35 14 71 20 105l10 26c3 16 15 29 21 40l20 28l25 20l10 18c11 5 23 13 32 18l84 38l28 -14l-9 -28l7 -18
l16 -16h23l9 17l7 6l12 22l10 9l-15 22l-9 27l-12 6l-17 14h-18l-29 10l-35 -7h-31l-71 -28c-4 -5 -10 -10 -17 -14l-58 -38c-1 -7 -3 -17 -42 -69l-18 -11l-53 -151l-5 -98l36 -43z" />
    <glyph glyph-name="Dsmall" unicode="&#xf764;" horiz-adv-x="680" 
d="M265 50l-32 11c0 2 -6 8 -8 10c1 8 6 17 9 25l19 37l13 17l2 88l27 150l15 35l2 15c-1 2 -2 5 -5 7l1 11l-3 12c1 1 4 3 4 4v0l45 -11h121l13 -7l19 -21l63 -42c1 -3 5 -8 7 -10v-30l12 -33l-7 -38l-17 -49l-37 -55l-48 -49l-61 -39l-49 -17h-21l-60 -21h-24zM27 28
l3 -17l20 -8h57c7 3 16 9 20 12l64 3c41 -7 63 -10 80 -10c23 0 41 2 78 24c53 13 61 22 82 28l42 19l27 16l18 23l47 40l48 55c1 4 1 9 2 14c1 6 2 11 3 15l28 45l16 66l-6 61c-3 3 -13 14 -16 17l-42 42l-23 25l-28 3l-34 25l-275 -22l-46 -7l-35 -17l-5 -19h37
c11 3 23 7 32 11c17 -1 29 -3 43 -4l-34 -36l-18 -51l-4 -20l-5 -39c-1 -7 -3 -13 -4 -18c-2 -12 -3 -21 -6 -43c-1 -5 -3 -12 -4 -19l-11 -50l-9 -27l7 -53l-14 -24l-17 -12h-48l-50 -19l-20 -21v-8z" />
    <glyph glyph-name="Esmall" unicode="&#xf765;" horiz-adv-x="481" 
d="M119 15l8 -8l51 -7h40l32 11h38l22 13l56 23l28 23l67 71l4 35l-11 11h-47l-53 -14l-10 -27l20 -20l10 -8l-2 -12l-26 -27l-21 -15c-16 -4 -34 -10 -50 -14l-47 11c-22 7 -46 15 -68 22l-8 13c0 2 -8 8 -10 10v31l18 54l36 25l23 32l53 10l42 5l34 20l6 16l-14 13l-60 18
l-17 23l-10 84c10 10 24 21 39 31l22 11h22l48 7c8 2 17 5 24 7l21 -11l19 -21h10l26 18l-6 28l-29 21l-33 12l-39 3l-20 -7l-68 -11l-52 -19l-26 -16l-11 -17l-21 -24l-21 -44c4 -6 9 -15 14 -21l-13 -24l25 -46l-12 -30l-42 -31c-3 -4 -6 -10 -8 -14l-19 -10l-38 -53
l-18 -43l-5 -27l14 -43l7 -9l9 -19l35 -20h12z" />
    <glyph glyph-name="Fsmall" unicode="&#xf766;" horiz-adv-x="637" 
d="M231 54l-9 -27l46 -27l21 3l26 18c4 7 11 15 15 21l24 21l11 33c2 1 6 10 8 13l18 35c-1 2 -1 7 0 10l15 35l21 45l10 14c8 6 18 13 26 18h29l16 3h38l16 -6l31 -7l14 -8h26l24 15l9 17l-2 19l-25 17h-175l-9 6l18 49l16 33c1 5 0 10 -1 15l12 56c-13 6 -27 6 -37 15
l-34 31l-41 19h-31l-30 3c-6 0 -13 -2 -18 -3h-22l-81 -12l-16 -9l-37 -19l-43 -17l-22 -36l22 -24l32 -14l19 -14h27l21 18l-25 18l-8 13l22 28l57 24l42 -3l29 -11l28 -24l14 -6l26 -26c1 -3 2 -10 4 -13l-23 -67l3 -27l-20 -20h-99l-43 -18l-5 -18l15 -19h34l54 7h26
c6 -3 16 -9 21 -13l-29 -105c1 -8 0 -22 -1 -30c-8 -14 -20 -29 -28 -42l-20 -7l-35 10z" />
    <glyph glyph-name="Gsmall" unicode="&#xf767;" horiz-adv-x="616" 
d="M186 -98l35 -13l72 -5l82 32l32 18l22 21l32 21l29 30l32 68l12 10c5 10 8 23 12 32l15 28l20 56c0 9 0 19 1 28l11 31l-7 21l-1 22l-11 11h-23c-10 -11 -22 -24 -32 -35l-11 -11l-37 -23l-18 -15l-63 -28h-50l-57 17l-28 31c2 15 1 30 2 45l10 32l14 10l34 60l28 26l8 4
l13 13h8l74 29c16 -5 36 -12 52 -17l-13 -13l-4 -12l5 -7h28l43 7l43 28l7 19l-46 41l-6 22h-97l-58 -10l-89 -57l-24 -11l-24 -34l-28 -31l-9 -18l-33 -42l-17 -23l-22 -61v-25l14 -32c10 -6 22 -12 31 -18l18 -13l36 -13l47 -5l36 10c6 1 11 3 14 5l57 16l11 9l16 3
c7 2 14 3 19 5h43c3 -7 3 -16 4 -23l-19 -69l-49 -91l-50 -45l-65 -25h-57l-59 28l-37 35l-28 14l-15 18l-12 42h-26c-11 -3 -21 -7 -30 -11l-29 -6l-16 -22l12 -36l54 -24l37 -39l34 -14l18 -11c4 -1 8 -3 12 -3z" />
    <glyph glyph-name="Hsmall" unicode="&#xf768;" horiz-adv-x="656" 
d="M47 -3l10 -11l32 -7l19 8l56 48l38 14l24 35l7 36l12 34l7 29v3c2 8 6 16 8 23l5 4c2 7 10 18 15 25l18 13l21 8l17 9l40 3l46 7c5 3 14 5 20 8h56l22 -30l-5 -26l-9 -63c1 -2 0 -5 1 -7l-26 -66l2 -34l-24 -15h-8l-27 -17l-8 -22l15 -13l32 9l51 32l20 4l24 64l35 131
l11 64l-2 17l5 30l22 35l20 60l14 57l-8 25l-12 10l-32 -10l-43 -49l-25 -68c-1 -4 -3 -8 -4 -13l-12 -49l-27 -14h-66l-13 -4l-93 12c-4 7 -11 15 -15 21l23 54l1 27l3 17l-5 10l6 14l3 19v42h-37l-17 -12c-3 0 -6 -1 -10 -1c-2 0 -4 0 -5 1h-46l-32 -10l-35 -17l9 -46h40
l12 -25l14 -10l-4 -19l4 -8l-31 -96l-9 -52v-11l-8 -17l-14 -49l-26 -63c1 -1 2 -4 5 -6l-13 -17c-2 -3 -3 -6 -4 -9v-2l-12 -7h-20l-15 -6l-20 25h-19l-20 -15l-10 -22l12 -11l-1 -7c4 -6 10 -15 14 -22z" />
    <glyph glyph-name="Ismall" unicode="&#xf769;" horiz-adv-x="390" 
d="M58 49l12 -28h30l19 -7l50 1c4 2 13 6 18 9l46 8l23 -4l29 8l26 17l9 21l-1 11h-27l-31 -7l-20 1c-3 3 -6 7 -9 9l11 28c3 18 8 39 11 59l12 14l11 63l6 56c0 2 3 5 3 7l6 31l12 32v35l15 31l21 14h25l42 -6l24 12l9 26l-7 7h-264l-34 -21l-2 -12l9 -9h57l12 -3
c1 1 4 2 5 3h12c2 -2 4 -6 6 -8l-23 -66c0 -4 3 -10 3 -13l-7 -50l-4 -45l-12 -24l-11 -67l-10 -17l-1 -28l1 -31l-4 -22c1 -1 1 -5 1 -8l-20 -12l-47 11z" />
    <glyph glyph-name="Jsmall" unicode="&#xf76a;" horiz-adv-x="372" 
d="M-69 -105l19 -18l63 -5l53 12c4 2 13 7 16 8l35 6l41 32l28 34l20 32l9 10l21 47l6 7c1 13 4 30 6 43l37 93l-1 17l16 11l9 28l2 14l5 5l16 30l7 10l41 140l-2 32l9 13l-2 20l-16 3l-45 20l-53 -11l-23 -12v-23l3 -11h18l22 -6l-25 -78l-9 -52c0 -2 1 -5 0 -8l-2 -5
c1 -2 0 -5 0 -7c-1 -5 -3 -9 -3 -14l-4 -14c-1 -7 -4 -17 -6 -25l-25 -91l-37 -100l-1 -15l-23 -66l-54 -51l-38 -23h-60l-27 11l8 46h-18c-1 -1 -5 -3 -5 -4l-36 -18l-17 -17c0 -6 2 -13 4 -18l-5 -22z" />
    <glyph glyph-name="Ksmall" unicode="&#xf76b;" horiz-adv-x="673" 
d="M24 -1l21 5l21 -8l42 -3l18 -10l105 22l9 13l-36 45l24 52l9 3l58 58l11 2l48 -12l45 -89l40 -54l3 -16l12 -11l14 -17l78 22l26 13l34 5l13 16l1 25h-38l-14 2l-31 -6l-19 18l-11 -2l-8 1l-15 21l-7 29l-37 79l-7 11l-4 42l-19 12l6 19l23 21l46 65l63 52l29 19l20 20
h33l12 -8l26 -6l12 17v33l-14 19l-38 8l-48 -29l-21 -27l-11 -6l-9 -9l-26 -22l-52 -34l-159 -160l-11 2l-15 7l47 123l11 15l-1 22l12 35v25l-30 39l-52 9l-52 -13l-16 -16l7 -17l19 -4l3 -5l9 -7l9 -12l19 -7l-36 -89l-9 -53l-8 -19l1 -12l-21 -44l-42 -150l-12 -25h-34
l-9 -4l-7 1l-37 -4l-18 -12z" />
    <glyph glyph-name="Lsmall" unicode="&#xf76c;" horiz-adv-x="458" 
d="M30 23l13 -30l26 -4c2 2 7 5 11 8l31 7c5 2 11 7 17 9l44 7l26 -2l81 5l33 -12c6 0 11 -2 17 -3l15 -5h44l14 15l33 72l-27 11l-21 -2l-38 -30l-36 -15l-27 4c-4 -1 -10 -3 -15 -4l-9 1c-5 -2 -21 -5 -30 -7c-3 0 -9 1 -12 1l-21 12c-3 2 -10 6 -12 8l16 40l9 35l8 31
l22 50l11 34l-2 27l15 34l7 42l11 10l25 49l31 47l11 35l-15 9l-61 4c-15 -1 -29 -3 -42 -4l-57 15l-29 -15l-5 -14l2 -11l38 -4l27 4c9 -1 21 -1 31 -2l4 -7l-24 -57l2 -15l-23 -50l-38 -98l-15 -61l-8 -21l-12 -43l-20 -45l7 -19l-73 -31z" />
    <glyph glyph-name="Msmall" unicode="&#xf76d;" horiz-adv-x="915" 
d="M-3 15v22l44 24h52l6 16l135 232l2 20l37 95l4 35c-1 4 -3 11 -5 15l-62 30l-4 17l13 22l13 5c2 1 6 3 8 5l19 -2l40 7l43 -10l11 -17l12 -27l13 -12c3 -3 5 -6 8 -8l16 -38l3 -22l1 -26l13 -15l21 -55l12 -24l-4 -21l21 -25l103 110l14 19l12 13l15 21l15 17
c4 10 12 21 19 31l33 32l62 25c21 12 47 23 68 35l28 -5l10 -17l-16 -53l-8 -12l-4 -21l-10 -34l1 -10l-10 -20l-38 -139c-1 -3 1 -8 -9 -28c1 -4 6 -12 -5 -45l-1 -45l-22 -44l7 -25h48l15 5c6 1 11 5 17 6h9l39 15l9 -20l-32 -32l-74 -22l-53 -11l-31 -9l-46 6l-9 13
l14 43l-5 20l4 22l73 239l4 25l8 11l8 29l11 28l8 44l-7 9l-27 -7l-15 -7c-1 -4 -5 -9 -7 -13l-10 -6c-5 -7 -10 -15 -15 -20l-10 -10l-37 -51l-41 -39c-6 -10 -14 -24 -20 -35l-6 -5c-6 -7 -15 -17 -19 -23l-32 -42l-32 -55l-37 -18h-19l-21 11l-7 15l-6 28l-2 22l-31 88
l-12 23l-7 36l-19 13l-8 -9l-14 -39l-12 -21c-6 -14 -10 -29 -17 -43l-38 -69l-13 -14c0 -3 1 -6 2 -10l-41 -74l-22 -49l31 -10l36 -3l-5 -26l-39 -13l-41 -7l-14 13h-119z" />
    <glyph glyph-name="Nsmall" unicode="&#xf76e;" horiz-adv-x="625" 
d="M52 58l-5 -16l39 -42h9l15 11l13 16c1 2 0 6 0 9l4 25c3 13 4 31 6 45l12 23c1 5 4 13 4 18l20 54c-1 2 -1 5 -3 7l16 44l17 62h17l28 -31l10 -7l13 -25c5 -5 26 -29 31 -35l6 -10c13 -20 29 -41 42 -62l12 -39l25 -18l23 -24c4 0 7 -2 11 -3l8 -14l27 -31h32l29 17l5 29
l-1 21l12 44v32l23 46c0 2 -2 5 -2 7l3 34l9 28l2 14c13 39 11 45 49 165h38l40 9l27 18l23 26l10 23l-19 15l-28 6h-30c-5 -3 -15 -12 -21 -17l-34 -25l-33 -3l-16 -14l-7 -17c2 -2 2 -6 2 -9l-4 -20l-2 -28l-5 -18c-2 -7 1 -16 0 -24l-6 -21c0 -3 2 -7 -18 -45
c-1 -4 1 -12 0 -17l-26 -95c0 -3 -1 -10 1 -14l-10 -19l-11 -14l-13 -22h-15l-46 95l-29 30l-6 22l-8 18l-10 14l-19 5l-3 6l-30 48l-33 38l-20 11l-12 10l-47 21l-22 -14l-12 -33l7 -30l-4 -10l-9 -50l-3 -17l-10 -56l-8 -25l-10 -38l-33 -89z" />
    <glyph glyph-name="Osmall" unicode="&#xf76f;" horiz-adv-x="485" 
d="M254 54l-26 4c-5 8 -12 16 -18 24l-2 15l-15 15c-3 9 -8 25 -12 35l-9 70l4 14c1 5 3 13 3 18l33 77l10 12l17 22l42 35l39 21h21c15 4 31 10 45 14l27 -14l17 -42l2 -8c2 0 4 -5 6 -6l-3 -22c0 -8 0 -19 -1 -27l-10 -38c-1 -13 -1 -29 -1 -42l-18 -38l-6 -9
c-10 -15 -16 -39 -37 -70l-58 -47zM154 3h19l28 -6c19 6 41 12 58 18l33 3l26 24l40 15l35 34l15 11c3 2 7 7 8 9l29 35l13 35l17 22l22 135l-10 43l2 21l-39 60l-29 7l-93 -16l-24 6h-17l-91 -57l-21 -27l-33 -32l-21 -24l-46 -98l-4 -25l-8 -49l6 -31v-32l38 -41
c6 -2 10 -6 13 -8z" />
    <glyph glyph-name="Psmall" unicode="&#xf770;" horiz-adv-x="495" 
d="M-6 13l9 -13l33 -8h80l32 10l5 30l-15 14l18 42l1 6l8 17l7 29l35 84l61 187l-1 30l5 12l54 20l43 2c18 1 40 4 57 5l33 -18v-19l8 -15l-3 -12c1 -12 5 -23 7 -35l-30 -77l-10 -5l-20 -20l-33 -15c-10 1 -20 3 -29 4l-5 8l-19 2l-34 -7l-9 -20l21 -32l48 -15l19 5l26 20
l21 9l90 58l29 40l40 82l-3 56c-4 4 -10 9 -15 12l-2 7c-2 1 -6 4 -40 20l-126 6c-17 -5 -35 -10 -50 -14l-84 -6c-3 -1 -8 -1 -11 -2l-6 8l-34 -14l-10 -10c-1 -5 -2 -10 -6 -15l-17 -30c-1 -5 0 -10 1 -15l-15 -75l-23 -64c1 -6 -1 -14 -2 -21l-7 -28
c-33 -82 -36 -87 -58 -165l3 -20l-6 -9l-61 -5z" />
    <glyph glyph-name="Qsmall" unicode="&#xf771;" horiz-adv-x="628" 
d="M269 48l-34 21l-6 23l-10 13c0 1 -4 4 -5 6l-14 25l3 16c0 1 -1 3 -2 4l-2 14l3 32c1 6 3 11 2 17l8 25c0 6 -3 15 -3 21l18 51l15 20l13 33l41 58l28 19l27 14l20 7l15 -4c26 -28 40 -34 49 -34c4 0 7 2 11 3l15 -8l21 -31l29 -32l3 -24c2 -1 3 -3 4 -4l2 -10l8 -17
l-3 -38c-12 -30 -24 -61 -35 -90l-18 -25l-22 -27l-11 -32l-59 -35h-24v14h-14l-39 -14l-18 -11h-16zM436 -126l19 -21l38 -19h65l50 12l69 31l12 17l-11 23l-8 9h-36l-9 -14l8 -23l-32 -21h-21l-20 10l-24 26l-10 24c-3 4 -7 8 -8 12l-37 75l-17 19l-29 14
c2 11 20 20 29 28l17 7l20 11l18 19c6 13 9 20 19 31l7 4l15 21c4 8 6 18 10 26l27 63l15 56l3 7l3 35l-19 61l-10 19c-11 11 -27 21 -34 32l-10 14l-33 6l-17 11c-21 2 -44 5 -63 7l-45 11l-59 -11l-35 -30l-11 -12l-92 -73c-1 -6 -4 -12 -6 -17l-39 -51l-36 -100l-20 -81
l6 -21v-20l8 -7l2 -8l19 -35l21 -10l21 -21l59 -14l31 -10l84 7c3 2 17 8 21 10l8 -9l11 -37c2 -6 7 -14 10 -20l-4 -21z" />
    <glyph glyph-name="Rsmall" unicode="&#xf772;" horiz-adv-x="623" 
d="M233 259l-13 7l26 80l2 28l11 31c6 4 11 9 14 14l64 14h54l18 -7l23 -58l-4 -22c2 -3 3 -9 3 -13l-26 -31l-47 -28l-36 -15h-89zM418 0l17 -11l23 -6l144 35l8 21l-13 43l-8 14h-17l-19 -8l-12 -27l-5 -18v-3c-2 -6 -5 -12 -6 -17h-17l-16 17l-11 6l-5 8l-9 7l-10 20
l-25 31v8l-59 91l10 30l32 15c10 8 19 16 30 23l50 42l30 35l19 58c-7 2 -14 4 -18 6l-8 18c-4 2 -6 5 -11 7l-6 9l-36 19h-93l-20 -4h-98l-128 -8l-17 -3l-21 -22l17 -21l50 -7c4 0 9 2 13 3h14l6 -37l-5 -15c2 -6 0 -16 0 -23l-27 -108c0 -1 -1 -3 -1 -4
c-1 -4 -2 -9 -2 -13c0 -1 -1 -3 -1 -4l-33 -98c-2 -4 -7 -29 -10 -33l-24 -12c-2 -1 -6 -4 -8 -6l-26 -4h-32l-6 -21l18 -19l20 -10h20l70 -7c7 2 16 5 23 7h13l16 10l-1 15l-15 11l-3 17l23 66l-5 21l14 34l30 10h22l27 -15l48 -57l18 -13l30 -64c6 -3 11 -8 15 -11z" />
    <glyph glyph-name="Ssmall" unicode="&#xf773;" horiz-adv-x="446" 
d="M36 21l44 -30l44 -5l141 12l26 18l39 39l42 26l22 20l8 42v46l-37 40c-1 5 -9 9 -13 14l-6 6l-22 12l-4 4l-18 8l-6 6c-3 3 -7 6 -10 9l-11 14l-18 14l-21 27v15l-5 16l31 42c33 24 63 48 103 70l49 3l15 -28c-2 -4 -6 -9 -9 -13l-18 -10l-14 -11l-3 -39h23l18 10l47 49
l-4 11l14 25l-12 16l-7 20l-26 17h-44l-70 -11l-43 -14l-21 -14l-36 -18l-56 -58l-31 -53l-10 -57l39 -67l16 -18l38 -31l18 -7l24 -27l14 -7l1 -6c5 0 9 -2 14 -2l-2 -15l4 -12l4 -21l-13 -22l-40 -32l-86 -6l-23 5l-41 28h-34l-16 -18z" />
    <glyph glyph-name="Tsmall" unicode="&#xf774;" horiz-adv-x="628" 
d="M152 6l9 -7l21 -8h35l50 4h99l19 9l10 24l-9 20h-38l20 54l16 66l8 43l14 28l7 42l34 67l-1 13l2 42l7 14l10 7h29l28 8l13 -5h72l6 -18l10 -14l-4 -24l8 -7h13l17 11l29 48l32 31l13 24l-28 9l-70 -24h-135l-57 -7h-58l-27 4l-127 27l-27 11l-18 -11l-16 -24l-21 -14
l-17 -31l12 -29h22l25 14l-4 25l18 10l22 -6l42 -8h57l9 -4h22l14 -3l-17 -41l1 -15l-23 -63l-9 -51l-14 -32l-2 -25l-7 -21l6 -27l-15 -50l-17 -24l-3 -20l-27 -4l-51 -10l-34 -11z" />
    <glyph glyph-name="Usmall" unicode="&#xf775;" horiz-adv-x="621" 
d="M106 27l12 -20l70 -7l14 7h33l38 15l52 31l39 34l39 24c0 2 2 6 3 7l24 31l36 107c2 2 6 7 8 10l11 -15l-2 -65l3 -7l-6 -42c-1 -6 0 -14 0 -21l-15 -40l2 -33l-7 -21l1 -11l20 -8h35l22 24l7 22l2 12l6 35l-5 23l-1 31l5 29l-6 10l8 18l-1 24l3 21c-1 2 -2 5 -2 7l-3 14
l19 111l20 60l-8 29h-40l-23 -27l-11 -37l-9 -11c-1 -2 -2 -3 -2 -5l-18 -21l-37 -84l-16 -23l-22 -52l-3 -17l-16 -46l-14 -21l-64 -46l-39 -35l-61 -5l-18 18l6 61l6 36l19 31l24 67c1 7 2 13 3 20c3 15 5 32 9 46l5 16l-10 33l4 25c0 7 -2 16 -4 23v22l-18 4h-61l-26 -11
l-12 -33l24 -48l-8 -45v-35l-10 -52l-26 -99l-15 -38c1 -1 2 -5 3 -6l1 -14c0 -5 1 -10 1 -15z" />
    <glyph glyph-name="Vsmall" unicode="&#xf776;" horiz-adv-x="590" 
d="M280 21l11 -9l26 -15l29 15l11 12l13 33l-3 14l7 20l13 18l22 38l26 39l6 13l6 4l63 65l27 43l21 49l28 26l30 47l27 28l24 32l2 18l-10 8h-22l-34 -18l-19 -28l-11 -31l-27 -46l-34 -41l-90 -106l-53 -62h-11l-16 13l-1 36l-41 130l-10 17l-25 34l-3 48l-11 8l-68 -28
l-18 -4l-55 -36l-8 -21l22 -14l69 -13l12 -24l23 -46l6 -20l17 -46l16 -63l8 -76l3 -14l2 -29v-18z" />
    <glyph glyph-name="Wsmall" unicode="&#xf777;" horiz-adv-x="777" 
d="M215 4l1 -9l14 -15h22l24 12l26 34l29 65l30 42l17 35l16 15l10 28l33 83l9 7l21 -13l8 -29l23 -41l15 -38l5 -25l16 -59l6 -59l14 -33h40l16 11l14 14l34 101l29 50l70 136l13 34l39 51l8 16l18 19l-17 9l-23 -6l-11 -18l-22 -17l-24 -40l-2 -10l-37 -62l-27 -49
l-26 -71l-24 -14h-17l-1 16l-15 21l-9 23l-5 3l-23 63l-18 24l-4 11l-7 59l-28 12h-31l-30 -24l-34 -60l-45 -129l-46 -65l-17 -9l-5 5l-2 15l-3 27l-23 126l3 18l-2 17l1 28l-32 68l-35 -7l-34 -21l-42 -3l-13 -17l-6 -16l8 -10l15 7h24l7 -8l7 -26l11 -21l5 -49l14 -60
l18 -84l1 -16z" />
    <glyph glyph-name="Xsmall" unicode="&#xf778;" horiz-adv-x="590" 
d="M125 28l-15 -20l22 -8h17l25 18l11 14l19 31l35 39l18 9l23 17l38 35l14 -14l32 -106l2 -19l7 -3l19 -14h27l45 54l2 7l37 65l20 16l25 12l8 26h-22l-16 -8l-69 -60l-6 -2l-15 2l-22 81l-11 28l-1 28l29 52l80 87l11 6l26 22l6 15l-14 15h-26l-33 -21l-37 -57l-38 -42
l-23 -17l-11 10l-11 23l-9 12l-23 49l-26 34l-25 12h-23l-34 -22l-12 -3l-18 -11l-30 -11l-11 -7l-34 -14l-15 -11l23 -3l51 14h55l37 -35l14 -46l12 -16l14 -56l7 -14l-57 -67l-15 -12l-32 -39z" />
    <glyph glyph-name="Ysmall" unicode="&#xf779;" horiz-adv-x="493" 
d="M244 363l-30 25l-7 22l-19 11c1 6 1 15 1 22l2 10c3 0 8 -1 11 -1l32 -55l8 -12c3 -4 6 -7 7 -11zM206 -2l52 -2l8 2l2 15l24 51l-6 25l13 35c0 6 2 15 3 21l10 19c41 62 45 67 62 84c1 3 1 6 3 8l13 12c1 3 3 7 6 10l7 4l37 31l16 10l36 26l50 35l11 22l14 42l-3 22
l-17 15h-56l-22 -31l21 -28l-9 -5l-11 -18l-15 -11c-3 -4 -6 -11 -8 -15l-60 -58l-6 -5l-42 -28l-19 17l-3 55l-13 26l-13 29c-10 11 -16 23 -25 35l-5 14l-40 44l-27 -5l-39 -24c-2 -6 -8 -11 -14 -17l-33 -20l-34 -8c-6 -3 -14 -8 -19 -10l-4 -19l14 -19l60 16
c2 0 6 -1 9 -1l18 2l42 -21l9 -9c5 -2 10 -7 14 -9l11 -19l13 -16l11 -82l-12 -59l-5 -17l-11 -22l-14 -25c1 -4 3 -9 4 -13l-8 -25l-10 -30l-2 -34z" />
    <glyph glyph-name="Zsmall" unicode="&#xf77a;" horiz-adv-x="612" 
d="M50 20l11 -21l31 -7l21 17l20 4c15 5 33 10 48 14l19 3c3 3 14 8 20 11h65l54 -6l50 -19h43l20 7h14l89 4l16 11l9 28l-8 20l-4 16l-22 17l-28 4l-20 -4l-27 -60c-15 -1 -32 -5 -46 -6l-61 24h-32l-23 2l-34 4h-29c3 5 2 9 4 13l33 22l86 98l45 32c4 6 11 15 15 21
c3 6 3 32 134 139l30 27l28 26l12 26l-14 20l-56 8h-30l-52 -11l-107 -4l-33 4l-71 3l-30 -10l-21 -24l-37 -17l-8 -23l4 -10l28 -14l19 3c3 11 9 24 12 35l22 5l15 3c41 3 49 5 121 9h30l58 11l15 -14c-4 -3 -3 -6 -4 -8l-55 -50l-13 -25l-101 -104l-128 -138l-7 -7
c-23 -18 -49 -38 -72 -56l-24 -7l-32 -20z" />
    <glyph glyph-name="225small.alt" horiz-adv-x="437" 
d="M366 218l-18 18c0 2 2 3 2 5l13 12h-17l-7 15l7 15h7l16 -13l-3 -19c3 -3 8 -10 10 -13zM169 7l36 -4l30 -3l42 19l46 41l31 10l38 45l42 74l-5 47c-4 4 -7 9 -12 13l-6 44l-18 18l2 11c-1 1 -2 3 -2 4l-5 15l-12 27l-32 82l3 16c-2 4 -6 10 -7 15l1 10c0 6 -1 13 -2 18
l32 51l30 23l17 9l17 9c4 1 6 2 7 3l33 7l54 -11h30l21 -3l22 -24l-8 -59l6 -8l21 8l21 29l-1 13l4 37l-21 30l-56 10l-14 3l-42 8c-7 -2 -17 -5 -25 -8l-40 -7l-71 -31l-55 -45l-23 -13l-35 -29l-22 -55l4 -15l-3 -25l-1 -46c3 -3 6 -7 10 -10l25 -59l1 -8c2 0 5 -2 7 -2
l9 -37l17 -26l1 -8l11 -10l9 -35l1 -26l10 -16l-27 -54l-40 -25c-14 -4 -32 -10 -45 -14h-47l-25 21l-12 56h-16l-30 -18c1 -4 5 -13 4 -17l-2 -33l16 -22c9 -3 19 -6 29 -9z" />
    <glyph glyph-name="226small.alt" horiz-adv-x="416" 
d="M109 53l42 -41l32 -12h39l59 21h14l66 11l36 31l14 36l14 80l-23 45l6 22c-4 4 -9 9 -11 13l-10 58l-11 29l-3 15l-9 38c-3 5 -8 12 -12 17l-7 25l1 42l26 56l46 41c19 14 43 31 63 45l48 10l13 -17c-1 -4 -4 -8 -5 -12l-20 -13l-33 -33l-11 -25l14 -12l43 25
c6 4 14 10 19 14l15 10l25 26c-1 2 -1 8 -2 10l7 25l-15 18l-7 20l-18 17l-42 8l-32 -8l-116 -65l-43 -32c-6 -8 -12 -17 -21 -25l-14 -16l-46 -71l-2 -41l-3 -15l8 -44l20 -46l7 -33c5 -4 11 -12 13 -17l28 -45l2 -15l29 -74v-6c1 0 2 -2 3 -2l8 -32l-11 -21l-22 -12
l-79 -12l-38 4l-32 17h-31l-22 -14z" />
    <glyph glyph-name="227small.alt" horiz-adv-x="747" 
d="M20 -7l15 -26l20 -7h35l13 11h53l23 24l29 76l11 10l8 20c2 7 1 14 1 21l34 73l5 29l13 37l11 7h38l55 -67c6 -3 15 -10 20 -13l8 -15l13 -10l-3 -35l14 -7h13l30 17l8 46l28 49c0 1 1 5 2 6l20 18l29 45l55 59l33 25l21 21h13l13 -14l-4 -24l-1 -31l-5 -20l-3 -36
l-43 -122l-9 -50l-7 -21l-2 -23l-37 -52l2 -19l17 -8h34l48 29l25 53l-3 45c-3 5 -6 15 -5 21l5 29c1 1 -2 5 -2 6l13 39l12 42c0 2 0 5 -1 7l33 95c0 5 1 11 0 16l9 44l-12 60c-1 2 -1 3 -2 5l1 18l-25 30l-31 -3l-25 -23l-16 -33l-62 -58l-27 -44l-25 -28l-38 -50l-26 -31
l-15 -22c-2 -3 -5 -7 -7 -10h-22l-30 30l-15 22l-16 13l1 18l-28 21l-14 28l-13 58l-6 10l-4 13l-13 17h-53l-31 -18l-30 -38l-20 -109l-1 -21l-7 -24l3 -8l-9 -52l-24 -62l-17 -69l-74 -43z" />
    <glyph glyph-name="228small.alt" horiz-adv-x="643" 
d="M28 -21l5 -12l21 -7h17l45 27c28 10 48 24 79 36l46 18l39 6h43l29 -20l51 -21l31 -7l12 -7h12c3 2 18 8 22 10h51l26 7l33 21l2 26l8 27l-34 15h-10l-88 -53l-52 18l-21 16l-53 15h-46l-1 10l24 30l34 22c8 6 14 13 21 20l44 32l50 50l33 30c4 6 10 13 15 18l23 17
l57 53l61 48l28 18l42 36l-10 22l-17 7h-32l-57 -25l-211 -32l-39 4h-31l-70 17h-27l-24 -14l-8 -18l6 -11l39 -16h60c6 2 14 4 20 6h65c8 0 19 2 26 3l31 3l47 11l46 7l-7 -17l-33 -26c-3 -4 -7 -9 -11 -12l-30 -28l-19 -24l-25 -17c-3 -6 -6 -13 -11 -19l-78 -80l-35 -20
l-17 -15l-46 -35l-49 -47l-23 -25c-4 -3 -8 -5 -10 -8l-42 -10l-16 -6l-46 -25l-11 -25z" />
    <glyph glyph-name="229small.alt" horiz-adv-x="638" 
d="M55 28l-14 -33l12 -15h36l34 21l24 11l32 17l50 7l52 -10l22 -11l102 -14h53l78 21l55 14l35 28l10 22l-10 13c-12 -1 -29 -5 -41 -6h-22l-23 -7c-8 -12 -25 -32 -34 -45c-4 -1 -14 -5 -18 -7l-62 -4l-76 11l-78 22l-49 5l-6 14l30 16l56 43l27 7c6 5 12 12 17 18l41 23
c4 5 10 10 14 14l26 18c10 10 23 22 32 32l40 14l34 27l55 53l45 28l16 17l20 7l37 33l12 27l-3 21l-12 11h-15l-25 -11h-40l-15 -3l-145 -10h-83l-15 7h-61l-28 6l-32 -17l-5 -15l19 -24c13 4 27 7 40 11h117l38 6h36l78 7h24c-2 -7 -8 -13 -10 -20l-62 -49l-22 -14
l-25 -21l-44 -34l-16 -7l-14 -17c-4 -7 -12 -15 -19 -22l-23 -20l-18 -15l-34 -25l-21 -20l-60 -45l-17 -11c-1 -2 -7 -5 -9 -6z" />
    <glyph glyph-name="230small.alt" horiz-adv-x="886" 
d="M669 41l-9 -50l9 -11l21 7h34l12 14l33 21l16 14l22 7l-3 30h-37l-13 10v16l-14 19l20 69l-7 31l6 49l9 14l8 28l35 102v22l15 40l6 35l-11 15h-36l-26 -24l-24 -39l-20 -18l-30 -17l-44 -40l-22 -9l-9 -28l-30 -38l-7 -7l-26 -30l-43 -54h-28l-13 32l-11 9l-22 116
l-22 47l-6 20l-32 10h-26l-51 4l-14 -7l-25 -4l-26 -39l26 -23l21 -6l-46 -104l-5 -30l-15 -15l-3 -17l-54 -88l-61 -120l5 -21h19l17 12l11 24l13 18l11 39l22 30l45 102l33 42l31 68l19 12h17l14 -24l11 -50l20 -63l20 -41l11 -61h40l31 17l23 53l30 35l11 22l13 13l14 22
l6 3l27 32l22 27l20 11l32 46l36 20h16l1 -24l-15 -52v-10l-8 -18l-36 -146l-6 -18l-9 -52z" />
    <glyph glyph-name="231small.alt" horiz-adv-x="690" 
d="M60 -37l-9 -11l13 -13l20 12l20 43l41 90l7 10l9 28l21 46l5 21l11 21v14l17 45l26 49l29 34l19 -16v-8l31 -38l14 -29l21 -28l15 -42l12 -20l12 -35l22 -15l9 -28l16 -7l21 -28l14 -34l33 -3l22 6l26 24l14 31l-21 27l5 31l-2 13l4 29v34l22 32l31 66l27 105l16 17l7 3
l30 28l5 15l25 20l11 6l13 29h16l21 -14v-10v-4l3 -14l10 -9h27l28 16l11 22l-1 9l-18 15l-14 18l-33 15h-18l-29 -18l-10 -10l-43 -29l-44 -44l-21 -12l-20 -24l-52 -130l-28 -59l-14 -16l-21 -7l-23 20l-5 15l-68 86l-7 11l-46 59l-18 14l-9 10h-40l-23 -7l-13 -6l-35 -56
l-6 -7l-8 -15l-34 -140l-20 -45l-10 -35l-5 -14l-25 -66l-24 -40v-15l-7 -12z" />
    <glyph glyph-name="232small.alt" horiz-adv-x="481" 
d="M240 64l-11 4v25l-11 10l-7 87c-2 3 -4 4 -7 6l5 28l-5 15l11 34l3 35c5 7 6 15 10 21l29 16l29 35l46 22c4 2 6 4 10 7h35l49 28h42l15 -11l3 -25c1 -8 5 -18 8 -27l-20 -45l-8 -28l-16 -21l-44 -72l-49 -57l-33 -24c-2 -3 -5 -7 -8 -10l-14 -11l-38 -35l-11 -7h-13z
M130 28l23 -17l47 -14l42 14l14 4l31 13l27 28l20 11l26 28l81 66l39 67l30 36l55 120l-9 35l1 22c-1 2 -5 5 -7 7v8l-27 34h-60l-51 -10l-26 -21l-74 -18l-78 -48l-43 -25l-20 -21l-28 -19l-22 -30l-30 -74l-5 -42l4 -56l15 -50l2 -10l6 -10z" />
    <glyph glyph-name="233small.alt" horiz-adv-x="525" 
d="M93 7l18 -20l24 -7l30 7l12 8l24 53c-3 8 -6 19 -8 28l19 45l-1 9l4 8l10 42l9 13c-1 3 -2 8 -2 11l5 18c0 4 1 11 1 14l9 28l8 45l5 17l-3 15l3 38c-1 4 -3 10 -5 14l5 20l34 19h39l44 9h30l16 -20v-15l10 -10v-16l18 -40l-1 -31c-2 -6 -6 -13 -11 -20l-33 -38l-33 -12
l-44 33h-14l-18 -11l-9 -23l25 -35l29 -7l42 7l67 33l31 27l36 42l13 28l9 7l14 33c0 3 0 8 -2 11l5 44l-6 8l-12 20l-15 21l-59 10l-21 -3h-34l-30 -7l-95 -14c-2 0 -12 -5 -15 -7l-45 -7c-14 -4 -29 -9 -45 -13h-7l-53 -25l-14 -19l5 -11h23c2 0 6 2 9 3h16l-7 -26l3 -27
l-2 -16c2 -2 4 -7 4 -9l1 -11c-1 -3 1 -10 2 -14l-2 -14l-7 -59l-10 -21l3 -15l-22 -55l6 -20l-19 -11l4 -18z" />
    <glyph glyph-name="234small.alt" horiz-adv-x="580" 
d="M442 -131l19 -8l57 -10l72 34l24 24l8 15l-16 17l34 46l-11 3l-23 -3l-32 -21l-4 -11l5 -14l1 -10l11 -14l-34 -27h-33l-37 34l-22 11l2 12l-23 16l-9 17l4 10l-29 8l-25 35l-23 10l-8 11l6 9l47 38l15 22l10 3l29 17l36 40l29 27l27 42l44 94l9 47l-10 20l5 25l-20 46
l-55 45l-33 7h-71l-47 -11l-36 -21l-42 -17l-12 -14l-67 -63l-28 -32l-20 -42l-23 -30v-19l-3 -17v-66l-7 -26l8 -21l25 -31h15l25 10l10 18l-28 18l-17 39l-7 21l35 86l10 15l11 23l15 13l21 30l22 13l22 22l8 20l47 28l32 12l42 -33l27 -35l15 -14l24 -32v-21l3 -13
l-3 -20l4 -20l-29 -68l-14 -17l-27 -45l-41 -35l-33 -35l-47 -28h-34l-42 7h-47l-31 -15l-21 -6l-31 -18l-10 -21l8 -13l14 -9l97 -6l45 10l14 -7h13l136 -126z" />
    <glyph glyph-name="235small.alt" horiz-adv-x="655" 
d="M306 246l-7 2l3 18c1 2 -1 5 -1 7l7 15c-2 6 -5 11 -6 16l13 19l10 33l-5 35l16 29l-12 10l3 14c0 1 1 3 1 4c1 2 0 4 1 6h39l100 7l36 -38l4 -55l-23 -49l-24 -25l-47 -28l-21 -6c-2 -1 -4 -2 -5 -3zM549 -29l70 -38l29 -3h96l20 7l15 14l11 6l15 15l22 46l-3 29l-17 17
h-23c-4 -9 -12 -20 -16 -28l-16 -25l23 -18c-4 -7 -8 -13 -10 -20l-26 -20l-41 5l-28 8l-13 14c-7 6 -11 13 -18 18l-17 28l-59 77l-19 35l-13 28l-35 41l-7 21l-35 18c1 5 3 8 5 13l23 9l52 31c6 6 13 14 17 19l15 12l30 44l-4 14l12 10l4 15l-28 66l-53 14h-75l-25 -4
l-17 4l-19 -4h-21c-5 0 -11 -2 -15 -3h-18l-72 -13c-5 0 -9 -2 -14 -3h-9c-4 -2 -9 -6 -12 -8l-42 -10h-19l-25 -18l-5 -11h57l20 6l62 22l-11 -22c1 -3 4 -9 5 -12l-18 -18l-17 -36c0 -3 -1 -7 -1 -10l-2 -19v-1v-4l-1 -1l-7 -45l-9 -31l-15 -38l-1 -25c0 -1 -1 -2 -1 -3
c-1 -6 0 -12 0 -18l-33 -69l-3 -15l-8 -28c-2 -3 -6 -10 -11 -13h-38l-23 -14l-8 -11v-25l14 -3l27 7h18l70 31l11 14l16 42l11 21l-1 11l10 14l13 35l16 23l32 8c6 3 15 7 22 10h52l15 -20l11 -33c4 -3 7 -7 10 -10l18 -42l6 -6l4 -16l16 -20v-8c2 0 5 -2 5 -3l3 -9l9 -7
l34 -41z" />
    <glyph glyph-name="236small.alt" horiz-adv-x="420" 
d="M99 53l47 -37l44 -16h63l39 24l66 54l23 28c0 6 0 13 2 20l10 37c-5 3 -12 9 -17 13l-24 35l-36 38l-5 15l-23 27l-6 31l-3 7c-3 9 -5 20 -8 29l6 13l-6 17l1 28l27 48c0 1 1 2 2 4l12 11h52l10 -4l48 -3l15 -20l-22 -51l19 -13l38 4l47 27l12 26l-15 19l-16 9l-27 21
l-34 6l-10 7h-66l-82 -10l-75 -49l-42 -46l-20 -59l11 -28v-32c5 -4 9 -9 13 -13l3 -22l39 -39l24 -6l22 -24c4 -2 8 -6 9 -8l18 -21l26 -28c1 -5 3 -11 5 -16l-37 -35l-30 -10h-35l-37 18l-6 9l-14 11l-1 8l-6 6l-37 -14l-12 -28z" />
    <glyph glyph-name="Asmall.alt" horiz-adv-x="623" 
d="M412 207l-12 7l-17 -3l-14 3h-26l-11 4h-10l-14 4l-31 4l-8 11l7 11l10 18l39 32l7 8l11 12l39 45l21 15l20 29l11 9l14 -12l-5 -23l3 -22l-4 -10l3 -16l-9 -37l7 -8l-4 -62l-21 -19h-6zM421 -10l58 11h80l20 12l5 16l-9 4l-6 7l-6 4l-9 12l-21 -5h-10l-6 27l6 157l3 19
l-3 15l5 37l-2 35l2 93l8 27l-4 22l12 28l-5 11l-12 19l-19 7l-30 -23l-41 20h-45l-36 -12l-9 -30l44 -23l26 -4l-7 -26l-14 -14l-32 -42l-52 -52l-91 -113l-21 -15l-19 -30l-36 -38l-16 -22l-13 -15l-10 -11l-37 -45l-12 -19h-18l-10 4l-27 -4l-10 -9l-8 -2l-10 -8l-7 -16
l6 -7h19l34 -5h38l26 12l4 11l-11 14l5 9l10 18l49 37l3 18l8 10l11 15l40 30h82l20 -3l25 3h29l18 7l42 -5l9 -21l-1 -40l2 -8v-11l1 -15l2 -30l-23 -29z" />
    <glyph glyph-name="Bsmall.alt" horiz-adv-x="501" 
d="M253 308l-5 9l6 37l-1 27l10 30l6 4l2 15l23 11l22 15l26 8l12 -1l46 10l6 -7l18 -36l-5 -10l-3 -23l-37 -37l-51 -37l-23 -5l-21 -7zM232 48l-17 3l-8 35l6 37l-17 30l3 26v25l46 34l35 16l19 14h30l42 -15l11 -25l-3 -38l-6 -26l1 -19l-23 -37l-14 -10l-34 -19l-26 -16
zM42 6l18 -8l23 -19h24l18 12l8 26l17 11l16 -8l5 -11h70l104 47l15 13l33 27l24 30l37 76l10 56l-12 41l-24 9l-4 8h-37v12l13 11l19 19l29 22l31 43l-25 69l-42 18l-40 -7l-52 6l-35 -14l-46 -12l-35 -14h-23l-14 7l-26 4l-33 -4l-12 -15l2 -16l10 -4l3 -4h17l12 -3l42 -8
l-2 -25l2 -8l-9 -34l-4 -23l-6 -26l1 -8l-11 -33l-18 -79l-14 -53l1 -29l-16 -45l-27 7l-37 -2l-16 -17l-10 -31l12 -3z" />
    <glyph glyph-name="Csmall.alt" horiz-adv-x="429" 
d="M162 12l26 -8l10 -4h38c6 2 16 5 26 7h29c8 4 21 11 30 16l9 3c1 3 5 9 6 12l14 3c1 4 5 9 7 12l27 23l7 24l-8 14h-5c-14 -14 -26 -31 -39 -46c-8 0 -15 -2 -23 -3l-18 3c-4 -2 -14 -6 -18 -8c-11 4 -24 9 -35 13c-18 20 -41 45 -57 65l-11 21c-5 9 -10 17 -15 24
c-1 14 -4 30 -5 44c1 9 4 21 8 29l12 19c9 18 20 36 30 53c9 9 18 21 27 32l17 20c9 10 19 20 27 30c11 9 26 20 39 29h37c2 1 6 2 9 4h37c4 -8 8 -18 13 -25v-15l11 -14l45 21l5 26l1 15l-9 19l-20 12h-50l-48 -7l-62 -12c-9 -7 -23 -16 -34 -23l-27 -3
c-4 -4 -8 -11 -12 -15l-28 -25l-17 -27l-25 -19c-4 -7 -9 -17 -13 -23l-28 -36l-42 -78l-2 -71c1 -7 6 -19 9 -26l4 -11c4 -7 8 -13 12 -18l4 -12c2 -3 6 -9 9 -12l8 -11l22 -20c6 4 13 7 18 11l-2 -14z" />
    <glyph glyph-name="Dsmall.alt" horiz-adv-x="558" 
d="M53 -35l-26 -19l3 -24l30 9l9 27zM299 38l-27 3h-19l-51 12h-18c-2 2 -6 5 -8 7l1 14c0 5 0 10 -1 15c2 5 3 10 5 14l14 18c2 13 5 30 8 43l38 123l4 56c3 12 8 25 11 37l26 18l18 3c6 1 13 3 18 5l12 -8c2 -1 7 -2 11 -3l55 -15c2 -1 5 -2 7 -2l4 -10c3 -2 5 -5 10 -10
c4 -14 11 -28 15 -41l11 -30c-4 -36 -11 -83 -14 -119l-11 -30l-5 -34c-10 -18 -23 -41 -33 -60c-6 -1 -15 -5 -21 -6h-60zM14 -13h87l12 -11h23c7 5 17 10 24 15l14 3c12 6 22 14 32 20l18 -8c5 1 10 2 14 3h11l13 -18c5 2 13 5 18 7l4 -4h32c7 3 19 9 26 12h25l14 3l17 5
l16 11c8 16 15 33 24 49l14 10c4 12 10 25 14 36l8 13l53 161l8 42c-2 3 -6 9 -8 13l3 15l-20 32c-6 5 -13 11 -18 15l1 13l-32 20c-7 1 -16 3 -23 4l-32 15h-23l-17 7c-9 1 -21 4 -32 5l-56 11h-63c-15 -3 -32 -7 -49 -11h-23l-3 11l-25 -12c-4 -4 -9 -10 -13 -15l-26 -23
l8 -12c7 1 17 2 25 4h11c11 1 23 3 35 4h21l11 -15l-19 -54c-3 -13 -5 -30 -8 -43l-9 -33l-2 -19l-54 -190c1 -5 4 -14 5 -19c-1 -7 -4 -14 -7 -21l-50 -4l-24 -5l-12 -15l-5 -16z" />
    <glyph glyph-name="Esmall.alt" horiz-adv-x="435" 
d="M173 7l7 -3l70 -4l26 7l25 5l18 11l9 3l24 19l9 28l-8 30l-35 -19l-37 -54l-36 -2l-18 26l-21 7l-23 42l-13 24l-6 2l-8 12l-6 3l9 32l8 27l32 33l38 23l20 12l38 3l37 2l10 21l-12 19l-30 3l-39 37l-4 47l-8 11l13 34l18 3l27 18l34 8l63 8l12 -4l-21 -43l-2 -23h16
l52 62l13 35l-18 8h-32l-34 4l-44 -8l-41 -19l-82 -31l-39 -37l-14 -43l-1 -44l20 -45l-16 -18l-21 -11l-56 -55l-26 -40l-16 -45l7 -45l25 -22l11 -15l21 -12l37 -19z" />
    <glyph glyph-name="Fsmall.alt" horiz-adv-x="501" 
d="M296 467v2l5 -2h-5zM37 -6h37l11 -5l30 12l99 3l26 23l6 16l-16 -3h-56l8 11l25 58l11 46l6 26l12 32l39 35h25l62 8l20 15l4 12l-20 5l-5 3h-30l-51 7l-22 15l24 115l13 14l40 14l8 5l2 -10l11 4h60l44 6l15 1l19 -11l-3 -32l2 -26l26 -3l14 26l12 33l15 27l7 20l-6 8
l-45 7l-35 7l-25 -6l-141 3l-59 5l-73 -4l-23 -4l-21 -15l-5 -16l14 -4l13 -8l56 -3l-18 -71l-11 -32l-6 -35l-33 -95l9 -20l-29 -81l-3 -43l-2 -20l-28 -26l-22 -3l-36 -16l-15 -20l17 -3z" />
    <glyph glyph-name="Gsmall.alt" horiz-adv-x="493" 
d="M346 248v1v-1zM404 239l1 4h5c0 -1 -1 -3 -1 -4h-5zM65 80l40 -64l29 -16h15c6 4 21 11 31 15h16c9 1 23 3 32 4h41l17 11l12 4l32 15l38 34c14 27 29 58 43 85l49 38l15 40c-5 0 -12 1 -17 2c-12 3 -26 7 -39 11l-21 8h-50l-14 2h-19l-48 -8l3 -20c10 -9 25 -18 35 -28
l5 -7l9 -7c6 2 14 4 21 5c6 -2 13 -6 18 -8c3 -2 5 -7 8 -10c-5 -24 -11 -48 -16 -72l-7 -6c-5 -6 -10 -14 -15 -20c-7 -7 -18 -15 -26 -23c-5 -2 -14 -5 -19 -7h-18c-26 1 -52 3 -77 5l-1 20c-10 15 -19 31 -29 46c-1 8 -5 18 -5 26c-1 17 -1 36 -2 53l9 23
c0 8 -2 18 -1 26l18 33c0 6 -1 13 -2 19l23 37c2 6 4 11 6 17l25 31c3 5 7 13 10 19l13 5c2 1 4 1 6 3l7 3c27 13 55 29 82 42c14 2 30 5 43 8h15c4 -9 11 -18 16 -27l-12 -30c3 -5 6 -11 10 -16c1 -4 2 -10 4 -15l-15 -44h9l28 41c8 24 18 50 27 75l23 23l12 31h-21
c-8 -3 -19 -8 -27 -11h-15l-19 7h-33c-2 -1 -7 -3 -10 -4h-27c-22 -6 -50 -15 -72 -22l-24 -7l-49 -38c-4 -4 -8 -11 -12 -15l-19 -15l-67 -69c-2 -5 -6 -12 -8 -18l-9 -14c-3 -6 -7 -13 -10 -18l-24 -27c1 -5 1 -12 2 -16l-12 -64z" />
    <glyph glyph-name="Hsmall.alt" horiz-adv-x="595" 
d="M27 19l22 -19h17l22 15c8 11 19 28 26 38l25 8l22 12c-7 -3 -17 -5 -24 -8h-22c3 8 6 14 8 22l13 15c5 15 12 32 17 48l14 23c8 16 14 34 21 50c14 10 29 22 43 33c8 2 20 5 29 7l35 -7c11 3 26 8 38 12h42c2 -7 6 -19 9 -26c-1 -8 -3 -23 -4 -31l-28 -79l2 -30
c2 -2 5 -6 7 -9c0 -10 0 -20 -2 -31l-13 -43h15l18 7c6 10 16 21 22 30h18l5 -7c2 -2 5 -6 8 -8l10 -15c5 6 11 13 16 19c15 10 29 21 43 31l19 7l9 26l-13 9c-9 -2 -19 -3 -26 -4h-41c-3 2 -7 5 -8 7c2 5 5 11 7 16l15 21c1 8 2 19 2 27l18 26c0 2 -1 5 -2 7l14 38
c0 7 -1 16 0 23l23 64l-4 20l4 38c1 3 0 7 1 10l7 22v10c3 8 5 16 9 23l25 19l7 18l-7 17c-14 1 -27 3 -40 4l-5 10h-14l-40 -30l-24 -38l-21 -75c1 -2 2 -6 3 -8c-6 -15 -11 -30 -16 -45c-12 -5 -29 -12 -41 -17h-37c-12 2 -23 5 -35 7l-16 8c-10 1 -20 2 -28 2
c-4 6 -7 11 -10 16c-1 7 -2 15 -3 22c5 15 10 30 17 45l34 72c2 6 6 12 8 18l6 8l5 14v20l-28 3c-15 -10 -29 -21 -45 -32l-18 15h-27l-36 -12l-8 -24l7 -10h12c5 1 13 5 19 7c4 -4 8 -9 14 -12c0 -7 -2 -18 -2 -25c-12 -35 -25 -74 -38 -109l-16 -34l-10 -26
c-1 -13 -3 -33 -5 -45c-15 -44 -30 -88 -46 -131l-7 -10c-3 -6 -6 -14 -9 -20l-39 -49l-7 -8c5 -4 10 -8 13 -12z" />
    <glyph glyph-name="Ismall.alt" horiz-adv-x="294" 
d="M166 463l2 3zM66 88l-29 -81l24 -7h9c2 5 11 10 18 15l32 19l52 37c1 10 2 25 3 36l15 36l1 15c3 11 6 26 9 37l13 23c3 21 7 48 11 69l37 99c-1 3 -1 8 0 12l26 26l15 39c-3 6 -6 13 -8 19l1 14l-5 16h-32l-36 -18l-32 -5l-43 -20c0 -5 3 -12 3 -18v-8l6 -19
c4 -1 10 -5 14 -7c0 -6 1 -13 3 -19l-18 -49c-10 -31 -20 -65 -30 -97l-20 -52c-3 -16 -8 -37 -11 -53z" />
    <glyph glyph-name="Jsmall.alt" horiz-adv-x="459" 
d="M-211 -125l-9 -23l13 -20h27c11 5 29 14 40 20l17 -8h52l15 3l22 5c9 5 25 13 36 19h7l56 18l36 26l7 7c2 4 7 8 11 12l13 15l41 37c8 13 18 28 26 41l17 22l29 84c1 6 3 13 4 19c9 16 17 34 24 49l15 13c4 8 6 17 10 25l11 23c-4 4 -7 11 -11 15l5 11c-5 23 -1 17 26 51
l15 19c48 105 41 126 37 136l2 31l-12 19h-23c-10 -5 -27 -11 -37 -16h-81l-37 -7l-16 -13l12 -22l21 -7h54c2 -5 5 -12 7 -16l-29 -82l-2 -15l-12 -45l2 -7l-19 -60c-6 -30 -13 -61 -20 -91l-11 -30c-3 -17 -7 -34 -10 -51c-6 -15 -11 -29 -17 -44c-9 -14 -21 -29 -30 -42
l-10 -9l-17 -18c-8 -8 -19 -18 -27 -27l-25 -10l-18 -12c-15 -7 -36 -16 -52 -23l-35 -3c-6 -2 -12 -6 -18 -8h-57l-24 14h-16z" />
    <glyph glyph-name="Ksmall.alt" horiz-adv-x="692" 
d="M-17 10l37 -11l5 -12l36 16l8 16l-4 7l-19 4l-19 8h-21l-15 -12zM99 19l6 -32l12 -3l5 8l9 4l16 10l31 38l42 77l-9 3l3 19l17 52l14 18l21 3l51 3v-5l15 -13l22 -18l27 -60l15 -7l20 -67l5 -18l23 -15l10 -17l100 30l37 25l12 7l28 32l7 5l6 18h-41l-38 -9l-9 -3l-28 8
l-25 20l-50 77l-18 19l-21 22l-21 12l-8 22l-31 5l11 19l18 11l57 42l32 30l15 3l30 22l25 7l34 23l39 19l7 12l-41 19l-30 -4l-31 -26l5 -19l-21 -9l-21 -14l-20 -8l-62 -37l-47 -36l-12 -9l-77 -67l-14 -2l-4 9l33 102l3 10l10 30v31l-20 34h-18l-9 -4l-19 30h-35l-38 -31
l10 -15l57 -7l5 -12l-38 -86l-1 -15l-11 -25l1 -19l-24 -53v-21l-24 -29l-5 -19l-1 -10l-7 -35l-33 -66v-31z" />
    <glyph glyph-name="Lsmall.alt" horiz-adv-x="606" 
d="M184 35l-5 7l9 -3zM497 88l6 -27h27l10 16l4 43l10 30l-4 17h-20l-26 -16l-18 -31l1 -21zM280 16h37l26 3l99 -15l20 11l20 9l12 10v20l-40 -8l-8 12h-13l-19 10l-8 5h-86l-54 5h-7l-4 40l2 14l2 11l13 30l1 34l18 42l3 19l17 44l4 37l10 47l2 17l14 43l19 30l9 26l-7 12
h-103l-13 -4h-19l-70 -16l-5 -19l10 -23h14l12 -7h7l10 -4h20l16 -23l-4 -32l-4 -13l-15 -66l-5 -16l1 -11l-22 -95l-19 -48l2 -29l-30 -24l-38 -6l-30 -23l-8 -11l-1 -28l31 -3l23 -16l80 12l29 -3l28 3z" />
    <glyph glyph-name="Msmall.alt" horiz-adv-x="818" 
d="M641 191l2 4zM649 423l2 5zM381 246l-4 3l5 2h4l-1 -5h-4zM48 62l-10 -58l7 -4l13 4l23 15l-4 27l40 61l7 17l18 22l18 38l22 27l11 34l15 23l29 44l14 48l20 15l7 -6l10 -9l-1 -11l9 -12l13 -69l5 -5l2 -33l-8 -24l14 -7l14 -21l18 -25l24 10h12l14 5l32 31l6 19l21 26
l37 52l11 14l20 27l38 38l31 35h6l11 -14l3 -33l-3 -14l1 -107l-6 -42l-10 -107l-31 -25l-28 -14l-3 -14l24 -29h70l12 8l11 22l13 9h27l22 7l16 3l13 3h7l17 6l20 19l-12 15h-94l-13 25l7 82l-1 7l3 31l14 53v19l5 29v42l4 10l6 50v35l2 60l-23 33h-23l-17 -14l-11 -19
l-30 -65l-116 -145l-26 -15l-34 -40l-17 -9l-7 -21l-18 22l1 4l-9 49l-3 30l-4 12l-23 75l-17 48l-2 51l-8 9l-27 5l-27 -7l-4 -3l-30 -7l-6 -54l13 -4l3 -13l8 -10l-13 -14l-32 -68l-11 -22l-64 -136l-10 -14l-33 -67l-32 -46z" />
    <glyph glyph-name="Nsmall.alt" horiz-adv-x="729" 
d="M33 31l-15 -18l-2 -14c9 0 22 1 31 1l19 -5l32 5c0 1 5 3 8 4c5 1 13 3 18 4l47 3l22 11c2 1 4 4 4 5l5 4l-1 10c-7 0 -17 -2 -25 -3c-5 0 -11 1 -16 1c9 20 20 43 27 63l9 17l6 19c2 17 6 43 9 60l9 12c4 18 7 36 10 53c7 7 14 16 20 25l23 -24c2 -1 4 -4 6 -6l10 -17
c2 -3 5 -5 7 -7l4 -8c2 -1 5 -2 5 -3l16 -27l7 -8c4 -4 10 -9 15 -12c1 -4 4 -9 5 -12l23 -55l19 -36l33 -18c3 -1 7 -2 9 -4c3 -3 7 -9 9 -13v-16l8 7l7 -18l8 -15l26 11l20 16l5 19c-2 4 -5 9 -7 14c4 16 9 35 13 51l15 20c13 38 25 78 37 116l24 73l4 20
c7 22 13 44 21 67c4 5 9 10 14 15c6 6 11 13 17 20l42 21l18 15h14l16 9l1 8h-24c-3 0 -8 -2 -11 -3h-15c-5 -1 -9 -3 -12 -4l-28 -6c-1 0 -4 -2 -6 -3l-11 9c-8 -2 -14 -4 -21 -6h-58l-31 -15l-5 -17c1 -3 3 -5 4 -8l-1 -13c5 2 11 5 17 7h27c1 -1 6 -3 8 -4l-13 -37v-8
l-7 -52l-11 -31c1 -2 1 -5 1 -7c-9 -30 -20 -62 -29 -92l-10 -14l-22 -26l-3 -14c-6 -5 -14 -11 -21 -16c-2 2 -4 5 -6 6l-3 9c-4 2 -10 4 -14 6v14c-7 7 -14 14 -20 21c-12 19 -23 38 -34 57l-26 45c-5 7 -13 15 -19 22c-9 15 -20 29 -29 44l-24 43l-28 41
c-7 -3 -17 -9 -22 -12h-50l-31 -22l-6 -19l3 -8h58l1 -19c2 -5 6 -12 9 -16c-12 -32 -24 -67 -35 -99l-28 -64c-12 -42 -29 -92 -41 -134c-3 -1 -8 -4 -10 -5l-30 3z" />
    <glyph glyph-name="Osmall.alt" horiz-adv-x="623" 
d="M107 162l1 4zM167 133l-2 4c1 1 3 2 5 0c-1 -1 -3 -3 -3 -4zM211 19l2 -15l15 -4c8 2 20 5 32 7h27c15 5 32 11 48 16l20 3c4 3 8 5 11 8l27 12c5 4 14 11 18 15l17 3l24 16l14 13l26 16c11 17 23 36 34 54c13 5 24 12 37 18l26 7l18 54l2 18l13 34l2 37
c-3 7 -8 17 -11 24l1 9l-16 32c-20 4 -55 11 -71 15c-17 5 -37 10 -55 14l-14 4l-43 15h-7l-17 12h-42l-38 -17l-21 -18l11 -11c12 -3 27 -6 39 -9l109 -28c27 3 52 -7 46 -31l6 -6l6 5c1 -2 2 -4 4 -6l-2 -15l8 -20l17 -19c3 -4 6 -9 10 -13c-8 -22 -17 -46 -25 -68l-9 -15
c-4 -6 -8 -16 -11 -22c-2 -3 -8 -10 -9 -13c-3 -3 -7 -10 -8 -12c-9 -10 -18 -21 -25 -30l-34 -20c-4 -3 -9 -7 -14 -10c-12 -7 -25 -14 -37 -20l-28 -8c-28 -12 -52 31 -99 48c-3 1 -5 5 -9 6l-21 34c-29 13 -24 80 -32 82l-1 19c-1 3 -2 8 -3 11l5 46c0 5 -1 10 0 14
c14 25 28 51 43 76l14 11c2 2 5 7 6 9l18 14c5 7 10 16 16 23c4 3 9 8 15 12h5l4 -4h8l11 11l10 24l-10 15h-45l-58 -33c-7 -9 -15 -20 -21 -28l-15 -14c-6 -9 -15 -19 -19 -27l-27 -28c-7 -11 -15 -23 -21 -33c-22 -24 -21 -29 -40 -58l-17 -47c1 -2 7 -9 9 -10l-6 -16
l-3 -31l6 -45c11 -17 15 -23 18 -29l5 -12l10 -9c2 -2 7 -3 9 -5c6 -3 11 -8 17 -12l15 -11c19 -5 40 -10 58 -15c3 -6 8 -13 12 -19z" />
    <glyph glyph-name="Psmall.alt" horiz-adv-x="527" 
d="M30 8h-4l-2 -5zM92 65h-6c1 2 2 4 2 6h6c0 -2 -2 -4 -2 -6zM255 283l-21 5c-2 3 -5 6 -7 9c0 11 0 24 1 34c3 13 9 28 13 42c11 10 25 23 35 33l18 11c6 2 14 7 21 11l9 4c6 2 14 7 21 11h38c5 1 12 3 17 4h41l10 -4h15l18 -11c6 -1 14 -3 21 -4c5 -5 11 -13 16 -18
c-10 -26 -20 -53 -28 -79l-21 -7h-23c-4 -1 -9 -5 -12 -6h-38c-5 -2 -12 -7 -17 -9h-27c-16 -3 -33 -8 -49 -11c-4 -1 -8 -3 -13 -4l-24 -3c-4 -2 -9 -6 -14 -8zM37 23l-1 -19l30 -4c2 3 15 9 22 12l30 7c9 6 17 13 27 19h16l-2 19l18 56c-1 2 -1 5 -1 7c0 3 0 9 1 12l23 34
c-1 8 -2 15 0 23c3 14 10 27 14 40c9 7 21 15 31 22l36 5c6 3 18 8 26 12h23c4 1 12 5 16 6h8l75 12c3 1 7 3 11 3l38 7l43 27c6 10 12 22 17 33l15 18l14 24c-1 3 -1 5 -1 8l12 11l12 34l-4 12c-3 2 -6 5 -9 7l-10 12c-12 1 -28 3 -40 4l-24 8h-47l-10 3l-54 -8l-60 -11
c-9 -4 -23 -10 -32 -15l-34 -11c-12 -5 -27 -10 -38 -15l-14 7l-22 -19c-3 -4 -8 -9 -12 -14c-2 -2 -8 -6 -10 -8l-29 19l-42 -15l-6 -27l9 -11c8 1 19 2 26 4c8 -3 16 -8 21 -10c2 -4 5 -17 8 -20l-7 -15l-5 -38l-25 -72c0 -7 -2 -16 -1 -23l-14 -41c-1 -5 -2 -12 -3 -17
c-10 -26 -19 -53 -29 -79l-30 -4l-26 -19l-8 -11l8 -13c6 4 14 8 20 12z" />
    <glyph glyph-name="Qsmall.alt" horiz-adv-x="742" 
d="M257 7l8 -3c24 -2 27 1 44 0l44 11l9 8l30 11c10 10 22 22 32 33c7 6 18 14 24 20c54 -9 65 -13 72 -16l7 -4h30l31 -11c4 0 8 -2 43 -3c12 5 17 8 40 3c4 3 10 8 14 11l16 9c2 4 2 10 4 15l22 29l7 31h-14c-6 -8 -15 -17 -21 -25l-36 -26h-19l-13 8c-10 3 -20 8 -56 20
c-2 0 -5 2 -5 3l-13 12c-17 10 -35 20 -49 30c6 11 28 43 34 53l17 15c2 5 5 13 6 19l34 86c0 8 -1 16 -1 23l13 64l1 10l-38 43c-5 1 -7 2 -10 3l-19 12l-46 7l-75 -7l-36 -30l-12 -24l10 -15h19c13 8 27 17 40 26c22 1 48 3 71 4l37 -25c1 -1 7 -4 9 -5c4 -5 7 -10 4 -31
l-4 -28l-6 -19c-2 -8 -1 -18 -6 -48c1 -3 0 -8 0 -12c-4 -14 -10 -28 -14 -41c-5 -6 -10 -14 -15 -19c-11 -10 -40 -43 -52 -53l-85 27l-30 -22l-10 -23l4 -17h10v-7l9 -8c28 -6 28 -9 42 -24c-10 -13 -20 -29 -30 -42l-21 -15c-16 -1 -36 -2 -52 -4l-16 11
c-4 1 -10 4 -11 6c-11 8 -22 17 -34 25l-26 45l-8 15c-7 10 -12 23 -19 34l8 29l-10 53c5 13 11 29 16 42l10 2c4 9 11 20 17 28l13 20c8 13 15 27 52 80c6 7 11 15 15 22c7 6 19 13 27 19c6 5 15 11 22 16l21 -8l14 10l9 13l-11 16h-30l-27 -4l-69 -32
c-10 -8 -20 -17 -68 -62c-4 -5 -10 -14 -13 -19l-20 -19l-34 -50l-27 -55l-7 -7l-7 -24c-2 -15 0 -30 -2 -45l-7 -31c3 -1 8 -3 -1 -12c9 -29 13 -31 47 -71l3 -17l18 -20c27 -19 34 -21 36 -22l45 -27h25z" />
    <glyph glyph-name="Rsmall.alt" horiz-adv-x="590" 
d="M266 252l-32 4c-1 6 -4 15 -5 21l17 41c0 2 -1 6 -2 8l8 30c1 2 -1 7 0 10l17 38l32 12c7 4 14 7 20 11c9 3 21 7 31 11h45l19 -7h15v-18l-1 -15c-2 -8 -1 -19 -2 -27c-8 -17 -16 -26 -23 -43l-10 -9c-22 -17 -67 -34 -91 -56c-12 -4 -26 -8 -38 -11zM50 7l-4 -12l13 -19
l42 20c4 3 8 7 13 10l13 4l8 4h23l22 7c8 11 18 25 25 35l26 7l23 17h-18c-13 -2 -25 -6 -38 -9l2 16c2 16 3 34 4 51c5 17 11 35 15 51c11 7 24 14 35 20c12 7 29 16 42 22l24 -8c4 -1 8 -3 13 -4l-2 -23c9 -3 19 -8 35 -44c16 -13 14 -25 20 -45c8 -26 29 -28 41 -61h18
l13 -17l9 4c4 4 7 9 11 14l18 16c10 14 23 17 31 32c10 11 26 31 38 40l26 24l8 14l-2 10l-19 4c-5 -6 -11 -11 -15 -17c-30 -23 -32 -27 -61 -50l-25 -2l-10 12v24c-8 13 -18 27 -24 40l-2 17c-4 7 -8 15 -11 22c-3 24 -9 30 -15 34c-2 7 -4 17 -5 24l23 24c1 3 3 8 4 11
l14 14l30 83l3 15l7 11l-2 17c-2 1 -5 2 -6 3l-17 15h-129l-7 8c-12 1 -26 3 -38 4l-17 4l-55 7l-30 -7l-30 -23l-5 -16l6 -5c2 2 7 6 10 8l-2 -15h30l17 -26l-32 -105c-6 -16 -11 -35 -16 -51l-39 -121c-3 -11 -5 -23 -8 -34l-7 -23c-1 -19 -2 -40 -2 -59h-19z" />
    <glyph glyph-name="Ssmall.alt" horiz-adv-x="365" 
d="M216 467l4 7c1 -1 0 -5 1 -7h-5zM75 12l14 -5l12 -7c2 2 10 5 17 7h16c2 4 6 7 9 11l2 -6h15c7 4 18 10 25 14h40l39 30c2 5 5 11 7 15l17 15c8 13 16 27 24 39l8 12l10 29l1 41l-14 42c-4 3 -11 5 -15 8l-8 31c-1 0 -2 2 -3 3l-7 18c-7 12 -12 22 -19 34l-2 8
c-3 6 -5 13 -7 18l-8 22c-1 4 -5 12 -6 15l-2 17c-4 5 -9 11 -12 17c5 9 10 18 14 26c4 3 11 8 16 11h25l28 -11c9 -3 19 -6 27 -8l27 -20l17 13l8 35c-3 5 -6 16 -7 22l-2 9l-5 7h-29c-6 -3 -15 -8 -19 -12l-15 4l-14 4l-10 4l-5 -4l-23 -4c-13 -6 -32 -16 -46 -22l-37 -13
l-60 -56l-11 -34l1 -17c5 -8 11 -16 14 -25l10 -19l14 -11l6 -8c4 -3 9 -7 14 -10l7 -12c8 -6 17 -15 25 -21l35 -42c8 -9 16 -18 24 -26c3 -9 8 -22 12 -31c1 -10 2 -20 2 -29c-4 -11 -9 -23 -13 -33l-6 -8c-2 -3 -4 -8 -7 -11c-13 -10 -28 -20 -42 -30
c-7 -5 -19 -11 -27 -15h-19c-2 -1 -6 -3 -9 -4l-13 4c-5 -1 -11 -3 -17 -4c-4 4 -11 9 -16 11c-6 6 -15 16 -21 23l3 65l-23 31l-21 -2l-8 -24c2 -9 5 -21 8 -30l1 -19l7 -64c5 -2 12 -5 16 -7z" />
    <glyph glyph-name="Tsmall.alt" horiz-adv-x="531" 
d="M180 68l3 3c0 1 3 3 3 4c-1 -2 -1 -5 -2 -7h-4zM315 114l-28 -26l-4 -17h23l24 28l7 22zM145 34l-3 -34l27 7c3 5 6 11 9 16c2 1 9 5 12 7l29 -4l5 16l5 34c8 11 17 22 25 33c5 2 11 5 14 7l28 12c3 7 7 18 12 26l19 31l8 22c-1 4 -3 12 -3 16l6 22v11l16 100
c1 10 -1 20 0 30l1 15c2 8 3 23 4 32c4 5 11 16 16 22l32 14c5 2 11 6 16 8c15 3 31 7 46 11l15 -7h14c-1 -10 -2 -20 -2 -30l-10 -27c0 -5 0 -12 1 -18l-1 -8c0 -7 3 -17 4 -25l-1 -31h23l51 151c0 3 -3 11 -4 15c2 3 6 12 6 11l10 20l-8 7c-7 1 -18 2 -25 3l-6 4l-21 -4
c-29 -5 -63 -13 -93 -19h-55c-13 -2 -28 -4 -41 -6h-34l-73 -8c-17 -6 -38 -13 -56 -19h-10c-5 -3 -14 -8 -19 -11h-27l-36 -27c2 -6 4 -14 6 -20l-2 -21c1 -7 3 -15 4 -22l-4 -21h20l8 26v10c2 5 5 11 8 17l15 4c3 4 9 11 12 15c7 5 15 10 21 15l58 4c4 0 9 2 12 3h37
c2 -5 6 -10 10 -14l-12 -42c0 -6 1 -15 -1 -22l-5 -37c-1 -25 -3 -53 -6 -79l-6 -23l-3 -15c-6 -17 -13 -35 -19 -52l-26 -45c-4 -10 -9 -21 -11 -31c-2 -5 -6 -10 -9 -15l-43 -26l-5 -15c4 -5 11 -14 15 -19z" />
    <glyph glyph-name="Usmall.alt" horiz-adv-x="644" 
d="M164 -7l10 -11l13 -12h28l19 18c3 5 9 11 10 16l24 28c3 4 8 11 11 14l18 14c4 8 13 19 17 26l5 4c5 6 10 11 15 16c20 23 34 36 56 58c8 10 17 19 25 29l19 18c3 5 11 17 13 22c4 -1 11 -2 19 -4c2 -11 4 -25 9 -36l5 -110c1 -1 2 -8 2 -10v-16c-1 -6 2 -13 4 -19l1 -29
h46l23 25l3 16l6 18c1 2 0 6 0 8l15 38c-4 6 -11 74 -14 80l1 13c-14 77 -10 92 -9 144l7 30c0 13 -2 27 -1 40l14 42l1 10l2 20v15l9 26l-5 7h-17l-13 -3c-10 -10 -23 -24 -34 -34h-38l-41 -31l11 -15c15 -1 35 -2 51 -3c1 -2 4 -6 5 -8c-6 -39 -65 -111 -64 -168l-16 -30
l-9 -10c-4 -6 -10 -14 -15 -20l-20 -18c-12 -16 -25 -33 -38 -49c-15 -14 -22 -21 -55 -53c-3 -5 -8 -11 -11 -15l-15 -14c-4 -4 -9 -8 -12 -12c-4 -3 -10 -7 -13 -10c-2 1 -9 5 -12 6l10 36c0 3 -1 9 -3 12l-1 26c-9 45 -6 51 13 110c-1 6 -3 16 -5 22l2 22c0 2 -2 6 -2 8
l9 29c0 7 -1 14 -2 20l19 67l7 50l-5 34h-37c-12 -13 -27 -29 -40 -42l-19 -3l-26 -8l-52 -4l-25 -23l6 -12h43c9 3 22 7 34 11l6 -7h12l-1 -26c2 -7 2 -16 3 -23c-11 -54 -8 -61 -25 -172l-3 -38l-11 -60c2 -5 3 -13 5 -19l4 -23c3 -8 10 -15 14 -22z" />
    <glyph glyph-name="Vsmall.alt" horiz-adv-x="523" 
d="M212 16l-1 -12l19 -4l28 15l42 62c0 1 2 4 2 6l12 15c4 5 9 13 12 18l12 15c6 13 16 31 23 45c8 13 17 25 25 37c45 100 67 98 126 191l11 17l7 12c3 5 7 10 9 14c5 5 12 10 16 15l12 4l18 15l14 19l-3 16h-16l-50 -30c-7 -12 -13 -26 -19 -38l-18 -27
c-7 -10 -16 -25 -21 -35c-24 -33 -38 -37 -73 -95c-17 -19 -12 -27 -37 -68c-7 -10 -14 -20 -19 -29c-9 -9 -17 -18 -24 -27c-4 -2 -10 -6 -14 -8c-1 2 -3 5 -3 7l-9 27c-3 4 -7 10 -8 14l1 26c0 1 -1 3 -2 4c-36 108 -23 66 -56 138l-22 31l-21 27l-25 18l-33 -26l-8 -24
c-2 -25 9 -17 -24 -40l-25 -18l-11 -32l4 -5h8c6 3 12 7 16 10l9 3c10 8 21 15 31 23h10l6 -7l12 -12l11 -26c5 -11 10 -23 14 -33l5 -13c8 -20 9 -39 19 -58l5 -43l6 -30v-32c3 -13 4 -26 7 -39z" />
    <glyph glyph-name="Wsmall.alt" horiz-adv-x="802" 
d="M216 355h-6c1 2 2 3 2 5h6c-1 -2 -2 -3 -2 -5zM184 34l-7 -30h43l12 3c8 11 16 24 24 34l39 46c3 9 7 17 9 26l11 11c3 6 6 14 8 19l13 18c5 8 12 20 18 28l23 34c3 10 7 20 11 29l5 8l15 29c9 10 19 20 27 30h9c4 -7 8 -18 10 -25l-6 -26c-1 -2 1 -5 1 -8l-1 -4
c1 -5 0 -13 0 -19l-1 -14c-1 -2 1 -7 1 -9l-6 -25c1 -12 3 -27 4 -39l3 -18c2 -13 7 -28 10 -41v-27c0 -2 2 -5 5 -7l1 -23l32 -4l26 19c3 7 7 16 11 23l18 27c3 6 7 12 9 17l9 8c3 5 8 11 11 15l4 7c3 5 8 12 11 17l12 17c5 9 11 22 16 31l24 34l10 18l14 11
c7 12 14 26 21 37l21 25c2 4 5 10 7 13l20 23c2 6 7 14 9 19c6 6 14 15 20 22l21 15c3 4 9 10 13 15c3 2 7 5 10 8l100 15l9 8l23 7l9 27c-25 1 -54 3 -79 4l-27 12h-47l-35 -12l-9 -26c1 -3 3 -8 3 -12c-4 -11 -7 -23 -11 -34l-14 -14l-9 -15l-7 -10c-2 -5 -6 -10 -8 -14
l-9 -10c-2 -5 -5 -11 -8 -16l-31 -36c-6 -12 -15 -26 -22 -37l-14 -19c-8 -10 -15 -22 -22 -31l-12 -14c-6 -10 -13 -21 -18 -30l-16 -20c0 -2 -1 -5 -1 -7c-4 -4 -9 -9 -12 -13c-8 4 -15 7 -23 10l3 25c-2 9 -5 20 -5 29v24c-1 9 -5 21 -8 29l3 19c-1 6 -4 13 -5 19l2 27
l-1 78h-32l-20 -15c-4 -5 -10 -13 -14 -18l-44 -49c-7 -14 -15 -31 -24 -44l-20 -24c-2 -6 -4 -15 -7 -21l-16 -19c-6 -13 -13 -29 -20 -42c-8 -6 -17 -13 -26 -18h-10l2 17l2 12l2 18v7l-1 25c-1 0 -3 2 -5 3l6 29c-1 6 -3 15 -4 22l5 26l1 8l7 51l17 19l20 10l11 13l20 15
l26 27l-17 9h-13c-8 -7 -19 -16 -26 -23l-11 -5c-8 -5 -15 -9 -23 -13l-20 23l-33 -24c-9 -12 -21 -25 -29 -37l-41 -15c-7 -6 -13 -12 -19 -17l-28 -9l-13 -19l-9 -25l37 -3c11 9 24 19 36 27c10 3 23 8 32 11c1 -2 4 -7 6 -9l-11 -28c-1 -3 -1 -9 -1 -12l-17 -26
c4 -10 10 -23 14 -34l-3 -30c1 -14 1 -30 1 -44c1 -7 2 -15 2 -23l-6 -31v-6l-2 -19v-20l-11 -15c0 -5 1 -10 0 -15z" />
    <glyph glyph-name="Xsmall.alt" horiz-adv-x="715" 
d="M100 24v2l7 -2h-7zM418 71l2 -33l44 -38h12l5 15l12 4l22 12l13 10c4 4 10 8 16 12h17c18 13 39 27 56 40l25 16l23 22l-2 17h-36l-47 -34c-6 -5 -12 -10 -18 -14c-10 -4 -25 -11 -35 -16h-18c-9 17 -20 32 -28 49c-6 11 -12 25 -17 36c-3 6 -5 18 -6 24l-6 20
c-5 6 -9 14 -14 20l-9 20c-1 3 -5 8 -7 11v8l-12 19c4 12 8 24 12 37l30 21c3 4 6 7 10 11c6 7 14 15 20 22l17 10c6 5 12 9 18 14c16 6 36 15 52 22h28l19 -11l25 18l14 24l-41 11l-82 -18c-8 -6 -18 -13 -26 -19l-24 -15l-39 -31c-7 -8 -12 -16 -18 -23
c-12 -8 -24 -18 -34 -26h-22l-33 54l-38 45c-9 6 -19 13 -28 19l-15 15c-6 -4 -12 -8 -17 -12h-13l-56 -23c3 -1 6 -2 8 -3c-10 -5 -22 -10 -34 -15l-14 -4l-8 -16v-25l27 -18c9 8 21 17 30 25c6 3 14 8 19 11l25 -42c17 -18 34 -35 50 -52l7 -26l8 -8c7 -11 14 -22 21 -34
c-3 -8 -7 -16 -10 -25l-25 -30c0 -3 -4 -8 -7 -10l-27 -36c-12 -22 -27 -48 -41 -70c-9 -4 -20 -9 -28 -12c-14 -1 -29 -2 -43 -3l-24 7h-29l-15 13l-32 -14l-15 -18l3 -16l25 -15c16 2 36 5 57 7l11 -3h35c5 2 13 6 19 8l27 3l11 8c0 1 1 5 1 7h8l19 19c1 4 2 9 3 12l16 15
c4 11 9 23 14 33l8 7c5 7 12 17 17 23c7 6 16 13 23 19c11 4 25 10 35 15l18 -15v-9c10 -8 21 -16 31 -24l6 -24c7 -10 14 -20 19 -30z" />
    <glyph glyph-name="Ysmall.alt" horiz-adv-x="542" 
d="M158 43l-5 -17l20 -26c0 1 5 3 9 4l43 3c7 3 19 9 27 12h52c3 1 9 3 13 4l9 -4c3 1 9 3 14 4c10 2 20 5 30 7l40 -18l18 22v29l-24 5c-10 -2 -23 -4 -33 -5h-7c-9 -2 -17 -4 -25 -5c-8 3 -18 7 -26 10l18 60l2 19l10 16l15 37c-1 8 -1 16 -1 23l10 29c0 7 1 16 2 23
l15 37c-1 9 0 17 0 26c3 10 8 20 12 31c5 7 13 15 19 22l18 4l22 22c10 7 21 15 30 22l19 9c12 8 24 17 35 26l21 3l11 8l9 31l-11 18h-68l-49 -18l-11 -20l3 -22h20c2 -3 4 -8 5 -11c-13 -12 -27 -23 -39 -34l-17 -8c-5 -6 -12 -13 -17 -19c-23 -21 -48 -44 -72 -65h-17
c-5 9 -9 17 -13 26l-34 111c-4 5 -8 9 -13 14l2 27h-16c-2 -1 -13 -7 -16 -8l-18 -4c-4 -1 -11 -5 -14 -7l-15 -4c-12 -13 -26 -26 -37 -38l-48 -22l-10 -29l13 -3l27 9c6 5 13 9 19 13l13 4c5 3 8 5 13 8l40 -112c5 -4 11 -10 14 -14l17 -27c4 -2 6 -5 9 -7l9 -15
c7 -4 16 -10 22 -15l17 -15c-1 -8 -1 -16 -2 -25l-13 -41c-1 -5 -4 -14 -4 -20c-8 -22 -16 -44 -23 -65c-4 -4 -8 -9 -12 -13l-55 -2z" />
    <glyph glyph-name="Zsmall.alt" horiz-adv-x="720" 
d="M17 54l-7 -27l1 -31l46 20l45 33c13 5 29 12 43 18h25l46 -26l14 -7h12l20 -11l71 -8l139 -3c6 3 19 8 27 11h63l39 16c6 7 12 15 16 22l8 5c10 13 21 28 31 40l18 13l41 62l17 50l-7 12h-21l-21 -16l-13 -14c-8 -23 -16 -47 -25 -69l-11 -10c-13 -19 -30 -42 -44 -61
h-45l-21 5l-24 3c-23 -3 -44 -7 -66 -10l-16 12c-13 2 -28 5 -42 7l-29 28c-34 6 -72 13 -105 20c2 5 4 10 5 15l47 50c3 3 6 5 9 8l14 14c3 5 8 12 12 16c6 7 13 15 18 22c7 6 17 13 24 18h31c8 3 16 6 24 8h16l12 4h15l133 18c8 4 19 10 29 15l49 8l8 24l-6 6h-35
c-7 -5 -14 -10 -20 -15c-11 -3 -20 -8 -31 -11c-7 -2 -17 -5 -24 -7l-24 5h-27c-9 -1 -19 -3 -29 -5h-64c-2 3 -6 8 -8 12c1 4 3 8 5 13l14 20c5 8 12 17 17 25l23 20l46 18l24 47l-10 11h-22c-29 -5 -61 -10 -89 -15h-46l-71 15c-15 2 -30 5 -45 7l-13 4c-2 -1 -6 -3 -9 -4
l-13 4h-20l-26 -19l-5 -15l2 -16l31 -3c3 1 7 2 9 1l12 -9h30l15 -4h19l13 -4h109c-5 -14 -11 -27 -15 -40l-21 -28c-3 -4 -7 -10 -9 -14c-7 -8 -14 -18 -20 -26c-9 -3 -20 -7 -30 -10l-53 7h-106l-3 8h-13l-24 -12l-27 -18l7 -10l15 -7h35l16 -3c1 1 4 3 6 3h20l45 -11
c5 1 11 3 17 3h40c2 -3 5 -7 6 -10c-2 -7 -4 -12 -5 -18l-34 -34c-15 -18 -30 -38 -44 -55c-18 -15 -38 -29 -55 -43l-28 -14l-15 -13l-27 -3c-6 -4 -13 -9 -19 -13l-36 -13z" />
    <glyph glyph-name="ampersand" unicode="&#x26;" horiz-adv-x="688" 
d="M83 101l93 -72l78 -29h110l82 31l103 58l36 51l39 95l-5 54l-19 30c-6 7 -13 17 -19 25l4 7c1 2 3 5 4 7c18 9 38 17 56 26l13 4c3 1 8 3 12 4l99 14l137 52l112 93l6 37l-55 25l-55 -25l-50 -50l-10 -56c-9 -5 -18 -11 -28 -16c-11 -5 -31 -14 -42 -20l-80 -20
c-26 -7 -54 -14 -80 -21l-190 -43l-105 -68l42 -36c20 12 43 26 63 40l40 23h37c10 -5 21 -11 30 -17c2 -1 5 -4 9 -6c4 -7 11 -14 13 -20l-18 -101l-28 -39l-27 -40l-41 -24c-14 -7 -30 -17 -43 -25h-79c-23 11 -46 23 -68 34c-8 6 -15 15 -23 21l-1 21l-16 22
c-5 10 -11 21 -15 32c0 20 0 42 1 62c3 16 8 47 11 62c7 13 14 25 21 37c12 16 27 34 39 50c14 16 29 33 42 49c25 17 51 36 76 54l78 54l76 15l64 30l-10 27c-12 9 -25 18 -37 27c-10 15 -21 32 -31 47l-18 33c-6 9 -12 21 -18 30l25 41l15 6c5 1 13 5 18 6l41 2
c13 0 30 -2 43 -2c12 -5 25 -11 37 -16l8 -12c4 -3 7 -8 9 -11l13 -80l39 -19l16 25l-16 88l-26 32c-17 3 -39 6 -56 9l-54 20l-72 18l-98 -60l-34 -56l11 -66c12 -27 25 -58 38 -86l-204 -118l-92 -98l-71 -119l-20 -115z" />
    <glyph glyph-name="at" unicode="@" horiz-adv-x="857" 
d="M362 47l-2 12l-3 19l11 20l6 18l22 24c14 22 30 46 44 68l19 15l19 8c0 1 4 3 8 2l11 -4c2 0 7 -1 10 -1l23 -15l11 -10c2 -1 5 -2 7 -4l-29 -67c-2 -7 -6 -16 -7 -23c-8 -8 -16 -17 -24 -26c-7 -8 -17 -17 -25 -25l-18 -14c-1 -1 -4 -3 -5 -4c-6 -4 -15 -8 -22 -12h-41
c-4 2 -13 6 -17 8zM117 -144l41 -70l54 -22h65l166 61l-12 28l-40 -5c-10 -6 -19 -12 -28 -17c-5 -3 -10 -7 -13 -9c-17 -4 -34 -8 -51 -11h-68l-20 33l-24 41c-5 10 -11 24 -16 34c-5 12 -9 25 -14 37l1 48l-2 17c-1 7 -1 16 -1 23c0 14 -1 27 -2 40c8 17 17 33 25 50
c9 16 19 34 27 49c8 10 17 20 25 30c9 10 19 20 27 30c18 18 37 40 55 58c46 40 100 88 145 128c10 6 20 12 29 19c13 6 26 13 38 19l10 5c17 9 38 21 56 30l57 9c2 1 5 3 6 4c2 1 6 1 9 2l15 3h56l34 -23c10 -7 23 -16 33 -23l13 -27c9 -14 19 -30 28 -44l2 -40
c2 -9 2 -17 4 -25c0 -5 1 -12 1 -17c-11 -39 -22 -80 -32 -120l-23 -44c-7 -15 -16 -31 -24 -45c-10 -9 -23 -22 -33 -32c-11 -10 -26 -22 -37 -32l-17 -13c-4 -2 -7 -4 -9 -6c-3 -1 -6 -3 -8 -5c-5 4 -12 9 -15 11l-10 8l-13 7c-5 10 -11 21 -16 31l12 145l-24 32l-19 -4
c-2 -3 -6 -9 -9 -12l-10 -9l-35 25h-55l-61 -36l-83 -108l-17 -71l19 -22l69 -21l67 23l17 14l21 16l32 25l43 -86h78l82 32l64 57l64 111l32 119l-4 95l-66 121l-92 31h-89l-171 -86l-126 -72l-163 -179l-63 -79l-35 -133z" />
    <glyph glyph-name="Euro" unicode="&#x20ac;" horiz-adv-x="792" 
d="M255 33l33 -56l43 -19l47 21l5 8c2 2 3 6 4 7c0 0 5 7 6 9s4 5 5 7l25 19c8 7 19 15 28 22c27 20 54 41 79 60l74 32l26 20l-2 31l-93 -27l-8 -3c-18 -11 -31 -19 -50 -30c-12 -8 -24 -15 -37 -21l-22 -13s-8 -2 -13 -3c-6 -1 -10 -2 -14 -3c-3 0 -6 -1 -9 -2
c-5 -1 -16 -3 -18 -4l-9 10l-4 5c-2 2 -4 4 -4 5c-1 1 -4 2 -4 3c2 19 6 53 8 72c1 25 3 49 6 73c1 8 4 17 6 27c2 9 6 21 9 30l13 11c10 3 21 4 32 6c7 1 15 3 22 4l18 4c13 2 29 5 41 7h193l44 34l-60 17c-45 -1 -90 -2 -136 -3c-21 0 -42 -1 -64 -2c-21 0 -46 -2 -68 -2
c-1 1 -2 3 -4 4l3 9s2 7 3 9c3 12 6 24 10 37c3 1 6 3 6 4c2 1 4 2 5 2c4 4 10 6 13 8c41 3 82 7 124 10l16 2c6 0 11 1 18 2c4 0 11 0 17 1s13 1 17 2h91l36 27l-48 10c-15 0 -30 -2 -45 -2c-26 -1 -56 -3 -84 -5c-3 0 -7 -1 -10 -1l-111 -6c1 4 2 11 3 14c2 3 4 12 4 15
c13 21 28 45 42 66c11 16 21 32 31 49c2 3 5 6 9 10c5 4 10 9 13 13c8 7 19 17 25 24c13 7 26 12 43 19h69c8 -4 15 -7 19 -11c4 -2 10 -6 14 -8c3 -2 6 -4 10 -8c6 -10 9 -18 13 -26c0 -2 0 -5 2 -6c1 -7 5 -16 8 -22v-26h33l14 10l3 44l-26 69l-70 42h-97l-62 -14l-96 -87
c-4 -7 -7 -13 -10 -18c-9 -18 -20 -36 -30 -53c-6 -10 -12 -20 -17 -30c-13 -21 -28 -46 -39 -66l-204 -12l-34 -26l17 -17h34c8 2 23 9 32 13c3 1 9 3 12 5l5 2h50c12 0 24 0 35 -1c4 0 6 -1 10 -1c6 0 13 -1 23 -3c-12 -25 -25 -49 -37 -75c-4 -3 -8 -7 -11 -10
c-1 -1 -4 -3 -6 -4c-1 -1 -4 -4 -6 -5l-99 7l-15 -26l15 -18c7 0 15 -2 23 -2c7 -1 18 -1 25 -1c15 -2 30 -4 44 -5l-23 -130z" />
    <glyph glyph-name="paragraph" unicode="&#xb6;" horiz-adv-x="661" 
d="M216 443l-9 38c15 25 29 52 44 76c35 29 70 59 103 88c37 16 78 34 115 50h29c-11 -26 -21 -54 -32 -79l-33 -48c-26 -22 -62 -52 -88 -75l-42 -26c-12 -8 -23 -17 -35 -25c-12 -3 -27 -8 -40 -11c-4 4 -8 9 -12 12zM94 -33l-3 -17h54c4 2 15 6 19 9l114 24l2 13l-29 19
h-12l9 48l28 55l1 5l35 57c47 101 116 251 163 353c12 18 24 38 35 56c12 16 28 35 40 50c16 14 33 30 50 43h11l-48 -123c-16 -46 -34 -96 -50 -143l-35 -89c-15 -39 -31 -81 -46 -120l-65 -113l-38 -88l-6 -32l36 -22h30c19 17 41 34 59 51c46 16 95 31 141 47l20 6l25 47
c-56 -20 -116 -42 -171 -63h-29l3 22l52 80c10 37 22 77 32 115l50 106c12 30 25 63 35 93l21 45c13 38 27 81 40 120l57 108l7 39l-23 27h-25c-25 -21 -65 -54 -90 -76h-32l-18 7l-92 -7l-50 -13l-84 -50l-109 -83l-80 -89l-7 -40l7 -30l64 -27l78 20l84 55l45 38h7
c0 -1 1 -2 2 -4c-33 -80 -68 -165 -101 -245c-21 -36 -44 -76 -63 -113c-20 -35 -44 -75 -65 -112c-7 -10 -15 -20 -22 -30z" />
    <glyph glyph-name="sterling" unicode="&#xa3;" horiz-adv-x="628" 
d="M187 21l81 -34l67 -17h96l115 62l31 42h-24l-8 -6l-50 -26l-81 -3l-90 20l-88 28l-51 40l20 51l84 166l23 22h245l64 -4l88 25l6 34h-32l-133 -12l-215 10l10 52l13 18l17 33l72 121l86 108l53 12l35 -3l23 -66l-10 -18l5 -27l44 11l8 49l-21 65l-29 51h-83l-32 -9
l-100 -78l-105 -153l-101 -165h-44l-81 2l-25 -49l16 -4l91 7l14 -7l-4 -21l-62 -147l-56 -81l-171 -89l15 -28l32 -10l179 65h17z" />
    <glyph glyph-name="_270" horiz-adv-x="925" 
d="M324 133l87 -107l64 -26h83l62 17c12 8 24 17 37 25l84 50l69 66c17 21 36 45 53 66l21 24l45 69l22 124l-3 75l-46 118l-92 90l-136 25h-108l-87 -16l-174 -85l-111 -73l-68 -101l-18 -100l22 -66h18c-3 19 -11 55 -13 75l16 91l41 42c8 7 14 17 22 25l76 65
c41 19 123 57 164 75c28 8 59 17 87 25c31 -5 65 -11 97 -16l135 -75l14 -17c19 -16 39 -34 58 -49c14 -43 29 -90 43 -133l-16 -91c-13 -27 -27 -56 -40 -82c-17 -22 -35 -45 -52 -67c-33 -28 -66 -56 -98 -83c-19 -8 -90 -41 -109 -50h-91c-15 5 -32 11 -46 16
c-23 28 -46 56 -68 83c-5 19 -11 39 -15 58c15 25 32 50 46 74c22 20 45 40 67 59c15 6 39 17 54 24h75c3 -13 7 -28 9 -40l-67 -101h19l28 25l45 67l9 50l-26 34h-77l-73 -26l-89 -48l-54 -67l-12 -68z" />
    <glyph glyph-name="_216" horiz-adv-x="1266" 
d="M605 34l88 -26l148 -8l141 43c27 18 57 38 84 57l38 24l59 50c7 10 15 24 22 34l20 24l69 101l21 116l-12 75l-32 101l-137 165l-136 75h-200l-127 -16c-15 -7 -40 -18 -55 -25l-80 -25c-26 -11 -54 -23 -78 -33l-46 -8l-128 -116l-90 -134l-58 -134l-35 -199l9 -50
l21 -76l33 -41l42 1c-5 3 -10 7 -14 9c-11 13 -23 28 -34 41c-8 17 -17 34 -25 50c-3 29 -6 61 -9 91l39 125l7 41l12 25c13 27 27 57 40 83l54 75c11 16 24 34 35 49c35 31 72 61 106 92c40 19 86 39 127 58c54 16 112 34 166 50c42 6 113 18 156 25c35 -14 71 -29 107 -42
l59 -49c27 -23 59 -45 87 -68c33 -41 69 -83 103 -123c8 -46 16 -95 24 -142c-8 -32 -17 -67 -26 -99c-14 -25 -30 -50 -46 -74c-18 -22 -36 -45 -53 -67l-48 -41c-43 -21 -93 -45 -137 -67c-44 -8 -93 -17 -138 -25c-45 8 -90 17 -136 25c-26 22 -52 46 -79 67
c-15 32 -33 67 -49 100l7 40c22 18 66 56 88 75c15 8 31 16 45 24c34 11 71 22 106 34h34l59 -34c9 -11 25 -29 35 -41l-14 -82l-68 -100l-3 -18h9l28 25c8 10 16 23 24 33l19 24l38 68l11 60l-25 48l-62 34h-157l-122 -42l-66 -32l-37 -68l20 -84l71 -107z" />
    <glyph glyph-name="curly2" horiz-adv-x="1714" 
d="M890 136l-11 37c15 31 33 63 49 93c5 3 14 7 19 8c9 -3 19 -6 27 -10c4 -9 10 -21 15 -31c-4 -12 -7 -25 -11 -37c-14 -17 -29 -35 -44 -52c-15 -3 -29 -6 -44 -8zM696 -6l-33 29c-3 18 -9 38 -12 56c10 27 20 55 30 82c5 6 11 12 16 18c12 12 25 27 36 39
c39 28 79 58 118 85c11 0 28 1 39 1l27 -9l-31 -30l-39 -72l-20 -70l29 -19c22 0 45 1 67 1l31 -3l37 45l31 57c1 10 2 24 3 35l9 30c-13 19 -29 41 -41 59c5 10 11 19 15 28c31 30 64 63 96 93l24 15c16 12 37 27 53 40c13 -5 27 -10 40 -14c8 -29 18 -59 26 -87
c-11 -40 -22 -85 -32 -125l-45 -85c-28 -32 -58 -66 -85 -97c-40 -27 -82 -55 -122 -82c-27 -11 -56 -25 -84 -37c-33 -4 -70 -8 -104 -13c-26 10 -53 20 -79 30zM106 144l-63 -76l5 -22l21 -8l31 16c-2 4 -6 9 -10 14c14 23 26 46 37 68c21 24 47 55 66 78l43 35
c7 9 16 18 23 27l55 47c5 6 9 15 12 22l37 38l31 30l76 67c8 7 20 16 28 23c26 18 53 38 78 56c50 23 107 48 157 70c28 4 58 7 86 10l57 -13c17 0 38 -2 54 -3c36 -5 76 -11 113 -16c32 -18 66 -36 99 -54c9 -9 21 -19 31 -29l-116 -84c-31 -30 -64 -63 -95 -93l-76 -5
l-148 -83l-74 -81l-51 -94l21 -70l49 -42l87 -34l138 17l85 39l49 32l91 52l56 73l15 18l77 128c1 11 1 23 1 34l19 52l5 83c-3 18 -8 38 -11 57c2 11 3 27 5 39c15 14 32 29 47 43c44 20 91 41 136 61c36 6 75 12 112 17c20 0 51 -1 71 -1l21 -41c8 -11 19 -25 27 -37
l23 -34l12 5l21 121l-59 22l-102 5l-150 -37c-60 -28 -127 -58 -188 -87c-16 6 -31 13 -47 19l-87 58l-104 38l-93 19l-85 -10l-130 -47l-156 -80l-124 -99l-128 -122c-41 -43 -84 -89 -126 -132l-15 -12c-22 -28 -47 -58 -70 -87z" />
    <glyph glyph-name="curly4" horiz-adv-x="1591" 
d="M1101 12l75 -5l28 -14c10 4 24 10 35 14l62 5c12 4 27 9 41 13l47 12c18 11 35 21 53 32l58 27l39 23l35 82l5 71c-6 10 -13 20 -19 30l-18 38l-20 24h-72l-68 -31l-44 -36l-11 -59l21 -25h64l16 14c-14 6 -30 13 -42 19c-2 3 -8 8 -10 12l4 25c19 11 39 25 58 36h61
c15 -17 33 -38 48 -56l-20 -111c-12 -10 -25 -21 -37 -31c-45 -21 -93 -42 -137 -63l-81 -5c-18 -3 -37 -5 -54 -8c-41 11 -84 22 -126 33l-111 66c-7 5 -16 9 -23 14l-14 18c-5 2 -9 6 -13 8l-21 25c-4 1 -9 4 -12 5l-9 14l-112 111c-28 12 -59 26 -87 38l-37 19l-71 19
h-56c-12 -4 -27 -8 -39 -12l-33 -7l-80 -25c-7 -3 -20 -8 -27 -12l-67 -19c-13 -11 -28 -21 -41 -31l-34 -12c-6 -11 -13 -23 -19 -33l-109 -125l-7 -38l11 -38l24 -37l24 -14h71l108 100l46 71l6 38h-20c-2 -8 -7 -17 -9 -25l-10 -12c-2 -6 -7 -14 -9 -20l-34 -50
c-26 -22 -56 -46 -82 -69h-43c-9 5 -24 13 -33 19l12 68c4 11 8 25 11 36l33 32c4 8 12 19 17 26c13 15 27 30 39 45l33 12c3 2 6 3 7 5l21 8c18 9 41 21 62 30l70 18c3 1 10 5 14 7l40 7c6 1 13 3 18 5h39l45 -24c6 -2 12 -5 18 -7l108 -61l58 -51c11 -4 21 -9 30 -12
l58 -64c7 -4 16 -9 24 -13l37 -36c10 -2 20 -5 31 -7l32 -24c6 -2 13 -6 18 -8l15 -12z" />
    <glyph glyph-name="curly5" horiz-adv-x="1137" 
d="M720 25l59 -25h144c3 1 9 5 13 7l35 12c2 2 6 4 7 6l41 19c11 13 21 25 31 37l49 50l34 127l-41 63l-40 43h-65l-42 -20l-62 -67l2 -58l27 -31h25l21 13l13 26l-5 19c-12 2 -24 5 -35 7c-2 1 -4 3 -6 5c8 11 19 26 26 38c20 7 46 17 65 23c12 -3 24 -8 36 -11
c9 -12 16 -25 25 -37c4 -9 8 -23 12 -32l-13 -70c-6 -12 -12 -25 -18 -36l-37 -31c-1 -4 -6 -9 -8 -13l-28 -25l-20 -6c-13 -6 -30 -14 -43 -20l-45 15c-24 1 -52 3 -76 5l-58 31c-6 2 -16 5 -24 7l-38 25c-11 6 -23 12 -33 18l-43 37c-30 17 -63 35 -92 52l-35 25
c-8 6 -18 13 -27 19l-65 48c-21 8 -52 18 -73 25l-10 7h-76c-8 -2 -18 -5 -27 -7l-32 -5l-43 -24l-43 -64l-12 -69l19 -40l26 -30h69l120 38l5 26h-45c-22 -11 -47 -22 -69 -33h-55c-8 9 -19 24 -26 33l9 55c7 11 14 21 20 31c20 14 44 30 65 45h74c2 -2 9 -6 12 -7l80 -38
l80 -75c7 -2 17 -4 25 -5l30 -26c4 -2 10 -4 13 -6l22 -20l44 -31l67 -48z" />
    <glyph glyph-name="scroll1" horiz-adv-x="981" 
d="M1029 73l-52 12c10 7 18 13 26 20c47 13 99 29 146 43c7 -4 13 -7 20 -11c-21 -16 -42 -31 -62 -47c-25 -6 -52 -11 -78 -17zM325 94h-40c3 13 8 26 11 39c19 8 42 18 63 26c27 4 56 9 85 12h62c-1 -2 -1 -3 -1 -5l-28 -8c-24 -13 -51 -27 -76 -40
c-23 -7 -53 -17 -76 -24zM1009 400l-39 11c38 23 76 48 115 72c30 15 64 30 95 45c38 12 81 26 120 39l43 -15c2 -7 4 -16 6 -24c-4 -14 -8 -30 -11 -44c-77 -27 -155 -57 -231 -84h-98zM678 -94l114 -105h32l63 36l6 23l-16 21c-16 -11 -33 -24 -48 -34l-35 37l-26 23
c-9 14 -21 29 -29 42c46 31 98 64 144 95h168l85 20l76 59l9 35l-28 36l-109 -25c-44 -20 -91 -40 -134 -60h-52l-91 40c-14 4 -28 8 -41 12c-27 12 -56 24 -83 36c2 7 5 16 7 24l75 40c12 8 27 17 38 25l93 41l27 15h104c7 2 18 6 26 8l35 8c47 18 96 38 144 57l78 24
l79 37l8 72l-44 53h-61l-166 -57c-37 -24 -75 -48 -112 -72l-33 -18c-13 -8 -25 -15 -37 -23h-48l-152 89l-125 48h-143l-158 -27l-207 -93l-93 -49l-122 -96l-74 -82h25l40 40l136 110c41 20 84 42 126 63l54 21c5 2 14 6 18 8c26 8 54 19 80 28l65 -13c11 3 23 6 33 9
l28 -9c19 -4 40 -8 61 -11l44 -16c27 -4 58 -8 85 -12l95 -40c10 -5 21 -8 32 -13c-20 -40 -38 -80 -56 -119c-17 -14 -39 -31 -56 -45h-159l-85 -13l-136 -51l-10 -41l14 -65h66c41 18 87 38 129 56l42 15c21 8 44 17 65 25h60l99 -40c41 -10 86 -21 127 -32
c-3 -8 -5 -18 -7 -26c-42 -24 -86 -49 -129 -74l-33 12h-56l-107 -39l-11 -43l17 -24h58c20 7 59 18 78 24h24z" />
    <glyph glyph-name="_32" horiz-adv-x="3325" 
d="M758 14l-28 26c-7 13 -13 28 -19 40c4 25 11 73 16 98l78 85c16 6 40 18 56 25c13 -2 26 -5 39 -7c3 -4 11 -12 14 -17c-1 -5 -2 -17 -3 -23l-44 -68l-6 -32l38 -27c17 22 45 55 63 77c31 19 62 40 93 59c4 -4 10 -11 14 -16c-6 -16 -12 -33 -18 -49
c-18 -27 -37 -56 -55 -82l-103 -70c-44 -6 -91 -12 -135 -19zM2618 -5l-32 8c3 18 7 48 11 66l65 101c11 22 23 45 35 66l79 67c16 0 40 1 56 1c1 -13 3 -26 2 -40c-10 -20 -23 -40 -35 -60l-65 -41l-1 -19l21 -24c44 32 96 71 141 103h40c-26 -47 -54 -94 -80 -140
c-21 -20 -45 -40 -66 -60c-32 -9 -66 -18 -97 -27c-20 0 -54 -1 -74 -1zM1425 25l-61 33c-4 10 -7 23 -10 33c15 32 32 67 48 99c25 34 51 68 75 101c30 19 63 40 92 60c23 0 59 1 82 1c6 -8 14 -18 20 -26c-3 -13 -10 -27 -13 -40l-126 -110l6 -17h26c30 22 62 45 92 67
l63 27c20 10 44 23 64 33c9 0 23 2 32 2c-20 -31 -42 -61 -63 -91c-48 -39 -97 -80 -144 -119c-31 -15 -76 -37 -108 -52c-21 0 -54 -1 -75 -1zM2070 -47l-31 16c-9 27 -18 56 -27 83c2 16 5 41 8 57c10 30 22 61 33 92c15 13 31 28 46 42c30 13 61 29 91 43h58
c6 -4 14 -10 22 -15c0 -13 2 -27 1 -41c-5 -17 -11 -34 -16 -51l-87 -75l-4 -26l27 1c44 39 100 87 145 127c17 10 37 22 53 32c-3 -21 -8 -53 -11 -73c-9 -19 -17 -39 -25 -57c-18 -21 -46 -55 -64 -77c-33 -19 -67 -39 -99 -59c-19 -5 -42 -12 -61 -18
c-17 0 -43 -1 -59 -1zM1984 43l34 -100l40 -16l75 1l87 26l100 43l56 51l67 102c7 45 17 103 24 148c40 30 82 62 122 93c60 25 127 54 186 79c26 1 60 1 85 2c23 -8 47 -17 69 -25c12 -14 31 -36 43 -49c-6 -39 -14 -84 -20 -122c-15 -14 -33 -30 -48 -43
c-10 0 -30 -1 -40 -1l5 82l-48 24l-51 -1l-67 -57l-31 -44c-15 -24 -31 -50 -46 -75l-56 -92l-11 -68l21 -24l107 -6l104 18l98 43l78 126c11 40 24 85 36 125c30 15 61 28 92 43l247 95l3 18l-169 -70l-80 -26c-29 -14 -60 -29 -90 -44l7 92l-42 48l-77 42l-133 -2
c-11 -5 -26 -13 -37 -18l-42 -17l-122 -61c-33 -22 -66 -45 -99 -67l-14 67l-20 32l-95 81l-83 -2l-89 -33l-116 -44c-34 -14 -72 -29 -106 -43c-11 0 -30 -1 -41 -1l-6 75l-16 49l-92 49l-126 -2l-87 -19l-80 -43c-98 -46 -198 -91 -297 -137c-4 -2 -13 -6 -18 -9h-32
l-17 58l-61 73l-92 6l-85 -17l-166 -78c-36 -22 -73 -46 -109 -67l-135 -77c-88 -56 -182 -115 -268 -171l-52 -9c-14 -5 -30 -11 -44 -16h-51l-20 -19l13 -25l98 27l117 68l47 25c76 48 154 97 229 144l202 104c13 9 23 16 35 25c31 14 69 29 100 43c21 6 46 12 68 18
c15 0 42 1 58 1c15 -11 31 -23 46 -33c5 -32 11 -67 18 -98l-6 -32l-65 -34c-11 0 -28 -1 -40 -1l-12 33l-13 15l-97 25l-116 -101l-23 -36l-18 -108l22 -75l67 -7l168 19l125 101l45 68l33 101c20 13 42 28 62 42c114 55 240 116 353 171c39 9 81 18 120 27
c24 -2 50 -5 74 -7c21 -8 43 -16 63 -24c8 -17 17 -40 24 -57c-6 -31 -13 -79 -18 -109c-44 -21 -90 -44 -134 -66h-7l21 40l9 51l-39 15l-50 15c-10 -3 -22 -5 -32 -8l-71 -17l-77 -67l-52 -68l-58 -110l-10 -58l26 -32l64 -33l90 1l115 35c25 19 50 40 76 59l28 18l77 67
l62 76c9 21 19 47 28 68c7 9 15 22 21 32c60 22 126 47 186 70c61 20 123 41 184 61c16 -8 36 -17 53 -24c18 -11 35 -21 53 -32c6 -33 12 -67 17 -99c-2 -16 -5 -41 -8 -57c-21 -13 -45 -29 -66 -42c-5 0 -10 -1 -15 -1l-1 41l-58 58l-59 -1c-14 -9 -31 -18 -46 -27
l-99 -50l-49 -102z" />
    <glyph glyph-name="_34" horiz-adv-x="4925" 
d="M4467 23l-44 26c-16 22 -37 47 -53 68c17 43 34 87 52 131c10 8 21 17 31 25c17 -1 38 -2 56 -2c4 -6 9 -12 13 -17c3 -13 6 -30 9 -43c-4 -18 -8 -40 -13 -58l-11 -17l6 -8l35 -2c19 30 40 62 59 92c34 22 72 48 106 71c0 -16 -1 -33 -2 -49c-7 -24 -16 -50 -24 -75
c-19 -27 -39 -55 -59 -81c-16 -13 -32 -26 -49 -40c-21 -6 -49 -16 -70 -23c-12 0 -30 2 -42 2zM3936 23l-31 17c-20 9 -41 19 -60 28c-5 7 -13 18 -19 25c7 33 16 75 22 108l26 40c4 10 10 22 15 32c9 5 25 12 34 16c25 0 56 -2 82 -3c8 -10 19 -23 27 -33
c-2 -14 -7 -35 -10 -49l-52 -49l11 -19h35c21 30 41 60 61 90c28 17 59 38 86 55h24c-3 -15 -7 -35 -11 -50c-19 -40 -39 -82 -58 -122c-26 -26 -55 -55 -82 -81c-16 -3 -34 -5 -51 -8c-15 1 -35 2 -49 3zM1627 38l-61 27c-10 17 -21 34 -31 50c-6 24 -12 51 -18 76
c26 34 55 71 81 105c24 15 53 33 76 48c16 -1 33 -1 49 -2c10 -14 23 -29 32 -43c-1 -8 -5 -21 -7 -30l-50 -42l12 -26l27 7l73 73c25 15 53 33 76 47c6 -7 14 -17 20 -25c-14 -29 -30 -60 -44 -90c-20 -29 -41 -60 -61 -89c-31 -17 -63 -36 -93 -55
c-26 -10 -55 -21 -81 -31zM877 -5l-44 18c-4 16 -11 35 -15 51c6 28 13 62 18 90c15 21 31 44 47 64c24 20 56 45 80 65c20 0 45 -1 65 -2c3 -13 6 -28 9 -41c-2 -12 -6 -29 -8 -41l-56 -58l8 -8l18 -2c37 30 81 67 119 97c31 21 64 43 96 64c8 -11 18 -24 26 -34
c-15 -34 -31 -66 -46 -99c-35 -37 -72 -74 -106 -111c-29 -13 -61 -27 -91 -40c-39 -4 -81 -9 -120 -13zM3414 31l-64 18c-18 25 -39 54 -58 78c6 29 14 62 19 91c38 30 83 66 120 96c24 0 51 -2 72 -3l12 -17c-2 -14 -7 -35 -9 -50l-54 -57l8 -9h25c24 26 50 54 76 80
c31 25 66 49 98 73c8 0 24 -1 32 -1c-6 -31 -14 -67 -21 -99c-23 -38 -49 -77 -74 -114c-25 -27 -50 -54 -75 -82c-35 -1 -74 -2 -107 -4zM2225 36l-55 18c-2 39 -4 78 -8 116c14 41 28 84 42 124c19 16 41 33 60 48c23 5 47 10 69 15c16 -3 32 -7 48 -10
c4 -16 11 -34 15 -49l-84 -80l-15 -27l14 -18l19 8c8 8 16 17 24 25l39 39c12 16 25 35 37 51c28 22 60 48 88 71c9 0 24 -1 33 -1c1 -20 2 -38 4 -57c-5 -29 -13 -63 -19 -92c-23 -33 -47 -66 -70 -98c-30 -23 -60 -47 -89 -71c-17 -5 -36 -10 -53 -15c-31 1 -68 2 -99 3z
M2850 41l-63 18c-21 17 -43 35 -64 51c-5 19 -8 39 -13 59c2 12 8 38 10 51c12 16 24 33 36 48l80 65c23 9 49 20 72 30c13 -1 27 -2 40 -2c10 -12 24 -30 34 -42c-2 -12 -6 -28 -9 -40l-67 -75l45 -1c19 21 44 51 63 73c42 23 89 48 131 70c3 -13 5 -25 8 -39
c-13 -38 -27 -79 -41 -117c-29 -39 -60 -82 -91 -122c-23 -10 -48 -20 -72 -30c-32 1 -68 2 -99 3zM768 73l25 -86l28 -25l107 -4l88 15l113 62l40 41l94 80l47 117c4 18 8 40 12 58c3 7 9 17 13 25c64 30 131 62 195 93l113 31c23 6 50 15 73 22c22 4 46 9 67 14
c26 -22 52 -47 78 -68c12 -22 24 -47 35 -69c-1 -6 -4 -18 -5 -24c-23 -12 -51 -27 -75 -39c-8 0 -22 1 -32 1l-31 42l-44 27l-93 -30l-88 -72l-43 -50l-15 -67l3 -67l45 -59l68 -37c14 2 31 5 44 7l42 7l63 15l95 63l94 132c17 41 34 83 50 123c13 10 28 21 41 32l118 47
c34 15 74 32 109 47c35 12 72 26 107 38c31 5 64 10 95 15c29 -39 61 -81 90 -121c-23 -18 -47 -37 -69 -55c-14 -8 -26 -16 -38 -23l-38 49l-100 4l-84 -40l-46 -56l-31 -150c2 -5 5 -12 7 -17l8 -76l59 -35l126 -4l69 14l119 96c12 16 25 34 37 50l20 23c4 7 10 18 13 26
l13 17c11 54 24 112 35 166c3 8 7 16 12 24c51 21 103 41 155 62l101 14c14 5 31 10 46 15c31 1 68 3 101 5c15 -6 31 -12 45 -18c16 -27 32 -57 48 -85c-3 -14 -6 -28 -9 -41l-36 -24c-22 -12 -46 -26 -67 -38h-16l-13 49l-46 27l-41 2l-93 -41l-89 -70l-35 -50l-12 -93
l39 -59l77 -61l151 -5l56 32l18 7l42 41c3 8 9 18 13 25l78 90c20 55 39 110 59 164c9 8 20 16 29 24c66 22 138 47 205 69c43 12 91 25 134 38c16 -1 33 -2 49 -2c10 -15 21 -29 31 -43c8 -27 17 -56 25 -83c-40 -25 -83 -53 -124 -79l-63 51l-97 -21l-101 -81l-36 -58
l8 -76l72 -93l159 -6l65 40l88 96c13 21 27 47 38 68l36 49c7 35 15 71 23 107c13 11 27 22 40 33c47 20 97 41 145 61c58 17 127 36 186 53c8 -11 16 -23 24 -34c11 -38 23 -80 34 -119c-3 -16 -7 -33 -10 -48c-30 -21 -64 -42 -95 -63l-27 34l-27 26l-117 3l-39 -31
l-52 -92l-21 -100l40 -44c18 -8 36 -18 52 -27l21 -17l50 -9l85 5l94 97c24 37 50 78 74 115l24 34c8 26 17 54 25 81c13 10 27 21 40 32c101 29 234 69 335 99c15 -6 31 -13 45 -18c7 -18 16 -40 23 -58c4 -19 8 -41 12 -59l-69 -56c-14 -7 -33 -17 -47 -24l-40 35l-48 25
l-65 3l-54 -56l-38 -109l-10 -42l31 -51l63 -60l100 -4c12 7 26 16 38 23l46 16c3 8 9 17 12 25l43 48l74 116c6 28 14 63 20 91c5 10 10 23 16 33l157 79l1 9l-17 1c-52 -25 -106 -53 -157 -80l-48 93l-76 38l-236 -61c-43 -14 -90 -30 -134 -45c-4 0 -13 1 -17 1l-40 119
l-61 34l-66 2l-186 -53c-41 -18 -86 -36 -128 -54c-9 0 -22 1 -32 1l-34 77l-57 43l-221 -59c-64 -23 -135 -48 -198 -70c-6 0 -16 1 -23 1l-27 76l-45 59l-99 3c-14 -2 -30 -3 -43 -5l-104 -13l-104 -23c-58 -20 -119 -41 -176 -61l-90 95l-55 27l-164 -36
c-95 -41 -197 -86 -292 -126c-18 0 -39 2 -57 2l-33 77l-49 52l-125 4l-285 -92c-45 -23 -94 -48 -139 -70c-9 0 -22 1 -32 1l-59 76l-57 45l-114 19l-97 -21l-130 -72l-299 -199c-13 -10 -29 -22 -40 -32c-51 -31 -102 -64 -152 -95c-45 -20 -94 -42 -139 -63l-159 -3
l-10 -9l12 -18l101 -3l88 23l197 103c96 67 197 140 292 207c76 45 152 90 227 135c31 5 63 10 94 15l52 -36c29 -28 59 -59 88 -87c8 -17 15 -35 23 -51l-38 -23c-33 -21 -70 -42 -104 -63c-4 0 -10 1 -15 1l-2 32l-14 52l-83 2l-100 -39l-70 -90z" />
    <glyph glyph-name="curly1" horiz-adv-x="2484" 
d="M1354 -26l-30 4c-5 6 -10 13 -14 18c-2 6 -7 18 -9 25l5 28c5 5 10 11 16 16l15 13l4 21c8 13 19 27 27 40l33 29c3 3 8 9 11 13c12 6 31 15 44 22c5 -2 11 -6 16 -8c-8 -9 -14 -19 -22 -29l-10 8l-15 -9c-3 -6 -6 -14 -8 -19l-21 -29l-6 -35l24 -28h17l21 24l19 16
c9 10 17 19 26 29l14 12c6 9 18 24 23 33c12 4 25 10 35 13c0 0 3 -2 4 -3l-4 -21c-9 -25 -19 -49 -29 -74l-30 -35c-1 -2 -7 -9 -8 -10c-16 -13 -32 -25 -48 -38l-21 -4c-8 -2 -18 -6 -27 -9l-20 -4c-11 -2 -23 -6 -32 -9zM1825 -92l-14 11c-3 11 -10 28 -13 38v55
c1 11 1 22 2 33l17 20l8 43c8 16 19 36 29 53c3 7 7 14 11 20l53 47c14 6 32 15 45 20h25c4 -2 13 -7 17 -9c4 -4 19 -23 23 -28l-2 -8c-3 -7 -8 -14 -11 -20l-30 -25l-10 -5c-1 -1 -3 -2 -4 -4l-19 -9l-53 -49l-11 -33v-42l24 -34l61 8c22 13 48 29 70 42h23
c1 -3 2 -8 2 -11l-3 -21c-26 -21 -56 -46 -81 -67l-82 -8c-4 -1 -11 -4 -17 -5l-34 -4zM587 -67l-16 11c-2 7 -7 22 -10 30l-3 13c-4 15 -11 35 -14 50l10 57c15 29 32 59 48 87l70 47c5 3 17 8 23 11h42c13 -3 27 -6 39 -10l-4 -22c-5 -8 -11 -17 -17 -24l-30 -25l-13 -9
c-12 -10 -27 -22 -39 -32l-39 -22c-2 -5 -4 -11 -7 -16l-13 -16l-4 -18l12 -21h86l27 13l8 8l38 17l48 41l62 65c3 3 6 6 9 10c8 9 18 19 27 28l36 25l7 -8l-7 -41c-11 -20 -23 -43 -34 -63c-8 -13 -17 -27 -27 -40l-3 -4c-13 -13 -25 -29 -38 -42l-93 -79l-73 -5l-49 -12
l-13 -4h-46zM1754 -69l25 -49l28 -3h62c15 2 29 5 44 8l25 4c5 0 11 1 17 3h22l32 10l85 73l61 59c6 10 13 23 19 33l12 19c2 5 5 11 6 16l30 49c8 21 16 41 23 61c15 16 31 32 45 47c27 15 59 31 86 45l90 29c26 9 57 19 83 29h29l16 -4l31 8l4 18l-2 13l-25 8l-55 -8
c-7 -3 -20 -10 -26 -13l-27 -8c-9 -4 -21 -9 -31 -13l-54 -16c-7 -3 -16 -6 -23 -9l-64 -19c-14 -7 -35 -16 -49 -22l-40 13l-20 24c-9 8 -17 17 -26 25l-13 17c-20 7 -43 14 -63 21l-7 4l-36 8c-15 -5 -34 -12 -49 -17l-39 -8c-3 -1 -7 -3 -9 -4l-92 -29
c-41 -14 -85 -31 -124 -45l-32 -9c-8 -4 -27 -12 -36 -16l-17 -4c-3 -1 -9 -3 -12 -5l-7 8l-8 29l-13 43l-47 39l-56 22c-32 3 -64 6 -97 9l-20 4l-49 9l-52 -13c-29 -13 -61 -29 -89 -42l-64 -21c-9 -5 -19 -11 -28 -16l-23 -5c-6 -5 -14 -11 -21 -16
c-15 -3 -34 -8 -48 -12c-5 1 -11 4 -16 5l-13 45c-2 3 -6 9 -10 12l-9 16l-28 24l-71 39h-90c-8 -1 -17 -3 -25 -4h-17l-51 -4c-7 -2 -18 -6 -26 -8l-30 -5c-11 -4 -25 -8 -35 -12l-26 -5c-4 -1 -15 -7 -19 -8l-16 -4c-4 -1 -7 -3 -10 -4l-58 -18l-38 -24
c-3 -3 -14 -9 -14 -8c-6 -4 -13 -9 -18 -13l-28 -15c-9 -7 -19 -15 -27 -22l-14 -5l-29 -25l-38 -20c-12 -6 -25 -13 -36 -20l-10 -5c-1 -1 -3 -2 -5 -3l-10 -6c-2 -2 -7 -6 -9 -7l-70 -42c-3 -3 -6 -6 -9 -8l-27 -13l-83 -59l-10 -40c56 34 114 68 169 102l14 5l45 25
l28 12l40 33l36 25c7 5 16 11 22 16l30 15c5 4 13 8 18 12c14 8 31 17 45 25l65 12c12 3 56 20 67 24l29 4c11 2 24 5 35 8l21 4c25 5 54 11 79 17c38 1 80 3 117 4c22 -8 44 -17 66 -25c13 -14 28 -28 42 -41c0 -8 1 -16 0 -24l-16 -16l-13 -9c-4 -2 -7 -6 -10 -8
c-8 -4 -26 -12 -36 -17l-27 -8c-6 -2 -15 -6 -21 -8l-43 29c-12 5 -28 12 -40 17l-8 4l-37 5l-40 -9c-9 -5 -18 -11 -27 -16l-20 -9l-78 -54l-34 -55c-8 -17 -16 -34 -23 -51l-6 -11l-7 -38l10 -21c5 -13 12 -25 17 -37l16 -52l14 -20l47 -12c31 7 63 14 93 21l68 8l41 25
l64 54c11 13 22 25 32 38l25 29l32 40c4 11 11 24 15 35l19 37c6 15 13 31 20 46c18 15 35 30 52 45l34 10c13 8 27 17 40 25c28 12 57 24 86 36c21 7 46 14 68 21l22 -17c10 2 22 5 32 8h76l31 -8c10 -2 22 -3 33 -4c9 -3 21 -6 31 -8l76 -41c5 -11 10 -24 15 -35l-4 -22
c-17 -10 -36 -21 -52 -30h-32l-10 22l-19 25l-61 11l-58 -20l-43 -25c-9 -13 -22 -29 -33 -42l-8 -8l-17 -22c-3 -6 -8 -14 -13 -21l-4 -8c-3 -7 -5 -14 -8 -20l-7 -9l-2 -11l-7 -22l-4 -42l13 -35l23 -27l60 -22h53c9 2 18 6 27 8l34 9l49 17l35 29l17 21l18 20
c2 2 6 8 7 10l16 15c6 14 13 29 19 42l12 25c3 10 8 20 11 29c10 21 21 43 32 63c19 11 39 23 58 33c19 8 43 17 63 25l26 7c12 5 28 13 40 18l32 8c5 2 15 6 21 9l17 3c17 5 36 11 53 17h21l14 4h34l50 -13h25c8 -5 17 -11 25 -16c10 -12 28 -34 39 -45
c-6 -10 -13 -20 -19 -29c-9 -5 -22 -11 -31 -16c-12 2 -24 5 -34 8l-21 25l-29 26h-59l-36 -9c-8 -6 -16 -12 -23 -17l-26 -7l-58 -51c-1 -2 -5 -7 -6 -9l-32 -37c-5 -13 -10 -30 -16 -43l-19 -36l-15 -84l6 -42z" />
    <glyph glyph-name="_338" horiz-adv-x="1474" 
d="M39 64l1 -55l71 -9h50l79 46l12 47l-12 16h-22l-24 -41c-10 -7 -23 -18 -33 -25h-40l-20 29l40 44l52 42l45 46l33 15l26 15l164 67h38l74 -33c6 -4 16 -7 21 -10l102 -57l47 -17l89 -43l237 -17l194 22l139 50l110 87l27 98l-33 67l-105 37l-100 -29l-52 -58l-7 -25
l37 -23h68l6 23l-35 28c1 5 3 12 4 17c6 4 16 12 22 17h108l43 -59l-1 -30l-26 -48l-66 -54l-162 -58h-209l-188 58l-147 83l-92 42h-80l-129 -46l-87 -46l-28 -9l-105 -82c-22 -23 -45 -46 -67 -68z" />
    <glyph glyph-name="apple" unicode="&#xf8ff;" horiz-adv-x="1019" 
d="M576 48l15 -12s-3 -4 -3 -5c-2 0 -6 0 -7 -1c-7 1 -7 7 -8 13c0 2 1 3 3 5zM171 377l778 -346c0 7 -1 9 -8 9l-7 -2l-5 -2c0 -5 1 -7 1 -8c1 0 2 -4 2 -4c3 0 5 -1 6 -2c3 0 6 1 10 2v4l-779 347c-6 -2 -6 -5 -9 -8c0 -2 1 -3 1 -4c0 0 0 -2 1 -4c9 0 12 0 15 2
c2 10 1 14 -6 16zM251 30c0 10 0 27 11 37c5 -1 10 -3 13 -5c4 -9 -6 -22 -14 -29c-1 -1 -2 -2 -3 -4c-2 0 -5 0 -7 1zM908 43h-3c-7 -2 -16 -4 -20 1c-2 1 -3 4 -4 5c-2 2 -2 4 -3 8c0 3 2 10 5 12c2 5 6 8 11 11c1 1 3 2 4 3c0 7 1 8 -4 10c-2 3 -7 2 -11 1l-6 -1
c-13 -2 -15 -10 -17 -20c-2 -7 -4 -13 -10 -17c-1 -12 3 -16 6 -23c9 -4 43 -9 54 -4v10c0 2 -1 1 -2 4zM794 89c-3 0 -7 -1 -11 -1c-7 0 -14 0 -18 -3c-7 0 -11 -2 -14 -4c-1 -7 4 -10 9 -7c12 -1 16 -13 17 -23c0 -2 -1 -5 -2 -7c0 0 4 -1 5 -2c1 -2 -1 -9 -3 -14l1 -7
c4 0 10 2 12 3c2 2 3 4 6 5c3 19 2 30 0 43c12 8 41 20 46 6l11 15c-8 1 -16 2 -24 2c-10 0 -21 -1 -35 -6zM184 88v-1c12 0 15 4 18 12l-1 4l-17 2c-8 -5 -41 -5 -54 -8c-3 -5 -1 -8 3 -13c2 -4 1 -8 0 -12c0 -3 0 -6 1 -9c-3 -2 -9 -5 -14 -7c1 -6 8 -8 12 -8
c1 -6 -1 -15 -2 -20c4 -2 7 -1 8 0c3 3 5 9 7 14c0 2 2 7 3 9l45 6l1 11c-7 -2 -16 -2 -26 -2l-15 -1c-1 1 -4 3 -6 3c1 5 3 14 5 17c7 3 28 11 32 3zM521 89c-6 -3 -21 -7 -32 -7c-7 0 -15 2 -17 6c-8 0 -9 -2 -12 -4l-4 -4c-7 -2 -17 -2 -22 -2c-1 -2 -1 -4 -1 -4
c-2 -3 -3 -6 -1 -8h9c5 1 11 1 14 -2c5 -1 17 -36 11 -43c-1 -6 0 -5 1 -7c6 -1 9 0 14 1c0 2 0 5 1 8l-2 33c3 15 18 16 32 16c8 0 14 0 20 2c0 3 2 5 3 5c0 4 -1 5 -3 9c-4 1 -8 1 -11 1zM576 77v-1c1 2 1 3 4 4c1 1 3 3 8 4c3 1 4 1 5 -3c10 0 13 1 18 4
c-1 11 -10 15 -23 15l-5 -2c-1 0 -2 -1 -5 -2c-6 -2 -9 -5 -14 -9l-9 -7l-1 -6c-2 -6 -3 -11 -1 -13c0 -5 8 -10 14 -13c-1 0 -2 -1 -6 -2l2 -30c19 -1 27 4 37 11l6 3c3 18 -11 25 -23 31l-10 5c1 4 2 8 3 11zM409 46l3 6l-3 31c-2 1 -11 2 -13 -1c-4 -6 0 -12 3 -16l2 -5
c0 -2 -3 -7 -6 -10c-15 1 -47 26 -52 35c-20 0 -19 -12 -17 -23c1 -9 2 -20 -6 -25c1 -8 2 -9 2 -10l10 -2c1 3 2 4 4 8c2 3 3 6 2 9l1 6c1 3 1 6 4 8c5 -1 10 -5 13 -8l4 -4h10c10 -3 17 -12 23 -21c7 0 11 0 17 4v13c-1 1 -2 3 -1 5zM725 35l114 587c1 2 2 4 2 7
c2 3 4 7 3 9l2 11c2 4 2 12 2 15c0 1 0 4 2 6c1 0 3 1 5 1c14 -3 22 -23 26 -38c2 -5 3 -10 3 -11c1 -2 2 -4 4 -6c3 -3 4 -7 6 -8c0 -4 1 -6 0 -9c0 -3 -2 -5 1 -8c-12 4 -28 3 -43 2h-12c0 1 -2 3 -3 3c0 3 0 9 1 12l-113 -573c-12 -6 -23 1 -34 8c1 3 2 5 3 6l4 4
c4 0 7 -1 9 -2c4 -1 8 -2 12 -1c2 1 6 3 7 3c1 1 2 1 7 4c0 11 -5 12 -13 13c-3 1 -7 2 -10 6l12 10l24 2c1 5 1 8 1 10c-1 0 -6 1 -9 2c-2 1 -5 1 -5 1c-3 -1 -7 -1 -10 -1c-2 0 -4 -1 -5 -1c-5 -1 -9 -3 -12 -6c-3 -2 -7 -4 -11 -5c-1 -2 -2 -4 -2 -5c-1 -3 -3 -6 -3 -17
l-19 -16c0 -4 -1 -8 -3 -11c2 -2 5 -3 6 -5c7 -5 10 -10 20 -12c2 0 6 1 8 1h6h4c1 -1 5 -2 7 -1c5 1 9 3 13 5c1 1 4 2 8 3c0 1 1 3 1 4c1 2 1 5 5 9c-8 0 -10 -2 -14 -4c-2 -1 -4 -3 -7 -4zM283 78l-3 2l-7 6c-9 0 -10 -1 -13 -6c-6 -3 -14 -5 -21 -6c-8 0 -16 -1 -23 -6
l-3 -10l10 -1c2 -1 6 -1 13 0c1 -4 -1 -8 -1 -13c-1 -7 -1 -14 1 -20c1 -3 12 -11 19 -8c16 3 33 28 37 47c-1 2 -3 5 -3 6c-2 4 -3 6 -6 9zM437 643c4 0 7 -1 10 -1c2 0 4 -1 5 -1c0 0 8 -5 10 -6s3 -1 4 -1c-1 -5 -4 -8 -7 -12c-1 -1 -2 -3 -4 -6c-4 -6 -6 -13 -7 -20
c-1 -1 -2 -3 -2 -4c-2 -3 0 -6 -1 -9c1 -2 1 -4 0 -5l-3 -17c7 -32 10 -43 32 -60l7 -6c2 -3 4 -6 9 -8c5 -1 10 -1 17 1c3 1 7 1 12 1c11 5 15 14 22 23l8 12c-1 -1 1 2 4 5c3 4 8 10 6 15c0 4 -1 7 -3 11c1 1 0 3 0 6l-10 1c-13 2 -18 4 -32 -4c-2 -12 6 -36 12 -42
c0 -2 -2 -5 -4 -7l-4 -4l-7 -3c-29 4 -53 36 -52 58c1 3 0 6 0 10c-1 6 -2 12 0 15c11 22 23 36 45 48l1 11c0 2 2 4 2 7c-3 1 -4 3 -4 5l-11 5c-3 1 -9 3 -8 3c-4 2 -8 2 -11 2c-5 0 -8 -1 -12 5c-3 2 -3 5 -2 7s2 3 5 6h4c2 4 2 5 3 6c4 7 43 21 47 12c8 0 9 1 13 5
c-2 6 -3 8 -5 11c-2 1 -4 3 -6 6c-4 0 -6 1 -9 2c-9 1 -17 2 -28 -2c-5 -1 -12 -5 -15 -7l-16 -8c-1 -4 -5 -9 -11 -14c-4 -5 -8 -8 -13 -16c-7 -13 3 -30 9 -36zM641 412h-1c-3 -4 -12 -7 -18 -8h-10c-1 -1 -4 -3 -6 -6c-5 -2 -10 -3 -15 -4l-26 -11c-3 -2 -6 -5 -8 -8
c-2 -2 -3 -4 -4 -6c-2 -11 0 -27 1 -38c1 -2 1 -3 1 -5c2 -7 -1 -15 -2 -22l-2 -18c2 -7 2 -15 2 -22l1 -17c1 -5 0 -9 0 -14c-2 -4 -2 -9 -2 -12l-2 -12c-1 -1 -13 -7 -21 -11c-2 -2 -7 -5 -7 -5c-2 -7 0 -9 3 -15c-1 0 9 -1 15 -2c5 -1 13 -2 17 0c13 1 24 25 29 37l3 14
v4l9 34l-3 13l-5 11c0 2 0 5 1 9c1 3 0 6 0 9c-1 1 -4 1 -4 1c-1 1 -3 6 -3 6l3 19c1 2 -1 5 -1 8c-2 2 -2 7 -3 10l10 14c2 2 4 3 6 4c3 1 5 3 5 4c10 11 20 17 29 17c6 0 14 -3 22 -8c0 -1 4 -3 5 -3c4 -2 8 -1 8 -7c10 -17 -14 -51 -27 -56c0 -1 -6 -3 -12 -5h-14
c-2 -2 -6 -4 -9 -5c-1 -3 -5 -7 -5 -7c0 -5 2 -6 6 -8c1 0 2 -1 3 -2c3 0 6 2 9 4h6l12 1c4 2 6 5 9 7l11 7c10 5 16 10 19 22c1 2 4 4 7 6c6 8 8 14 10 22c5 30 -21 55 -52 54zM755 736h-1c-1 -1 -1 -2 -2 -3c-4 -4 -7 -7 -11 -9c-8 -3 -20 0 -30 2h-4c-10 2 -33 3 -53 3
l-32 -1c-2 -1 -4 -1 -7 0c-10 -2 -20 -9 -28 -15l-21 -12l-4 -12c-3 -8 -6 -16 -4 -23c1 -3 13 -8 21 -5c5 1 8 2 11 5c1 0 3 2 5 2c3 9 3 23 -2 28c1 6 4 7 8 7l6 2l5 3l12 5c3 1 28 -7 35 -10c0 -2 0 -3 1 -4c0 -2 0 -6 -1 -8c0 -1 -7 -11 -7 -11c2 -8 2 -17 1 -26
c-1 -3 -1 -6 -3 -10c-1 -3 -2 -6 -2 -7l5 -13l1 -7c1 -2 -1 -6 -1 -8c-1 -1 -2 -3 -1 -4c0 -2 -1 -4 0 -7v-32c-1 -5 -1 -13 -2 -20c-2 -12 -5 -23 -8 -27c-3 -6 -9 -7 -16 -8c-4 -1 -10 -2 -11 -2l-27 -12c-2 -3 -4 -6 -3 -9c3 -8 19 -9 28 -6l10 3c13 4 30 9 42 5l4 -4
c1 -2 0 -2 4 -4c12 -4 23 3 33 11l3 13c-2 2 -5 5 -5 11c-7 0 -11 -1 -13 -3c-1 -1 -4 -3 -5 -3c-7 -1 -12 1 -16 3c-2 1 -4 1 -6 2c0 0 1 3 0 5c0 8 -1 20 4 31l15 43c1 3 1 8 0 13c-2 4 -2 8 -1 12c0 3 2 4 3 5l-1 8c1 3 2 5 3 11c0 5 -2 8 -4 10s-3 7 -4 9
c0 0 9 22 10 23c2 2 4 4 6 5c3 2 5 3 7 7h4c4 1 10 1 13 0c1 0 2 -2 4 -2c3 -3 7 -6 15 -4c12 4 20 9 28 16l16 13c1 13 -17 15 -27 15zM957 322c-7 5 -17 7 -28 7c-23 0 -49 -8 -60 -20c-6 -7 -18 -25 -13 -36c-1 -5 1 -8 4 -13c4 -2 6 -2 10 -2l10 8c3 5 7 15 6 20
c4 11 28 23 45 20l10 -7c2 -1 4 -3 6 -8c0 -7 0 -13 -5 -21c-16 -36 -70 -73 -109 -84c-10 -4 -23 -6 -34 -6c-9 0 -17 1 -24 4l-5 5c-1 2 -3 2 -3 4c-4 2 -8 5 -10 9c-1 2 0 5 1 7c0 2 -2 4 -4 4c1 0 -3 2 -3 3c-2 7 -1 28 4 37l15 14c3 0 6 1 7 2c1 4 1 7 3 10
c5 9 28 22 36 27l-1 17c-20 0 -28 3 -43 9c0 2 0 6 1 9c-1 1 -1 5 2 8c0 2 2 4 2 5c-1 0 2 4 2 5s2 2 3 4c3 1 5 3 5 5c4 3 6 8 7 12l9 10c5 -1 12 -5 16 -8c1 -1 0 -3 0 -7l4 -5l12 -1c3 17 -4 35 -17 39c-5 4 -46 -2 -55 -7c-10 -7 -44 -53 -37 -75c2 -5 14 -14 21 -18
c-5 -14 -16 -32 -28 -45c-1 -1 -5 -4 -4 -4c-7 -15 -5 -55 1 -68c1 0 3 -2 6 -5c3 -2 5 -6 8 -10l9 -12c9 -6 21 -9 33 -9c18 0 37 6 53 14c4 2 7 2 11 3l14 4l21 13c0 2 1 3 2 4l10 3l5 5c16 10 26 17 39 32c2 1 3 2 5 3l9 8c0 2 1 4 1 5c3 2 6 7 7 11c8 10 17 23 17 36
c-1 11 -3 22 -9 26zM760 460c19 0 34 14 42 31c0 2 0 5 1 7c3 3 5 9 8 14l6 11c0 1 -1 4 0 7c0 4 -1 9 1 14l3 4l9 17c7 4 23 9 35 9c8 0 15 -1 15 -8c9 1 11 2 15 5l3 9l3 -13l4 -15l-1 -10c0 -3 -1 -8 -1 -11c0 -5 1 -10 3 -15l3 -12c-5 -3 -14 -6 -19 -8
c-7 -2 -17 -4 -24 -9c-1 -6 1 -10 4 -13c8 -6 21 -11 34 -11l20 2c4 1 9 2 14 4l13 3c10 0 13 2 17 5c1 1 2 2 4 3c1 5 2 6 4 9l4 7c0 2 0 4 -1 5s-2 1 -1 4c-1 2 -1 2 -4 5c-4 0 -17 -8 -23 -11c-3 2 -4 8 -5 12l-2 7l-3 10c-5 11 -11 26 -10 40h-5c1 6 0 16 -2 20v19
s-3 2 -4 6c-3 4 -3 8 -3 11c-1 4 -1 7 -3 10c0 4 -2 7 -5 10l-5 10l-3 14l-6 20c-1 3 -5 4 -10 6l1 4c-1 3 -8 10 -12 13c-1 0 -6 2 -6 2c-2 0 -4 1 -5 3c-20 -2 -24 -15 -27 -30l-6 -22c-6 -11 -11 -36 -13 -49c-1 -2 -2 -5 -2 -8c-1 -1 -1 -4 -1 -7c0 -4 1 -11 -1 -12
l-7 -20l-7 -22c-3 -7 -5 -16 -8 -25c-3 -11 -5 -22 -11 -28c-4 -7 -10 -9 -16 -10s-9 -2 -12 -4c-1 -1 -3 -5 -3 -6c-1 -6 3 -7 5 -9zM207 464h8c4 0 8 4 10 6l6 5c1 1 5 1 6 1c2 -1 4 -2 6 -1s5 2 5 3l4 2c4 9 6 23 6 31c0 2 0 3 -3 7c0 2 1 6 4 10c3 7 5 16 5 23
c-2 8 -2 15 0 22c1 6 3 13 7 21c2 4 3 10 4 15c0 7 2 15 4 21l1 28l8 7c0 1 1 3 3 7l3 15c9 11 51 32 66 17c4 -1 5 -4 6 -6c1 0 2 -5 1 -6c-3 -19 -14 -43 -26 -51c-6 -2 -15 -4 -20 -5c-5 0 -12 -1 -16 -3s-6 -4 -8 -6c-1 -2 -4 -4 -6 -6c-1 -16 11 -19 23 -20
c3 1 8 1 10 1c17 -5 43 -19 49 -35c1 -5 -1 -12 -2 -17c1 -4 0 -12 -3 -19c-3 -8 -12 -19 -19 -26c-12 1 -18 6 -27 12c-5 3 -24 5 -33 5c-2 -2 -4 -3 -6 -4c-3 -7 -4 -15 -2 -19c0 -11 11 -20 20 -25l11 -6l21 3c1 2 1 3 3 4c16 9 38 36 50 53c-2 0 -3 0 -5 3
c10 3 11 11 13 20c0 4 0 10 3 15c9 21 -22 60 -42 67c2 3 6 8 8 10c1 1 4 4 5 7c5 6 7 12 9 18c2 2 4 8 5 11c0 1 2 3 2 4c4 5 7 11 7 15c3 30 -16 50 -48 50c-6 -5 -14 -5 -21 -5c-6 0 -12 0 -18 -2l-12 -5c-7 -3 -31 2 -34 3c-2 0 -4 -1 -5 -1h-4c-1 -5 -4 -10 -8 -16
l2 -65v-17c0 -2 -1 -5 0 -6c0 -1 0 -4 -2 -7c0 1 0 -4 1 -6c-1 -3 0 -5 0 -7c-1 -2 -1 -5 -2 -6l-1 -5c4 -13 0 -34 -3 -50c0 -2 1 -8 2 -12l-2 -33c-1 -4 -1 -8 -6 -11c0 0 -3 -1 -4 -2c-7 1 -13 6 -18 10c-8 5 -14 11 -26 11c-2 -3 -5 -5 -9 -8l-6 -4c0 -1 -2 -5 -3 -6
s-1 -2 -3 -4c-5 -26 22 -36 46 -30zM485 319l2 3c4 2 6 6 9 9c1 3 3 8 5 12c1 1 1 3 3 5c1 3 6 5 9 8l6 5s0 2 2 4c1 3 1 4 8 7c1 1 1 2 2 4c0 1 -1 2 0 4c5 1 5 1 7 2l1 7c1 1 2 4 2 5c6 9 10 15 7 26c-5 3 -8 3 -16 3c-1 -1 -2 -3 -5 -4c-7 -8 -19 -19 -20 -21
c-6 -10 -15 -23 -25 -30h-4l-9 -9l-8 -8c1 0 3 -1 4 -3c0 0 -5 -2 -6 -3l-7 -3c-13 2 -34 26 -35 34v10c0 4 0 10 -2 12c-1 8 -8 10 -18 10c-6 0 -15 -2 -22 -3c-9 -1 -18 -2 -23 -2c-8 2 -22 3 -33 2c-2 0 -2 -1 -4 -1h-7l-16 2l-12 2c-3 0 -7 -1 -10 -1c-2 0 -4 -1 -5 -1
l-28 6l-14 2c-5 2 -42 0 -47 -2c-6 0 -11 -3 -16 -7c-2 -11 5 -11 14 -11c3 0 6 -1 10 -1c3 -1 6 0 11 1c0 -3 1 -3 3 -3c4 1 12 3 16 3c4 -1 8 -3 13 -5c9 -3 22 -6 29 -6c1 -3 0 -6 -1 -10c-1 -5 -2 -11 -1 -17c2 -16 3 -37 2 -57l1 -39c1 -3 -1 -12 -2 -21l-6 -26
c-6 -11 -18 -13 -30 -14c-4 -1 -9 -2 -12 -2c-2 -1 -6 -1 -9 -2c-10 -1 -18 -2 -13 -13c0 -6 3 -8 6 -9c2 0 4 -2 5 -4c22 0 60 12 76 24c6 0 10 -2 17 -3l33 -4c14 0 28 3 41 10c1 5 1 8 1 10l-4 5c-11 -2 -22 0 -32 2c-2 0 -3 1 -4 1l-21 -1c-2 0 -5 -1 -7 -1
c-3 -1 -6 -1 -10 1c-2 0 -6 1 -9 1l-1 5c2 13 8 26 12 38l10 32c2 1 1 4 2 6c0 3 -1 5 1 7l8 22l5 14c1 1 2 3 2 5c0 1 1 3 6 7c4 4 3 7 4 11c1 5 2 10 9 15c10 5 26 5 38 5h5c1 -2 2 -3 4 -4s2 -3 3 -4c1 -2 -3 -9 -3 -9s3 -7 3 -8c2 -3 3 -3 6 -3h5c1 -1 1 -2 3 -7
c2 -2 4 -2 6 -2l18 -28c2 -4 -1 -12 -3 -18c-3 -7 -6 -15 -6 -22c2 -3 4 -12 2 -17l-1 -6c0 -2 1 -7 1 -10l3 -14c-3 -8 -6 -15 -10 -21c-2 -3 -5 -7 -7 -10c1 -1 5 -4 7 -5c2 -2 5 -5 6 -7l27 7c18 13 24 43 30 71c4 18 8 35 14 49c0 1 -1 5 -1 6z" />
    <glyph glyph-name="_267" horiz-adv-x="2066" 
d="M1866 716l-112 17l2 15c31 8 64 17 95 25h83c12 -6 26 -10 38 -16l-4 -24c-34 -5 -68 -11 -102 -17zM1124 466h-166l5 33c20 16 41 34 59 49c28 5 58 11 86 16c29 -5 59 -11 87 -16c10 -9 19 -22 28 -32l-28 -24c-23 -8 -48 -18 -71 -26zM451 799l-23 8l4 24
c20 17 40 33 59 50l83 34c18 11 35 22 53 33c20 6 59 18 79 25h158l63 -17h25l-3 -15c-39 -20 -80 -40 -118 -59c-60 -19 -125 -39 -185 -58c-64 -8 -130 -17 -195 -25zM1818 1198l-113 16c-32 11 -63 23 -94 34l4 24c41 19 122 56 163 74l33 8c29 9 59 17 88 25
c53 9 111 17 162 25c33 -8 64 -16 96 -25c13 -16 28 -33 41 -48c6 -23 14 -45 21 -67c-26 -16 -54 -33 -81 -50c-31 -5 -65 -11 -96 -16h-224zM1164 42l2 -42h60l6 35c-17 20 -46 54 -63 74l8 49c40 21 81 45 120 66l44 17c5 2 14 7 18 8l44 9l6 35l-48 57
c-19 46 -39 96 -58 142l6 32c54 40 109 83 162 124l39 18c15 8 29 16 44 24c20 10 44 23 64 33l85 -33h183l111 16l31 27l-27 40l-69 34l-152 -8c-28 -8 -60 -17 -87 -25h-49l-91 50c-25 10 -51 22 -76 33l-110 50c-12 6 -27 11 -39 17l-29 17c-23 8 -117 41 -141 49
c0 4 -4 11 -5 15l48 42l45 17l85 58l17 9c21 10 45 22 65 32c20 8 43 18 62 26l243 -42h216l160 16l128 58l24 42l3 17l-23 68l-39 49l-71 34h-166c-40 -11 -82 -22 -122 -33l-35 -9c-72 -36 -173 -88 -245 -125c-49 13 -103 29 -152 42l-131 50c-60 11 -126 22 -187 33
l-102 25h-275l-212 -59l-148 -91l-111 -116l34 -44l6 35l62 73c9 14 17 29 26 42c43 25 86 51 129 76l78 16c7 3 17 6 25 8c40 9 82 17 122 25h107c41 -6 106 -18 146 -25l76 -33c26 -8 54 -17 80 -25l23 -8l55 -17l150 -50c12 -2 25 -5 38 -8l-5 -32
c-94 -57 -194 -117 -289 -175l-167 34l-135 -8l-104 -26l-202 -100l-111 -82l-15 -26l21 -25h108c11 2 24 5 35 8h33l121 25c8 2 18 6 25 8l62 17l172 67l72 41c38 -11 80 -22 118 -33c12 -5 27 -12 39 -17c30 -11 63 -22 94 -33l45 -25c48 -19 99 -39 148 -58l38 -17
c16 -5 32 -11 47 -16l6 -7l-84 -59c-54 -40 -110 -84 -164 -125l-91 42h-150l-61 -17l-68 -57l-11 -60l37 -24h159l25 8l36 8c20 8 42 17 61 25l24 -58l37 -75c10 -8 54 -41 66 -50l-4 -24l-99 -33l-120 -75l-9 -51c12 -22 25 -44 37 -66z" />
    <glyph glyph-name="_8" horiz-adv-x="958" 
d="M72 76l16 -52l36 -32l120 16c18 11 38 23 56 34l55 -17l81 33l20 67c-5 22 -10 45 -14 67l6 32l128 109l42 8l147 33c31 21 64 45 95 67l28 16l88 76l41 40l10 60l-21 75c-11 8 -25 17 -36 25l-27 33l-152 -8l-66 -34c-47 -38 -97 -78 -144 -116l-77 -9l-40 -34
c6 -11 14 -22 20 -32l-18 -150c4 -14 7 -28 10 -41c-14 -15 -28 -34 -42 -49c-8 -7 -21 -19 -28 -25l-44 32l-47 18l-106 -25c-31 -22 -63 -45 -94 -67l-54 -25l-14 -77c8 -15 17 -33 25 -48z" />
    <glyph glyph-name="_76" horiz-adv-x="942" 
d="M858 576l-6 7l3 14l6 -7zM673 566l-13 8l1 7h15c2 -1 5 -5 7 -7zM436 58l47 -58h68c32 21 68 45 102 66l43 9c8 4 27 13 36 17l31 -9h50l55 25l33 50c8 25 16 51 23 76l23 41c-21 13 -45 29 -65 43c-6 15 -13 32 -19 48l4 25l37 8c-7 6 -16 12 -23 17l-6 18l-6 8l5 24
l11 25l-16 52l-6 6l3 15l27 9l6 35c-14 11 -30 22 -44 33l4 23l21 27c-3 8 -9 17 -12 25l-16 58l-65 50h-25l-14 16l-6 59h-18c-9 -20 -17 -39 -26 -58h-41l-1 41h-18c-6 -8 -14 -18 -21 -25h-15l-14 17c-21 5 -43 11 -64 17l-47 16l-147 -25c-7 -29 -17 -62 -24 -91
l-20 -17h-23l-40 -33l-9 -51c8 -10 26 -31 34 -42v-42c10 -2 21 -5 32 -8l-7 -40l-9 -8l-21 15c-6 3 -17 7 -24 9l-16 9c-9 -6 -20 -12 -28 -17h-42l5 -25c9 -3 21 -6 31 -8l-6 -34c12 -6 27 -11 39 -17l6 -26c8 -10 16 -22 24 -32l12 -34c6 -6 15 -11 21 -16
c9 -11 19 -23 29 -33l11 -76l30 -66l61 -123c13 -6 28 -12 40 -18z" />
    <glyph glyph-name="_90" horiz-adv-x="892" 
d="M478 18l-79 17c-5 4 -10 11 -15 16l108 42c44 32 87 64 132 97l-10 -57c5 -6 15 -19 21 -25l-36 -57c-15 -10 -31 -22 -47 -33h-74zM340 42l28 -25l66 -17h115l56 26l29 24l51 101c-3 -1 -15 -7 -18 -8c-2 7 -4 15 -4 23c5 5 13 11 18 16l5 -18c10 27 22 59 33 86l22 33
c6 20 13 40 19 58l12 17l7 41l20 17l3 17l10 16l13 33l27 9l18 58c1 14 0 28 0 42l6 33l-1 42h-32c-11 5 -21 11 -31 17c-6 11 -12 21 -18 33l28 24l5 26l-21 25c-19 2 -38 5 -57 8l5 24l38 33c-1 5 -3 12 -5 17v43c-4 5 -10 11 -14 16l-12 34l-56 50
c-31 -18 -65 -40 -96 -59h-42c-9 -24 -19 -49 -29 -74l-21 16c-15 -7 -39 -18 -54 -25l-37 25c-14 -3 -29 -6 -42 -8l-25 16l-38 -33l-28 -17l-4 -18l7 -8l-3 -15h-7l-20 25h-26l-9 -50l-20 -25l-3 -17l-20 -16l-5 -26c1 -4 4 -12 6 -16l-24 -43c4 -4 10 -12 14 -16
c4 -8 7 -16 11 -24h-32l-20 -17l-8 -43c13 -21 26 -44 38 -66l-21 -124c3 -11 7 -23 10 -33l7 -60c9 -22 18 -44 29 -65l5 -26l36 -74l66 -50c13 -2 26 -6 40 -8z" />
    <glyph glyph-name="_184" horiz-adv-x="483" 
d="M103 66l82 -49l57 -17c17 6 35 11 52 17h42c23 19 65 56 88 75l29 16l16 93l-19 42l-11 24c-14 2 -27 6 -41 9l-19 24l-63 34h-75l-90 -41l-57 -85c-4 -10 -9 -22 -14 -33l-12 -26c8 -13 17 -28 26 -40z" />
    <glyph glyph-name="asterisk" unicode="*" horiz-adv-x="483" 
d="M202 344l9 -3l-14 -106l36 28l13 75c3 5 15 20 11 15h12c10 -7 24 -16 35 -22l3 -22h35l4 24l-33 36c-9 6 -22 14 -31 19c-3 3 -12 14 -14 17l2 13l92 68l5 30c-33 -25 -70 -52 -103 -77l17 97h-31c-9 -32 -19 -67 -27 -99h-17c-7 2 -14 4 -19 6l-45 45h-28l-12 -10
l19 -40c19 -12 40 -27 58 -39l-3 -16l-49 -35l-17 -24l16 -13c18 10 38 22 56 33h20z" />
    <glyph glyph-name="inkblot1" horiz-adv-x="332" 
d="M10 -195l-18 -3l-24 -29l14 -21l19 3zM159 -459l10 -22l40 26l3 25l-26 5zM-59 -264h-43l-21 -42l44 -7l14 13zM111 -259l-17 -23l-28 -21l-12 -45l22 -17c10 -6 20 -13 30 -19l5 -34l68 10l18 25c-5 3 -14 10 -21 13l9 17l24 12l48 43c-2 17 -3 35 -4 51l13 54l-26 4
l-51 -74l-7 13l-52 -4z" />
    <glyph glyph-name="inkblot2" horiz-adv-x="315" 
d="M635 607l-14 16l-2 -19zM854 703l-13 -4l-2 -12l15 4v12zM576 379l1 -12l16 2l4 14s-24 -4 -21 -4zM753 626l-18 -7l7 -18l16 14zM822 452l-1 -9h21l6 19zM597 516h-30l-5 -19l21 -2zM609 311l14 -5l21 27l-12 11l-12 -13zM472 451l-19 -18l-2 -21l33 9c0 4 4 12 5 17
l7 14zM523 436l-15 -20l8 -24l35 13l1 21l6 18l-20 6zM427 336l-15 -8l-8 -1c-3 -8 -8 -18 -12 -25l-17 -29l47 -5l59 35l14 13l11 17l-12 3l-3 12l-18 -7l-3 5c-2 0 -5 -1 -7 -1l-5 6zM266 358l-65 -18l-53 -24l-19 -50l55 -47l-3 -31l75 20l5 25l38 45l-16 27l60 24v25
c-15 -5 -33 -10 -49 -14l-5 17l17 16l-10 16z" />
    <glyph glyph-name="inkblot3" horiz-adv-x="315" 
d="M393 879l-96 -73l-22 -36l15 -33l84 -12l31 15l33 -20l23 15l-6 22l65 39l105 149l-38 25l-34 22l-20 -15l-23 3h-13l-14 20l-37 -8l-34 -47z" />
    <glyph glyph-name="inkblot4" horiz-adv-x="315" 
d="M963 393l-22 -3l1 -24zM462 351l15 -12l32 10l-11 15zM352 559l-13 -21l7 -15l34 24l-1 30zM588 402l-2 -41l42 22l-7 27zM495 232l16 -28h27l5 20l-7 34zM783 264l18 -23l36 10l8 31l-21 21zM-9 88l-10 -44l25 6c7 5 14 11 21 16l22 2l4 12l-14 11l10 36zM90 164l22 -23
l57 35l12 38l-41 -5l-22 -36zM252 181l-7 -37l56 -8l30 53l-38 -3zM275 247l11 -33l40 7l44 70l-47 6z" />
    <glyph glyph-name="inkblot5" horiz-adv-x="315" 
d="M-54 -40l18 -71l41 -211l161 -89c54 -5 109 -11 163 -17l42 -70l71 -61l124 -35l120 52l180 88l76 -17l111 87l31 152c-37 36 -74 75 -112 112l-15 176l45 167l-200 126l-90 -5l1 -24l-7 -39c-8 -2 -17 -7 -25 -10l-23 29l1 89l-67 14l-8 -44l-40 -59l-5 -29l17 -43
c-4 -10 -10 -22 -15 -32l-23 28l-19 5l-31 34l-16 -30l1 -48l-36 -14l-117 27l-151 -9l-26 -63l-23 -87l-79 -28z" />
    <glyph glyph-name="section" unicode="&#xa7;" horiz-adv-x="475" 
d="M275 30l-22 14l-8 54l-5 11l-4 9l-56 147l-4 11l-7 15l-4 48l16 54l25 20l8 6l17 4l18 4h25l30 -62l43 -128l9 -21l3 -84l-9 -28l-20 -30l-26 -36l-6 -4l-5 -4h-18zM-95 -173l46 -41l73 -20l80 16l44 32l55 57l21 51l11 20l-1 17l11 23l71 5l69 56l35 53l15 20l3 19l5 39
l-3 91l-15 41l-11 46l-24 38l-52 174l-23 52l6 31l6 11l6 11l18 16l20 16l30 13l32 13l27 10l45 -16l26 -23l15 -21l-1 -25l-9 -18l-19 -26l-2 -34l18 -28l43 9l25 22l7 116l-79 63l-49 18h-78l-6 -7l-9 -6l-56 -25l-79 -68l-25 -36l-2 -50l7 -20l7 -16l11 -40l8 -21
l-50 -18l-84 -43l-31 -50l-14 -100l7 -18l4 -17l28 -93l11 -23l19 -39l10 -40l10 -43l-2 -44l-5 -10l-6 -40l-29 -57l-34 -26l-27 -13h-69l-19 18l-21 18v25l1 24l4 6l22 8l20 17l-28 30h-23l-56 -43l-3 -50l4 -9l3 -9z" />
    <glyph glyph-name="guilsinglleft" unicode="&#x2039;" horiz-adv-x="241" 
d="M44 75l58 -52l60 -43l42 21v29c-25 23 -54 48 -79 70c-3 5 -5 9 -7 14c-3 7 -8 16 -10 24l131 100l5 26h-32l-190 -122l-6 -33z" />
    <glyph glyph-name="guilsinglright" unicode="&#x203a;" horiz-adv-x="241" 
d="M159 148l-108 -115l-5 -33h32c10 12 21 24 32 37c10 12 23 26 31 36l101 73l6 31l-103 125h-44l-19 -18c15 -21 30 -43 45 -65c11 -16 24 -35 35 -51z" />
    <glyph glyph-name="yen" unicode="&#xa5;" horiz-adv-x="667" 
d="M288 196l-41 -143l-25 -51l44 -30l36 4l157 53l-31 14l-62 -3l-9 13l2 68l23 67l63 21l119 9l40 5l-1 15l4 16h-194l23 83l30 24l118 13l113 6l18 55l-135 -24h-107l15 41l160 161l22 23l149 194l1 34h-62l-20 -33l-108 -143l-164 -216l-8 -9l-5 6l4 17l-60 302l-4 12
l11 33l-26 14l-43 -9l-31 14l-53 -8l-46 -20l47 -41l28 -9l40 -103l52 -255l-8 -25h-26l-247 -17l-11 -37h142l127 7l-4 -19l-16 -52l-26 -34l-187 3l-47 -8l-12 -10l9 -15h201z" />
    <glyph glyph-name="germandbls" unicode="&#xdf;" horiz-adv-x="659" 
d="M225 -294l4 31c10 18 21 37 31 54c11 16 27 35 39 51c27 22 55 45 81 67l69 42c8 4 13 7 22 10c-7 -16 -14 -32 -20 -49l-19 -45c-26 -28 -64 -70 -90 -98l-10 -8c-13 -10 -27 -19 -42 -28c-13 -9 -30 -19 -44 -27h-21zM-246 -397l7 -33l41 -19h42l51 21l7 8c3 2 7 7 8 9
c11 12 23 27 33 39l17 16c1 6 3 13 5 18l22 21l69 129c11 24 23 49 33 72l32 63c7 14 14 31 20 45c7 15 14 31 19 44l10 9c8 18 16 39 23 57c32 61 65 123 98 184c8 8 19 18 27 25h180l-140 -127l-4 -23c17 -7 36 -13 52 -20l10 -3c15 -20 34 -40 49 -59l7 -45
c3 -10 5 -21 7 -31l-43 -24l-105 -73l-93 -84l-51 -81l-10 -60l17 -20h65l113 71l94 101l51 79l16 45l14 46c5 5 8 8 13 12c9 4 20 11 29 15l81 22l11 37l-62 -11c-25 -11 -49 -23 -74 -34l-9 56l-34 69l-19 13c-7 4 -20 12 -27 16l3 13l64 63l22 22l13 8l48 34l-17 19h-108
l-19 -3c-6 -1 -17 -3 -23 -4h-101l3 16l63 95c6 12 14 25 20 37l38 65c0 1 3 5 4 7l56 81l8 12c46 33 89 66 133 99c10 4 25 10 34 14c25 12 51 23 76 35h40l-6 -30l29 -40l8 5l11 3l52 40l1 20l-55 26h-128l-176 -104l-106 -92l-29 -35c-26 -42 -56 -90 -82 -133
c-24 -39 -52 -82 -77 -121l-152 -8l-7 -31h97l17 -32l-46 -88c-19 -43 -41 -90 -61 -134l-34 -54l-9 -19c-2 -7 -5 -15 -7 -22c-2 -6 -5 -16 -8 -23l-31 -68c-2 -5 -6 -12 -8 -18l-9 -17l-10 -18c-1 -5 -4 -11 -5 -16c-2 -5 -6 -10 -8 -15c-17 -35 -36 -73 -52 -108
c-4 -6 -9 -12 -13 -18c-16 -19 -30 -39 -46 -59c-3 -1 -17 -8 -21 -10l-14 -1l-3 1c-3 2 -6 4 -8 5c-5 4 -11 8 -16 12c-4 5 -6 13 -9 18l34 68l-25 10l-44 -72z" />
    <glyph glyph-name="bullet" unicode="&#x2022;" horiz-adv-x="271" 
d="M144 203l38 -22l27 -8c3 1 8 3 12 4s8 2 11 4h21l38 32l13 8l8 40l-9 18l-5 10c-1 1 -6 3 -8 4c-4 1 -6 2 -9 3l-7 8l-29 15h-37l-41 -18l-27 -38l-2 -7c-2 -2 -2 -4 -3 -6l-5 -11c4 -6 7 -13 11 -18z" />
    <glyph glyph-name="acute" unicode="&#xb4;" horiz-adv-x="270" 
d="M271 476l-30 -19l2 -19l16 -8l45 26l53 45l84 57l13 58l-26 13l-86 -80c-12 -11 -24 -25 -36 -37c-11 -12 -23 -24 -35 -36z" />
    <glyph glyph-name="percent" unicode="%" horiz-adv-x="627" 
d="M298 458l-25 38c5 15 10 29 15 44c16 12 32 26 47 38c17 6 37 14 53 20c5 -2 10 -5 14 -8l-3 -33c-4 -13 -8 -28 -11 -41l-15 -30c-14 -7 -32 -17 -46 -25c-9 0 -20 -2 -29 -3zM463 83l5 25c13 26 27 55 41 81c13 9 28 17 41 25c12 2 24 5 36 7c3 -13 6 -28 9 -41
c0 -14 1 -28 2 -42c-12 -15 -23 -32 -33 -47c-14 -10 -29 -20 -43 -30c-14 -5 -32 -11 -48 -16c-3 11 -7 27 -10 38zM391 76l-3 -47l16 -23h46l68 14l44 28l39 28l36 60c-2 15 -4 32 -5 47l6 58l-3 23l-32 5l-78 -28l-101 -95zM297 214l-154 -184l18 -47h35
c6 20 12 39 19 58l42 33c7 15 18 32 26 45l115 117l175 217c13 19 27 38 40 56c11 11 23 22 33 34l114 116l-24 35c-33 -11 -69 -23 -102 -35l-265 -3c-13 -7 -30 -16 -44 -23l-23 -11l-20 -19l-28 -41c-4 -10 -10 -19 -14 -29l-17 -34l-8 -42c2 -4 6 -8 8 -12l15 -31h27
l70 8l68 51l22 36l8 43c7 16 14 31 21 46c12 11 24 23 36 34l90 3c25 -3 51 -7 77 -11c-40 -46 -84 -101 -123 -148z" />
    <glyph glyph-name="dieresis" unicode="&#xa8;" horiz-adv-x="216" 
d="M58 473l-1 -14l18 -15l53 7l10 11l7 26l-19 34l-48 6zM227 461l14 -9l24 -15l20 11l15 21l14 19l-3 27l-23 14l-32 -6l-31 -24c3 -6 8 -15 12 -22z" />
    <glyph glyph-name="dollar" unicode="$" horiz-adv-x="402" 
d="M303 215l-28 19c1 2 2 4 4 7l14 12h-20c-4 3 -9 10 -12 14c1 6 4 11 5 16h9c7 -4 14 -9 20 -13l2 -19c4 -4 11 -10 15 -15c-3 -6 -6 -14 -9 -21zM227 216h4c1 0 5 2 7 2l12 -12l27 -55c6 -8 11 -17 16 -25c-1 -6 -4 -12 -6 -17c-5 -18 -12 -38 -17 -56
c-15 -9 -31 -19 -45 -28c-16 -4 -36 -9 -53 -14h-17c1 7 0 13 -1 20l24 56c1 9 3 26 5 34l26 43c5 17 13 35 18 52zM231 411l1 10l-6 15l-13 13c1 5 1 12 1 17l1 15c-1 3 -1 8 -2 10c3 12 7 26 9 38l26 26l30 11c3 3 6 7 7 9l24 12c12 2 24 6 36 8h50
c-30 -57 -62 -115 -93 -172c-10 -10 -21 -22 -30 -33c-6 -2 -14 -6 -19 -8c-8 9 -15 20 -22 29zM136 -26h15l36 -4l48 19c14 14 30 29 43 43l35 10l27 47l23 76l-3 69l-4 15l-37 44c-9 6 -17 13 -25 20c0 2 0 6 -1 8l3 17c1 6 2 16 3 23l34 50l78 138c7 14 14 29 22 43h19
c7 -1 16 -2 23 -3c10 -8 22 -16 31 -24l4 -63l9 -7l22 7l20 31c-1 4 -5 10 -6 14l-1 39l-31 28c-24 4 -46 9 -69 12c-1 2 -4 10 -5 13l19 25c4 7 10 18 13 26l18 31c1 13 4 31 5 44l1 11h-28l-17 -28l-6 -14c-14 -31 -29 -65 -42 -96h-16l-39 -7l-44 -8l-74 -20l-58 -47
c-2 -9 -5 -18 -7 -26l-35 -29l-15 -58c1 -4 4 -12 6 -17l2 -25l9 -47c3 -3 9 -7 13 -10l5 -38l17 -22c2 0 4 -2 6 -3l15 -30c2 -4 5 -10 7 -15c-29 -60 -62 -125 -93 -185c-2 -4 -7 -12 -10 -16c-6 0 -14 1 -19 1c-20 15 -41 30 -60 44l2 41l-6 35h-50c-2 -8 -7 -17 -9 -24
l-25 -23l-9 -22l39 -33c18 -10 40 -22 57 -33l24 -23c9 -2 17 -5 26 -7v-22l-113 -233l26 -9l19 12c2 11 5 32 7 42c34 60 68 119 101 178c7 5 17 10 25 15z" />
    <glyph glyph-name="grave" unicode="`" horiz-adv-x="270" 
d="M287 436l-2 32l-14 44l-46 103l-37 19l-30 -6l-4 -40l21 -35c18 -22 37 -46 56 -69l13 -49l25 -13l20 4z" />
    <glyph glyph-name="semicolon" unicode=";" horiz-adv-x="298" 
d="M185 347l-13 -18l-26 -33l-4 -28l24 -15l24 -14l38 22l20 13v38l-25 34c-10 -6 -10 0 -20 -6zM169 98l-31 -33l-22 -7l-21 -60c-4 -26 -32 -56 -36 -81l-22 -30l-20 -51l3 -9l30 -3l131 200l17 60z" />
    <glyph glyph-name="circumflex" unicode="&#x2c6;" horiz-adv-x="372" 
d="M208 554l-74 -70l-3 -14h14c39 33 87 71 127 103h17l62 -77l23 -21l38 34c-18 20 -40 45 -57 65l-36 57h-25l-29 -12c-18 -21 -38 -44 -57 -65z" />
    <glyph glyph-name="ring" unicode="&#x2da;" horiz-adv-x="248" 
d="M235 678l-26 23l5 28h22c4 -3 11 -7 16 -10c3 -10 9 -20 12 -30l-14 -11h-15zM172 706l18 -35l49 -30l52 23l17 30l6 37l-39 46h-36l-62 -41z" />
    <glyph glyph-name="quoteright" unicode="&#x2019;" horiz-adv-x="50" 
d="M301 426l-61 -44l2 -20l61 34l44 35l36 53l21 72l-33 30h-30l-31 -22c6 -27 12 -58 17 -86c-8 -17 -18 -35 -26 -52z" />
    <glyph glyph-name="quoteleft" unicode="&#x2018;" horiz-adv-x="161" 
d="M174 553l-31 -81l20 -29h23l40 29c-3 16 -7 36 -9 52c4 10 7 19 11 27c18 22 36 44 53 66l53 23l-4 8h-15l-84 -45z" />
    <glyph glyph-name="exclam" unicode="!" horiz-adv-x="291" 
d="M71 119l-7 -43l26 -33h24l3 19l30 25l-2 35l-24 12c-8 -5 -17 -10 -25 -15h-25zM165 298l-21 -79l11 -10l27 22l116 232c6 17 13 36 19 53l34 65l11 65h-18l-25 12l-38 -20l-10 -55l-29 -45c-9 -35 -18 -72 -28 -107z" />
    <glyph glyph-name="quotedbl" unicode="&#x22;" horiz-adv-x="232" 
d="M283 424l11 -14l1 -5l14 4l24 16c9 31 19 65 28 96l17 35l6 23l-28 12l-29 -52zM174 423l2 -14l-1 -5l15 4l42 36c8 31 18 66 28 97l18 35l-24 22l-39 -9c-2 -13 -4 -36 -6 -50z" />
    <glyph glyph-name="quotesingle" unicode="'" horiz-adv-x="80" 
d="M255 423l11 -17c8 6 17 12 24 18l14 4c4 11 8 25 12 36l50 107l-2 35l-28 12l-37 -29c-7 -33 -17 -66 -25 -100z" />
    <glyph glyph-name="numbersign" unicode="#" horiz-adv-x="482" 
d="M230 209l-1 4l51 110c13 5 29 10 42 15c17 0 50 -1 68 -1c-19 -41 -41 -86 -61 -128h-99zM277 92l-39 -90l14 -12h24c11 28 24 61 36 89c9 19 18 37 27 54l24 25h75l6 44h-65l2 26c18 34 35 68 53 102h30l39 18l5 51c-12 2 -26 5 -38 7c1 8 5 18 8 27l84 111h-28l-53 -50
c-15 -28 -32 -60 -47 -88l-106 -7c-1 1 -2 2 -4 3c11 23 25 50 36 72l30 46l-10 24l-34 -33c-22 -40 -46 -80 -67 -120l-105 -5l-39 -10l8 -46l100 -2c-19 -41 -41 -85 -60 -126l-119 4l-6 -55l30 -3h66l-64 -119l25 -30c11 25 25 55 36 80c10 22 23 46 34 69l105 8
c3 0 8 1 11 2c-8 -22 -17 -45 -24 -66z" />
    <glyph glyph-name="question" unicode="?" horiz-adv-x="599" 
d="M217 43l-15 -29l1 -20l28 -1l29 1l18 5l11 20c-3 2 -4 5 -7 7l20 27v6l-3 19l-61 1zM350 306l-40 -93l-23 -54h38c8 15 19 32 29 47l26 36c6 9 11 18 17 26c9 11 18 24 26 35l75 10l156 124l21 81l-15 52l-43 62l-32 17h-63l-90 -35l-44 -34l-42 -62c0 -5 0 -12 -1 -17
l-17 -14l8 -35l60 20l17 24c-4 21 -8 42 -12 62l14 13c17 9 34 18 50 27c22 4 46 8 67 11c12 -6 24 -15 36 -21c1 -38 3 -78 5 -115c-9 -21 -18 -43 -26 -63c-18 -14 -37 -29 -55 -44l-111 -45z" />
    <glyph glyph-name="bar" unicode="|" 
d="M297 648l5 -17l-22 -28l-14 -72c2 -7 5 -18 7 -25l-55 -324l-14 -39c-1 -13 -1 -26 -2 -39l-10 -56c-6 -43 -12 -92 -19 -134l-13 -29l1 -53l25 -10l54 25l5 32c-6 8 -13 20 -19 28l12 67c7 44 16 102 23 145l25 127l14 45l-4 22l15 50l7 38c2 18 6 43 9 62
c6 29 13 62 19 91l32 94l-24 33l-40 -18z" />
    <glyph glyph-name="tilde" unicode="&#x2dc;" 
d="M163 546l2 -18c-2 -3 40 -3 40 -3c2 14 1 30 3 44c5 7 13 17 17 24c10 0 20 -1 30 -2l45 -40l44 -35l80 3s85 75 86 78s2 52 2 52l-16 19l-13 -16l-10 -17c2 -6 7 -14 9 -21c-8 -9 -15 -19 -21 -28c-13 -5 -29 -12 -42 -17c-14 5 -28 12 -40 17c0 0 -21 22 -24 22l-39 35
l-26 5l-85 -34l-32 -40z" />
    <glyph glyph-name="cedilla" unicode="&#xb8;" 
d="M272 13l-60 -2l-26 -49l-6 -23c19 -5 39 -10 57 -14c3 -6 6 -11 9 -17c-1 -12 -2 -27 -4 -40c-12 -21 -26 -42 -39 -63c-18 -11 -38 -23 -56 -33c-7 0 -14 1 -19 2l-16 27l-33 -22l-1 -50l53 10c15 8 30 17 45 25l71 31l56 67l16 54l-20 37c-19 6 -38 14 -56 20z" />
    <glyph glyph-name="registered" unicode="&#xae;" 
d="M322 264l-2 3l1 14l5 8c0 2 -2 8 -3 10l8 9l7 20c-1 6 -2 14 -3 20l10 17c-1 1 -4 5 -6 6l2 14h24c20 1 40 3 59 4c6 -8 12 -16 18 -23c1 -10 1 -20 3 -30c-5 -9 -11 -20 -15 -28c-5 -4 -12 -10 -16 -14c-10 -5 -19 -11 -26 -16l-18 -7c-16 -2 -33 -5 -48 -7zM305 515
l-48 -22l-32 -33l-104 -118l-39 -68l-31 -100l38 -97l40 -55l127 -17l100 7l154 70h55l14 6l6 6l10 3l7 9l14 27l-1 16l-7 10h-14c-3 -5 -8 -11 -11 -15l-8 -8l-1 -8c4 -3 8 -7 11 -10c-1 -4 -4 -8 -5 -10c-6 -4 -12 -9 -17 -13c-8 1 -15 3 -23 3c-4 1 -9 3 -13 4
c5 9 10 20 15 29l43 75l43 145l1 121l-49 43l-53 31h-150l-31 -16l-15 -36l17 -8l68 15c9 4 22 10 30 15l44 -6c19 -10 38 -21 56 -31l11 -33c13 -13 27 -27 39 -40c0 -25 -1 -49 -1 -73l-28 -46c-7 -21 -13 -43 -19 -64c-9 -18 -20 -38 -28 -56l-31 -16
c-12 17 -23 34 -34 51l-6 17l-18 22l-2 15c-6 2 -14 6 -21 8c2 3 3 6 4 9l15 6l31 17c2 3 6 7 9 10l11 8l17 25c1 2 -1 5 -2 7l7 6l3 9l-15 40l-29 7h-42c-5 0 -12 -1 -17 -2l-9 2l-42 -4l-55 -10c-2 -1 -7 -3 -9 -4l-3 3h-10l-16 -10l-3 -8l9 -9c17 5 34 10 51 16l-7 -11
c1 -2 2 -5 2 -7l-9 -10l-13 -21c-2 -10 -3 -20 -5 -30l-20 -57l-3 -14c0 -3 0 -9 -1 -12l-20 -40c-2 -7 -6 -17 -7 -24c-3 -3 -6 -6 -7 -8h-11l-17 -10l-4 -4l-1 -16l8 -2c2 1 5 3 8 5h9l43 17l6 8l17 37l1 6l6 7c1 7 5 16 7 22c3 4 8 9 11 13l18 5c4 1 11 3 14 5h30
c2 -3 7 -8 8 -10l6 -21l4 -6c4 -9 9 -18 13 -27l1 -9c3 -4 7 -8 10 -11l4 -13l22 -28c2 -1 5 -3 8 -3l9 -7l-9 -18c-37 -12 -77 -27 -114 -40h-109c-14 8 -30 18 -44 26c-11 15 -21 29 -33 42c-5 16 -12 35 -17 51c-1 16 -1 34 -1 49c3 13 9 28 12 41c24 44 51 92 75 136
c14 23 28 46 42 68c12 6 25 13 35 19l38 15l-1 25z" />
    <glyph glyph-name="parenleft" unicode="(" horiz-adv-x="315" 
d="M507 777v-1c-4 -5 -23 1 -23 1s-28 -11 -30 -14c0 -2 -119 -99 -119 -99l-113 -136l-79 -129l-30 -71l-37 -83l-24 -134l-2 -107s13 -75 21 -96l1 -22l24 -14l22 10l4 22c-3 2 -7 5 -9 7l4 8l-2 12c-7 5 -14 10 -21 13l6 64c-2 9 -2 21 -5 31l32 93l27 89
c6 22 14 47 20 69c0 0 58 134 58 137c-1 1 14 29 33 64c3 4 5 8 7 12l16 35c3 8 7 15 9 23l33 28c2 5 4 11 5 16c22 25 47 56 67 81l37 31c7 6 17 14 25 20l28 16s28 36 15 24z" />
    <glyph glyph-name="parenright" unicode=")" horiz-adv-x="343" 
d="M323 776c-2 8 -5 -24 -5 -24c4 -4 10 -11 14 -16c4 -6 8 -13 12 -19c2 -8 7 -23 9 -31l-1 -83c4 -4 10 -12 14 -16l-12 -28l-12 -25c-1 -10 -1 -23 -3 -33c-3 -12 -7 -25 -8 -34c-3 -16 -3 -29 -5 -36c1 -5 0 -8 -1 -8c-2 -3 -48 -136 -49 -139l-51 -70
c-12 -29 -26 -61 -38 -90c-20 -31 -41 -62 -61 -93l-33 -32c-15 -21 -33 -43 -49 -64l-19 -2l-21 -11c-1 -3 -3 -7 -5 -10l-15 -7l-14 -21l13 -10l54 10c6 7 15 15 22 23c26 20 83 87 83 87l84 110l91 134l45 86l32 70l41 129l-8 141s-40 97 -39 98c1 4 -40 15 -40 15
s-26 -6 -25 -1z" />
    <glyph glyph-name="slash" unicode="/" horiz-adv-x="449" 
d="M493 653l-7 -15l-20 -24l-46 -64c-1 -6 -3 -15 -4 -22c-59 -93 -118 -187 -177 -279l-28 -34c-6 -11 -14 -24 -19 -35l-36 -48c-31 -38 -64 -78 -96 -116l-35 -25l-13 -47l15 -9l46 22l18 27c3 8 7 17 9 25c14 20 27 40 40 59l105 123c23 37 48 76 70 112l34 39
c1 6 4 12 6 19l33 40l27 37l34 53c16 27 34 54 49 79l60 71l-7 30l-30 -5z" />
    <glyph glyph-name="plus" unicode="+" 
d="M262 492l-9 -34l-13 -25l-2 -12c-4 -16 -8 -34 -12 -50c0 0 -13 -41 -12 -38c0 -2 -14 -24 -14 -24c-7 -6 -15 -13 -24 -20c-3 -1 -47 -3 -49 -3s-49 10 -49 10l-40 2l-26 -4l-12 -25l-10 -25c60 -2 123 -5 183 -8c3 -8 4 -19 6 -28c-8 -22 -15 -45 -22 -68l-25 -74
s-1 -15 2 -18c2 -2 37 -6 37 -6l15 27c23 50 47 100 71 150c10 7 22 15 32 22c12 2 25 5 38 7h74l51 10l7 40l-20 6l-52 5c-25 0 -59 -1 -84 -1c0 0 -24 8 -24 9c1 2 -1 21 0 24c1 10 6 23 8 33l29 69l12 44l-28 12z" />
    <glyph glyph-name="caron" unicode="&#x2c7;" horiz-adv-x="442" 
d="M261 446l13 -27l13 -11h30l6 33l36 30c14 19 29 40 43 59l30 11l5 27h-24l-40 -26c-5 -9 -10 -19 -15 -28c-14 -13 -33 -29 -47 -42c-5 2 -19 9 -14 7l-77 84l-31 -7l-5 -26c25 -27 52 -57 77 -84z" />
    <glyph glyph-name="less" unicode="&#x3c;" horiz-adv-x="376" 
d="M118 80l43 -24l104 -64l37 21l4 25l-16 34c-60 36 -123 71 -185 107c38 21 76 43 112 64l39 16l163 92l-22 17c-49 -27 -101 -53 -150 -79l-210 -102l-7 -44z" />
    <glyph glyph-name="greater" unicode="&#x3e;" horiz-adv-x="382" 
d="M213 116l-171 -98l15 -28c66 33 140 68 208 101l138 57l4 24c-34 22 -69 45 -102 67l-23 24l-120 79l-64 -10l-5 -26l135 -102c17 -10 34 -22 50 -33l-3 -14c-20 -14 -42 -28 -62 -41z" />
    <glyph glyph-name="asciicircum" unicode="^" horiz-adv-x="358" 
d="M241 644l-135 -164l-7 -38h11c28 36 63 77 96 115c7 9 15 19 22 27c28 27 55 53 84 77h22l-24 -138l-3 -63h54l11 63c-1 3 -1 6 -3 10c-1 3 -1 7 -2 8l19 107c3 10 5 20 9 31c3 8 6 15 7 24l31 33l13 70h-33l-49 -33c-5 -7 -13 -15 -19 -22c-9 -11 -18 -22 -26 -32z" />
    <glyph glyph-name="underscore" unicode="_" 
d="M11 -58l114 -2c70 2 144 6 214 9l68 -20l12 11l18 47l-30 6l-101 -6h-247l-39 3l-25 -23z" />
    <glyph glyph-name="backslash" unicode="\" horiz-adv-x="392" 
d="M362 -46l-9 15l18 25l-13 63c-4 7 -9 14 -14 21c-27 91 -57 188 -83 280l-4 33c-3 12 -9 23 -13 35c-4 15 -7 33 -10 48c-3 39 -8 78 -11 116l13 26l-49 45l-25 10l-25 -23l8 -29c4 -8 9 -16 14 -23c4 -19 10 -40 14 -58l8 -125c11 -37 24 -75 35 -111l3 -40l10 -18
l5 -43l8 -34l14 -53c7 -25 16 -54 23 -80l8 -71l32 -28l25 5z" />
    <glyph glyph-name="asciitilde" unicode="~" horiz-adv-x="543" 
d="M65 196l3 -18l-8 -19l20 -18l18 2l11 10l15 37l5 19c-7 7 -10 14 -18 20c5 5 7 14 12 19c9 6 19 14 28 20l27 -7c7 2 14 3 21 5c10 -5 18 -12 27 -17l33 -30l33 -51l46 -10l44 -4l23 2l50 23c17 17 33 34 50 50l45 42l15 32l-29 31l-24 4l-23 -18c-5 -7 -11 -16 -15 -23
l-16 -21l13 -22c2 1 7 2 10 2c-7 -11 -14 -22 -20 -32c-11 -10 -23 -22 -33 -31c-11 0 -26 1 -36 1c-4 2 -7 4 -9 5c-21 14 -44 30 -63 45l-29 52l-82 7l-56 -15l-33 -25l-38 -29z" />
    <glyph glyph-name="trademark" unicode="&#x2122;" horiz-adv-x="460" 
d="M328 465l-26 -6c-10 -4 -24 -8 -35 -12h-21l-24 -2c-11 0 -21 1 -31 1l-10 3c-2 0 -4 1 -6 1l-7 2l-14 4l-7 2l-10 -2c-2 -3 -5 -7 -7 -10l-8 -4l-5 -11l3 -10h14l11 7c0 1 0 5 3 9l15 -5l19 -1c2 0 3 -1 5 -1l-4 -12v-5l-7 -20c-5 -16 -10 -34 -15 -50l-10 -23
c0 -2 -2 -4 -2 -6l-23 -6l-3 -15c9 0 19 2 28 3l34 -2l7 5l4 6l-3 11c-3 0 -7 -2 -10 -2l8 17c2 13 6 31 9 45l24 56c8 1 20 1 30 2l-1 -5c1 -1 2 -4 4 -5l-1 -11l19 2c3 6 8 14 12 19c3 2 8 6 12 9h13l4 -5c-5 -19 -9 -40 -14 -59c-8 -16 -16 -34 -24 -51l-17 -27l4 -10h19
l14 18c1 1 3 4 4 6c19 26 39 54 58 81c7 7 15 13 21 20c0 -2 2 -5 2 -7c-1 -6 -5 -15 -7 -21l-39 -77l5 -10h15l23 10c3 5 6 12 9 17l61 88c1 1 2 2 4 2c1 -7 1 -14 2 -20l-24 -55l-9 -24l-1 -17l5 -16h16l13 8l14 14l18 13l2 13c-10 -6 -22 -15 -33 -21l32 91l3 15l-11 17
h-31l-12 -7c-14 -25 -31 -50 -47 -75l18 44l4 25l-4 17h-24l-19 -21c-14 -20 -29 -38 -44 -58l24 70l-6 21z" />
    <glyph glyph-name="braceleft" unicode="{" horiz-adv-x="428" 
d="M524 766l-22 21l-70 -31l-49 -40l-26 -37l-12 -30l-18 -28v-58l-1 -22l1 -48l-4 -62l-11 -38l-32 -37l-37 -23l-35 -12l1 -18l52 -17l14 -22l-5 -30l-65 -124l-21 -43l-47 -75l-11 -63l11 -41l41 -46l68 -8l11 21l-19 9l-15 35l-8 5v33l6 79l104 167l22 63l-13 33l-24 20
l-26 24l22 13l47 29l22 24l17 40l6 87l3 22l2 40l17 67l30 51l37 49z" />
    <glyph glyph-name="braceright" unicode="}" horiz-adv-x="504" 
d="M434 804l-21 -26l18 -19l28 -49l-4 -51l-30 -67l-15 -41l-51 -103l-13 -32l3 -26l23 -26l16 -16l-52 -14l-35 -17l-49 -91l-11 -65l-15 -132l-12 -68l-13 -27l-34 -21l-57 -33l-33 -11v-22l72 22l77 35l35 38l34 67l7 72l8 43l20 125l15 28l17 34l64 28l14 17l-27 14
l-20 22l5 14l55 102l30 47l-2 14l38 72l6 54l-10 37l-13 16z" />
    <glyph glyph-name="guillemotleft" unicode="&#xab;" horiz-adv-x="578" 
d="M364 75l58 -52l30 -43l71 20l1 30c-29 25 -61 54 -87 79c-3 5 -5 11 -8 15c0 5 -1 10 -1 14c22 30 45 61 66 90c9 7 18 15 27 21l58 37l-23 22h-28c-12 -13 -26 -26 -38 -39l-149 -137l-6 -33c9 -8 19 -16 29 -24zM163 60l54 -71l55 -24l41 21l1 29l-77 90
c-5 4 -11 9 -17 14c-1 6 -6 17 -7 24l142 120l4 26h-31l-204 -152l-6 -33c14 -14 31 -30 45 -44z" />
    <glyph glyph-name="guillemotright" unicode="&#xbb;" horiz-adv-x="483" 
d="M237 148l-109 -115l-5 -33h32c20 23 44 50 64 73l114 94c-2 2 -6 7 -8 10l-110 145h-44l-19 -18c29 -45 59 -91 88 -136zM425 150l-130 -135l-5 -32h31c28 30 61 64 88 93l80 73l5 30l-98 145h-45l-18 -17l78 -136c4 -7 9 -14 14 -21z" />
    <glyph glyph-name="uni00A0" unicode="&#xa0;" horiz-adv-x="252" 
 />
    <glyph glyph-name="brokenbar" unicode="&#xa6;" 
d="M231 199l-3 -17l-14 -39c-1 -13 -1 -26 -2 -39l-20 -56c-6 -43 -12 -92 -19 -134l-13 -29l1 -53l25 -10l54 25l5 32c-6 8 -13 20 -19 28l12 67l33 145l16 80h-56zM296 648l14 -17l-21 -28l-15 -72c2 -7 5 -18 8 -25l-39 -162l37 -8l26 8l10 57l19 62c6 29 13 62 20 91
l32 94l-25 33l-42 -19z" />
    <glyph glyph-name="endash" unicode="&#x2013;" horiz-adv-x="652" 
d="M71 217l20 -26l42 -8h199c22 2 46 5 68 8l110 8c9 6 20 12 28 17h158l13 23l-4 28c-90 -3 -179 -6 -268 -8h-283l-45 -10z" />
    <glyph glyph-name="emdash" unicode="&#x2014;" horiz-adv-x="836" 
d="M59 207l-2 -14l25 -4h25l26 -15c26 2 53 5 79 7c56 3 112 6 167 8l40 -8h42c26 3 51 6 77 8h58c19 3 40 6 59 9h109c7 4 13 9 20 13l73 -5l7 43l-14 17c-39 -6 -80 -12 -119 -17l-175 -8c-23 -5 -48 -12 -71 -17l-228 25l-83 -3c-11 -3 -24 -6 -35 -8l-24 3l-38 -18z" />
    <glyph glyph-name="equal" unicode="=" 
d="M128 326l-23 -22l-3 -16l8 -15c8 0 23 1 32 1c38 -1 81 -2 119 -3l72 -7c30 1 69 2 99 2l61 -3l9 14l5 24l-8 10l-35 7h-39c-27 -3 -57 -7 -85 -9h-29l-26 9zM125 179l-24 -6l-12 -15l-17 -42l28 -13c12 1 28 3 41 4h50c9 2 23 9 30 12c28 2 60 3 87 4c18 0 43 -1 61 -2
l64 -3l51 11l4 22c-3 7 -8 17 -10 25l1 10c-6 -2 -17 -5 -24 -7h-33c-12 -2 -26 -5 -37 -7z" />
    <glyph glyph-name="dotlessi" unicode="&#x131;" horiz-adv-x="425" 
d="M184 121l-40 -87l9 -41l16 -15l66 -1l57 17l151 59l10 40c-62 -23 -133 -50 -194 -73c-4 4 -10 9 -15 13c-1 9 -4 21 -5 31c2 7 6 16 9 24l75 120l60 96l-48 18l-23 -1c-18 -23 -36 -47 -54 -69c-16 -15 -34 -33 -50 -48c-34 -27 -71 -55 -104 -82l-86 -31l-12 -47
l101 40l30 19c11 7 22 16 34 23c4 -2 9 -3 13 -5z" />
    <glyph glyph-name="dotlessi.up" horiz-adv-x="291" 
d="M51 19l14 -36h62l168 67l13 47c-44 -21 -94 -44 -139 -64c-11 3 -24 6 -35 10c16 30 32 59 48 88l45 57c6 11 11 25 16 36l49 60l21 70l-13 3l-77 -23l-167 -51l-9 -37c33 9 73 20 108 28h25c3 4 7 7 10 10c2 -5 4 -12 6 -18l-22 -7c0 -3 -2 -8 -3 -10l-61 -92l-55 -113z
" />
    <glyph glyph-name="zcaron" unicode="&#x17e;" horiz-adv-x="548" 
d="M176 -291l-18 6l-3 11l18 36l51 49l111 85l-32 -65l-39 -51zM555 50l18 27l-6 9l-12 -3l-86 -49l5 51l-3 6l-22 26l-8 4l-78 3c-10 4 -20 6 -31 9l44 41l43 55l8 32l-6 8l-37 30h-78l-41 -18l-64 -52l-196 -155l-12 -22l13 -6l109 77l64 53l102 74l14 3l33 -9l4 -8
l-9 -32l-37 -45l-145 -108l-2 -12l14 -19l147 61h78l12 -18l-8 -59l-22 -51l-220 -182l-56 -80l9 -34l21 -18h26l41 26l21 9l98 78l86 95l48 114l45 44zM328 400l13 -27l13 -11h30l6 33l36 30c14 19 29 40 43 59l30 11l5 27h-24l-40 -26c-5 -9 -10 -19 -15 -28
c-14 -13 -33 -29 -47 -42c-5 2 -19 9 -14 7l-77 84l-31 -7l-5 -26c25 -27 52 -57 77 -84z" />
    <glyph glyph-name="scaron" unicode="&#x161;" horiz-adv-x="482" 
d="M265 -17l37 12l35 6l121 40l36 10l14 26l-6 6l-146 -43h-19l16 12l54 75l12 21l20 108l28 48l39 35l20 23l12 21l5 19l-31 21l-9 -2l-33 -27l-24 -42l-85 -56l-24 -18l-36 -29l-25 -20l-58 -27l-63 -35l-150 -91l-8 -19l8 -10l72 37l19 9l113 68l42 17l40 33l18 6l48 38
l-11 -47c0 -4 2 -9 2 -13l-10 -68c-20 -29 -41 -61 -61 -91l-44 -21c-11 1 -21 4 -32 5l-26 44l-42 -1l-10 -6l-18 -30l12 -24l57 -28l74 -5zM357 443l13 -27l13 -11h30l6 33l36 30c14 19 29 40 43 59l30 11l5 27h-24l-40 -26c-5 -9 -10 -19 -15 -28
c-14 -13 -33 -29 -47 -42c-5 2 -19 9 -14 7l-77 84l-31 -7l-5 -26c25 -27 52 -57 77 -84z" />
    <glyph glyph-name="agrave" unicode="&#xe0;" horiz-adv-x="484" 
d="M180 52l-5 17c1 14 3 31 5 44l98 107l33 21l44 27c10 1 21 5 31 6l17 -1c1 -4 3 -9 5 -13l-12 -16l-21 -25l-41 -70l-108 -88l-21 -9h-25zM505 53l10 24l-1 10l-115 -52l-16 4l-4 13l25 61l33 52l56 86l40 44l-29 18l-23 -15l-55 15h-58l-143 -89l-46 -64l-166 -84
l-8 -26h11l108 38h10l-10 -13l-4 -23l15 -33l12 -10l67 5l40 21l23 17l37 29l-11 -47l20 -25l44 -18l31 6zM440 407l-2 32l-14 44l-46 103l-37 19l-30 -6l-4 -40l21 -35c18 -22 37 -46 56 -69l13 -49l25 -13l19 4z" />
    <glyph glyph-name="aacute" unicode="&#xe1;" horiz-adv-x="484" 
d="M180 52l-5 17c1 14 3 31 5 44l98 107l33 21l44 27c10 1 21 5 31 6l17 -1c1 -4 3 -9 5 -13l-12 -16l-21 -25l-41 -70l-108 -88l-21 -9h-25zM505 53l10 24l-1 10l-115 -52l-16 4l-4 13l25 61l33 52l56 86l40 44l-29 18l-23 -15l-55 15h-58l-143 -89l-46 -64l-166 -84
l-8 -26h11l108 38h10l-10 -13l-4 -23l15 -33l12 -10l67 5l40 21l23 17l37 29l-11 -47l20 -25l44 -18l31 6zM448 444l-31 -19l2 -19l17 -8l44 26l53 45l84 57l13 58l-25 13l-86 -80c-12 -11 -25 -25 -37 -37c-11 -12 -23 -24 -34 -36z" />
    <glyph glyph-name="acircumflex" unicode="&#xe2;" horiz-adv-x="484" 
d="M180 52l-5 17c1 14 3 31 5 44l98 107l33 21l44 27c10 1 21 5 31 6l17 -1c1 -4 3 -9 5 -13l-12 -16l-21 -25l-41 -70l-108 -88l-21 -9h-25zM505 53l10 24l-1 10l-115 -52l-16 4l-4 13l25 61l33 52l56 86l40 44l-29 18l-23 -15l-55 15h-58l-143 -89l-46 -64l-166 -84
l-8 -26h11l108 38h10l-10 -13l-4 -23l15 -33l12 -10l67 5l40 21l23 17l37 29l-11 -47l20 -25l44 -18l31 6zM361 463l-74 -70l-3 -14h14c39 33 87 71 126 103h17l63 -77l23 -21l38 34c-18 20 -40 45 -57 65l-36 57h-25l-29 -12c-18 -21 -38 -44 -57 -65z" />
    <glyph glyph-name="atilde" unicode="&#xe3;" horiz-adv-x="484" 
d="M180 52l-5 17c1 14 3 31 5 44l98 107l33 21l44 27c10 1 21 5 31 6l17 -1c1 -4 3 -9 5 -13l-12 -16l-21 -25l-41 -70l-108 -88l-21 -9h-25zM505 53l10 24l-1 10l-115 -52l-16 4l-4 13l25 61l33 52l56 86l40 44l-29 18l-23 -15l-55 15h-58l-143 -89l-46 -64l-166 -84
l-8 -26h11l108 38h10l-10 -13l-4 -23l15 -33l12 -10l67 5l40 21l23 17l37 29l-11 -47l20 -25l44 -18l31 6zM256 437l1 -18c-1 -3 41 -3 41 -3c1 14 1 30 3 44c5 7 13 17 17 24c10 0 20 -1 29 -2l45 -40l45 -35l80 3s85 75 86 78s2 52 2 52l-16 19l-13 -16l-10 -17
c2 -6 7 -14 9 -21c-8 -9 -15 -19 -21 -28c-13 -5 -30 -12 -42 -17c-15 5 -28 12 -40 17c0 0 -22 22 -25 22l-38 35l-26 5l-85 -34l-33 -40z" />
    <glyph glyph-name="adieresis" unicode="&#xe4;" horiz-adv-x="484" 
d="M180 52l-5 17c1 14 3 31 5 44l98 107l33 21l44 27c10 1 21 5 31 6l17 -1c1 -4 3 -9 5 -13l-12 -16l-21 -25l-41 -70l-108 -88l-21 -9h-25zM505 53l10 24l-1 10l-115 -52l-16 4l-4 13l25 61l33 52l56 86l40 44l-29 18l-23 -15l-55 15h-58l-143 -89l-46 -64l-166 -84
l-8 -26h11l108 38h10l-10 -13l-4 -23l15 -33l12 -10l67 5l40 21l23 17l37 29l-11 -47l20 -25l44 -18l31 6zM306 451v-14l17 -15l53 7l10 11l7 26l-19 34l-48 6zM475 439l14 -9l24 -15l21 11l14 21l14 19l-3 27l-23 14l-32 -6l-30 -24c3 -6 7 -15 11 -22z" />
    <glyph glyph-name="aring" unicode="&#xe5;" horiz-adv-x="484" 
d="M180 52l-5 17c1 14 3 31 5 44l98 107l33 21l44 27c10 1 21 5 31 6l17 -1c1 -4 3 -9 5 -13l-12 -16l-21 -25l-41 -70l-108 -88l-21 -9h-25zM505 53l10 24l-1 10l-115 -52l-16 4l-4 13l25 61l33 52l56 86l40 44l-29 18l-23 -15l-55 15h-58l-143 -89l-46 -64l-166 -84
l-8 -26h11l108 38h10l-10 -13l-4 -23l15 -33l12 -10l67 5l40 21l23 17l37 29l-11 -47l20 -25l44 -18l31 6zM426 415l-26 23l5 28h22c4 -3 10 -7 16 -10c3 -10 8 -20 12 -30l-14 -11h-15zM363 443l17 -35l49 -30l52 23l17 30l7 37l-39 46h-36l-62 -41z" />
    <glyph glyph-name="egrave" unicode="&#xe8;" horiz-adv-x="359" 
d="M164 145l5 12l7 14c0 3 2 5 2 7l38 43c24 18 52 37 75 55l15 4l20 -4l2 -20c-1 -5 -4 -12 -5 -17l-21 -22l-61 -39l-58 -26c-6 -3 -13 -4 -19 -7zM-1 57l5 -9l67 40l4 -49l28 -39l58 -20l54 9l102 35l58 32l13 24l-6 8l-95 -45l-20 -12l-60 -12c-10 1 -24 7 -34 9l-15 7
c-2 9 -2 19 -3 29l8 44l68 33l90 47l36 43l16 63l-19 25l-24 10l-20 -4l-77 -32l-116 -110l-35 -59l-71 -44zM341 436l-2 32l-14 44l-46 103l-37 19l-30 -6l-4 -40l21 -35c18 -22 37 -46 56 -69l13 -49l25 -13l20 4z" />
    <glyph glyph-name="eacute" unicode="&#xe9;" horiz-adv-x="359" 
d="M164 145l5 12l7 14c0 3 2 5 2 7l38 43c24 18 52 37 75 55l15 4l20 -4l2 -20c-1 -5 -4 -12 -5 -17l-21 -22l-61 -39l-58 -26c-6 -3 -13 -4 -19 -7zM-1 57l5 -9l67 40l4 -49l28 -39l58 -20l54 9l102 35l58 32l13 24l-6 8l-95 -45l-20 -12l-60 -12c-10 1 -24 7 -34 9l-15 7
c-2 9 -2 19 -3 29l8 44l68 33l90 47l36 43l16 63l-19 25l-24 10l-20 -4l-77 -32l-116 -110l-35 -59l-71 -44zM349 473l-30 -19l2 -19l16 -8l45 26l53 45l84 57l13 58l-26 13l-86 -80c-12 -11 -24 -25 -36 -37c-11 -12 -23 -24 -35 -36z" />
    <glyph glyph-name="ecircumflex" unicode="&#xea;" horiz-adv-x="359" 
d="M164 145l5 12l7 14c0 3 2 5 2 7l38 43c24 18 52 37 75 55l15 4l20 -4l2 -20c-1 -5 -4 -12 -5 -17l-21 -22l-61 -39l-58 -26c-6 -3 -13 -4 -19 -7zM-1 57l5 -9l67 40l4 -49l28 -39l58 -20l54 9l102 35l58 32l13 24l-6 8l-95 -45l-20 -12l-60 -12c-10 1 -24 7 -34 9l-15 7
c-2 9 -2 19 -3 29l8 44l68 33l90 47l36 43l16 63l-19 25l-24 10l-20 -4l-77 -32l-116 -110l-35 -59l-71 -44zM273 492l-74 -70l-3 -14h14c39 33 87 71 127 103h17l62 -77l23 -21l38 34c-18 20 -40 45 -57 65l-36 57h-25l-29 -12c-18 -21 -38 -44 -57 -65z" />
    <glyph glyph-name="edieresis" unicode="&#xeb;" horiz-adv-x="359" 
d="M164 145l5 12l7 14c0 3 2 5 2 7l38 43c24 18 52 37 75 55l15 4l20 -4l2 -20c-1 -5 -4 -12 -5 -17l-21 -22l-61 -39l-58 -26c-6 -3 -13 -4 -19 -7zM-1 57l5 -9l67 40l4 -49l28 -39l58 -20l54 9l102 35l58 32l13 24l-6 8l-95 -45l-20 -12l-60 -12c-10 1 -24 7 -34 9l-15 7
c-2 9 -2 19 -3 29l8 44l68 33l90 47l36 43l16 63l-19 25l-24 10l-20 -4l-77 -32l-116 -110l-35 -59l-71 -44zM206 480l-1 -14l18 -15l53 7l10 11l7 26l-19 34l-48 6zM375 468l14 -9l24 -15l20 11l15 21l14 19l-3 27l-23 14l-32 -6l-31 -24c3 -6 8 -15 12 -22z" />
    <glyph glyph-name="igrave" unicode="&#xec;" horiz-adv-x="425" 
d="M184 121l-40 -87l9 -41l16 -15l66 -1l57 17l151 59l10 40c-62 -23 -133 -50 -194 -73c-4 4 -10 9 -15 13c-1 9 -4 21 -5 31c2 7 6 16 9 24l75 120l60 96l-48 18l-23 -1c-18 -23 -36 -47 -54 -69c-16 -15 -34 -33 -50 -48c-34 -27 -71 -55 -104 -82l-86 -31l-12 -47
l101 40l30 19c11 7 22 16 34 23c4 -2 9 -3 13 -5zM420 436l-2 32l-14 44l-46 103l-37 19l-30 -6l-4 -40l21 -35c18 -22 37 -46 56 -69l13 -49l25 -13l20 4z" />
    <glyph glyph-name="iacute" unicode="&#xed;" horiz-adv-x="425" 
d="M184 121l-40 -87l9 -41l16 -15l66 -1l57 17l151 59l10 40c-62 -23 -133 -50 -194 -73c-4 4 -10 9 -15 13c-1 9 -4 21 -5 31c2 7 6 16 9 24l75 120l60 96l-48 18l-23 -1c-18 -23 -36 -47 -54 -69c-16 -15 -34 -33 -50 -48c-34 -27 -71 -55 -104 -82l-86 -31l-12 -47
l101 40l30 19c11 7 22 16 34 23c4 -2 9 -3 13 -5zM428 473l-30 -19l2 -19l16 -8l45 26l53 45l84 57l13 58l-26 13l-86 -80c-12 -11 -24 -25 -36 -37c-11 -12 -23 -24 -35 -36z" />
    <glyph glyph-name="icircumflex" unicode="&#xee;" horiz-adv-x="425" 
d="M184 121l-40 -87l9 -41l16 -15l66 -1l57 17l151 59l10 40c-62 -23 -133 -50 -194 -73c-4 4 -10 9 -15 13c-1 9 -4 21 -5 31c2 7 6 16 9 24l75 120l60 96l-48 18l-23 -1c-18 -23 -36 -47 -54 -69c-16 -15 -34 -33 -50 -48c-34 -27 -71 -55 -104 -82l-86 -31l-12 -47
l101 40l30 19c11 7 22 16 34 23c4 -2 9 -3 13 -5zM352 492l-74 -70l-3 -14h14c39 33 87 71 127 103h17l62 -77l23 -21l38 34c-18 20 -40 45 -57 65l-36 57h-25l-29 -12c-18 -21 -38 -44 -57 -65z" />
    <glyph glyph-name="idieresis" unicode="&#xef;" horiz-adv-x="425" 
d="M184 121l-40 -87l9 -41l16 -15l66 -1l57 17l151 59l10 40c-62 -23 -133 -50 -194 -73c-4 4 -10 9 -15 13c-1 9 -4 21 -5 31c2 7 6 16 9 24l75 120l60 96l-48 18l-23 -1c-18 -23 -36 -47 -54 -69c-16 -15 -34 -33 -50 -48c-34 -27 -71 -55 -104 -82l-86 -31l-12 -47
l101 40l30 19c11 7 22 16 34 23c4 -2 9 -3 13 -5zM285 480l-1 -14l18 -15l53 7l10 11l7 26l-19 34l-48 6zM454 468l14 -9l24 -15l20 11l15 21l14 19l-3 27l-23 14l-32 -6l-31 -24c3 -6 8 -15 12 -22z" />
    <glyph glyph-name="ntilde" unicode="&#xf1;" horiz-adv-x="642" 
d="M664 73l-7 10l-19 -10l-104 -65h-22l-8 12v14l54 92l55 113l-7 10l-50 24h-11l-48 -18l-135 -87l-75 -65l26 99l-4 17l-26 20h-46l-96 -64l-131 -99l-8 -17l3 -11l25 11l142 102l48 35h16l4 -5l-12 -55l-49 -99l-22 -45l1 -8h43l46 43c18 19 38 39 56 58l156 118l42 21
l9 -1c2 -5 5 -16 8 -22l-104 -195l2 -17l29 -32l69 7l138 89zM319 409l2 -18c-2 -3 40 -3 40 -3c2 14 1 30 3 44c5 7 13 17 17 24c10 0 20 -1 30 -2l45 -40l44 -35l80 3s85 75 86 78s2 52 2 52l-16 19l-13 -16l-10 -17c2 -6 7 -14 9 -21c-8 -9 -15 -19 -21 -28
c-13 -5 -29 -12 -42 -17c-14 5 -28 12 -40 17c0 0 -21 22 -24 22l-39 35l-26 5l-85 -34l-32 -40z" />
    <glyph glyph-name="ograve" unicode="&#xf2;" horiz-adv-x="476" 
d="M217 54l-9 35c5 19 11 40 17 59l80 78l69 27h16c-3 -14 -7 -29 -10 -42l-13 -15c-28 -41 -59 -87 -87 -127c-9 -4 -20 -10 -29 -15h-34zM124 63l18 -53l40 -17h63l98 76l94 167l85 15l12 20l-4 8h-63l-31 48c-11 -1 -25 -3 -36 -4h-17l-59 -25l-49 -19
c-1 -5 -3 -11 -5 -17l-74 -51l-75 -52l-111 -80l-5 -22l6 -6l89 57c8 2 19 6 27 8zM457 429l-2 32l-14 44l-46 103l-37 19l-30 -6l-4 -40l21 -35c18 -22 37 -46 56 -69l13 -49l25 -13l20 4z" />
    <glyph glyph-name="oacute" unicode="&#xf3;" horiz-adv-x="476" 
d="M217 54l-9 35c5 19 11 40 17 59l80 78l69 27h16c-3 -14 -7 -29 -10 -42l-13 -15c-28 -41 -59 -87 -87 -127c-9 -4 -20 -10 -29 -15h-34zM124 63l18 -53l40 -17h63l98 76l94 167l85 15l12 20l-4 8h-63l-31 48c-11 -1 -25 -3 -36 -4h-17l-59 -25l-49 -19
c-1 -5 -3 -11 -5 -17l-74 -51l-75 -52l-111 -80l-5 -22l6 -6l89 57c8 2 19 6 27 8zM465 466l-30 -19l2 -19l16 -8l45 26l53 45l84 57l13 58l-26 13l-86 -80c-12 -11 -24 -25 -36 -37c-11 -12 -23 -24 -35 -36z" />
    <glyph glyph-name="ocircumflex" unicode="&#xf4;" horiz-adv-x="476" 
d="M217 54l-9 35c5 19 11 40 17 59l80 78l69 27h16c-3 -14 -7 -29 -10 -42l-13 -15c-28 -41 -59 -87 -87 -127c-9 -4 -20 -10 -29 -15h-34zM124 63l18 -53l40 -17h63l98 76l94 167l85 15l12 20l-4 8h-63l-31 48c-11 -1 -25 -3 -36 -4h-17l-59 -25l-49 -19
c-1 -5 -3 -11 -5 -17l-74 -51l-75 -52l-111 -80l-5 -22l6 -6l89 57c8 2 19 6 27 8zM389 485l-74 -70l-3 -14h14c39 33 87 71 127 103h17l62 -77l23 -21l38 34c-18 20 -40 45 -57 65l-36 57h-25l-29 -12c-18 -21 -38 -44 -57 -65z" />
    <glyph glyph-name="otilde" unicode="&#xf5;" horiz-adv-x="476" 
d="M217 54l-9 35c5 19 11 40 17 59l80 78l69 27h16c-3 -14 -7 -29 -10 -42l-13 -15c-28 -41 -59 -87 -87 -127c-9 -4 -20 -10 -29 -15h-34zM124 63l18 -53l40 -17h63l98 76l94 167l85 15l12 20l-4 8h-63l-31 48c-11 -1 -25 -3 -36 -4h-17l-59 -25l-49 -19
c-1 -5 -3 -11 -5 -17l-74 -51l-75 -52l-111 -80l-5 -22l6 -6l89 57c8 2 19 6 27 8zM287 459l2 -18c-2 -3 40 -3 40 -3c2 14 1 30 3 44c5 7 13 17 17 24c10 0 20 -1 30 -2l45 -40l44 -35l80 3s85 75 86 78s2 52 2 52l-16 19l-13 -16l-10 -17c2 -6 7 -14 9 -21
c-8 -9 -15 -19 -21 -28c-13 -5 -29 -12 -42 -17c-14 5 -28 12 -40 17c0 0 -21 22 -24 22l-39 35l-26 5l-85 -34l-32 -40z" />
    <glyph glyph-name="odieresis" unicode="&#xf6;" horiz-adv-x="476" 
d="M217 54l-9 35c5 19 11 40 17 59l80 78l69 27h16c-3 -14 -7 -29 -10 -42l-13 -15c-28 -41 -59 -87 -87 -127c-9 -4 -20 -10 -29 -15h-34zM124 63l18 -53l40 -17h63l98 76l94 167l85 15l12 20l-4 8h-63l-31 48c-11 -1 -25 -3 -36 -4h-17l-59 -25l-49 -19
c-1 -5 -3 -11 -5 -17l-74 -51l-75 -52l-111 -80l-5 -22l6 -6l89 57c8 2 19 6 27 8zM322 473l-1 -14l18 -15l53 7l10 11l7 26l-19 34l-48 6zM491 461l14 -9l24 -15l20 11l15 21l14 19l-3 27l-23 14l-32 -6l-31 -24c3 -6 8 -15 12 -22z" />
    <glyph glyph-name="ugrave" unicode="&#xf9;" horiz-adv-x="645" 
d="M94 80l-6 -28l6 -4l245 186c7 0 12 2 19 2l-6 -13l-67 -81l-33 -46l-17 -62l19 -25l33 -18l12 1l88 35l19 11l145 138c0 -3 3 -5 4 -8l-49 -94l4 -36l24 -43h55l149 61l12 20l-6 9l-130 -47l-10 4l-4 16l58 154l36 89l-13 17h-31l-202 -191l-49 -50l-39 -16h-20
c1 4 -5 4 -3 8l23 70l96 147l-7 8h-62l-49 -19zM516 427l-3 32l-14 44l-46 103l-36 19l-30 -6l-4 -40l20 -35c19 -22 37 -46 56 -69l14 -49l24 -13l20 4z" />
    <glyph glyph-name="uacute" unicode="&#xfa;" horiz-adv-x="645" 
d="M94 80l-6 -28l6 -4l245 186c7 0 12 2 19 2l-6 -13l-67 -81l-33 -46l-17 -62l19 -25l33 -18l12 1l88 35l19 11l145 138c0 -3 3 -5 4 -8l-49 -94l4 -36l24 -43h55l149 61l12 20l-6 9l-130 -47l-10 4l-4 16l58 154l36 89l-13 17h-31l-202 -191l-49 -50l-39 -16h-20
c1 4 -5 4 -3 8l23 70l96 147l-7 8h-62l-49 -19zM523 464l-30 -19l2 -19l16 -8l45 26l53 45l84 57l13 58l-26 13l-86 -80c-12 -11 -24 -25 -36 -37c-11 -12 -24 -24 -35 -36z" />
    <glyph glyph-name="ucircumflex" unicode="&#xfb;" horiz-adv-x="645" 
d="M94 80l-6 -28l6 -4l245 186c7 0 12 2 19 2l-6 -13l-67 -81l-33 -46l-17 -62l19 -25l33 -18l12 1l88 35l19 11l145 138c0 -3 3 -5 4 -8l-49 -94l4 -36l24 -43h55l149 61l12 20l-6 9l-130 -47l-10 4l-4 16l58 154l36 89l-13 17h-31l-202 -191l-49 -50l-39 -16h-20
c1 4 -5 4 -3 8l23 70l96 147l-7 8h-62l-49 -19zM437 483l-75 -70l-2 -14h14c39 33 86 71 126 103h17l62 -77l24 -21l38 34c-19 20 -40 45 -58 65l-36 57h-25l-29 -12c-18 -21 -38 -44 -56 -65z" />
    <glyph glyph-name="udieresis" unicode="&#xfc;" horiz-adv-x="645" 
d="M94 80l-6 -28l6 -4l245 186c7 0 12 2 19 2l-6 -13l-67 -81l-33 -46l-17 -62l19 -25l33 -18l12 1l88 35l19 11l145 138c0 -3 3 -5 4 -8l-49 -94l4 -36l24 -43h55l149 61l12 20l-6 9l-130 -47l-10 4l-4 16l58 154l36 89l-13 17h-31l-202 -191l-49 -50l-39 -16h-20
c1 4 -5 4 -3 8l23 70l96 147l-7 8h-62l-49 -19zM382 471l-1 -14l17 -15l54 7l10 11l6 26l-19 34l-48 6zM550 459l15 -9l23 -15l21 11l15 21l13 19l-2 27l-24 14l-32 -6l-30 -24c3 -6 7 -15 11 -22z" />
    <glyph glyph-name="yacute" unicode="&#xfd;" horiz-adv-x="621" 
d="M-63 -558l16 30l15 44l81 88l116 122l58 46h15l-40 -71l-26 -35l-41 -77l-97 -113l-68 -52l-29 3v15zM604 316l-71 -10l-8 -25l-34 -33l-57 -79l-136 -119l-28 -7l-5 5v25l47 76l41 62l20 25l5 18l-16 32l-8 3l-70 -16l-69 -52l-138 -95l-65 -46l-14 -25l9 -4l134 83
l8 10l54 38l81 51h13l-15 -27l-69 -90l-42 -87l20 -35l12 -5l64 5l122 101h8l-29 -82l-90 -161l-222 -190l-115 -138l-19 -18l-30 -75l-2 -43l32 -8l91 17l17 11l100 93l29 43l32 33l78 131l47 106l53 53l104 73l83 54c13 9 27 20 39 29l39 28l14 25l-6 9l-58 -34l-81 -58
l-114 -72l48 82l17 26l23 60l58 87l16 27l63 103zM511 449l-30 -19l2 -19l16 -8l45 26l53 45l84 57l13 58l-26 13l-86 -80c-12 -11 -24 -25 -36 -37c-11 -12 -23 -24 -35 -36z" />
    <glyph glyph-name="ydieresis" unicode="&#xff;" horiz-adv-x="621" 
d="M-63 -558l16 30l15 44l81 88l116 122l58 46h15l-40 -71l-26 -35l-41 -77l-97 -113l-68 -52l-29 3v15zM604 316l-71 -10l-8 -25l-34 -33l-57 -79l-136 -119l-28 -7l-5 5v25l47 76l41 62l20 25l5 18l-16 32l-8 3l-70 -16l-69 -52l-138 -95l-65 -46l-14 -25l9 -4l134 83
l8 10l54 38l81 51h13l-15 -27l-69 -90l-42 -87l20 -35l12 -5l64 5l122 101h8l-29 -82l-90 -161l-222 -190l-115 -138l-19 -18l-30 -75l-2 -43l32 -8l91 17l17 11l100 93l29 43l32 33l78 131l47 106l53 53l104 73l83 54c13 9 27 20 39 29l39 28l14 25l-6 9l-58 -34l-81 -58
l-114 -72l48 82l17 26l23 60l58 87l16 27l63 103zM368 456l-1 -14l18 -15l53 7l10 11l7 26l-19 34l-48 6zM537 444l14 -9l24 -15l20 11l15 21l14 19l-3 27l-23 14l-32 -6l-31 -24c3 -6 8 -15 12 -22z" />
    <glyph glyph-name="Zcaron" unicode="&#x17d;" horiz-adv-x="918" 
d="M112 7l-31 -25l18 -23l29 2c6 3 17 9 24 13l17 4c5 4 31 5 36 9l56 5c4 4 18 2 23 6l126 -23l86 -22l58 -10c10 1 22 3 32 3l50 2l71 26l72 72l26 44l32 33l15 30l46 33l-30 43l-34 -13l-35 -27l-23 -45l-7 -38l-38 -50l-9 -7c-1 -3 -6 -9 -9 -13l-66 -16l-65 3l-188 37
l-97 -4l2 9l24 23l2 9l17 12l73 74l86 68l26 11l51 37l32 19l14 -1l115 11l91 -7l26 19l-20 18l-43 8l-41 -3l-92 2l81 73l96 93l21 8l24 11l14 5l23 16l-9 33l-116 8l-38 1l-53 -1l-188 -1l-54 2l-27 -2l-97 -101l-7 -29l27 -2l79 47l50 15l82 1l56 6c10 1 21 3 31 3l53 2
l60 2c3 -4 7 -8 10 -12l-33 -40l-55 -45l-16 -16l-96 -81l-205 -11l-39 -1l-36 -26l11 -15l96 11l32 4l55 -7c4 -2 11 -3 15 -4l-17 -13l-18 -20l-112 -95l-65 -75c-25 -18 -52 -38 -77 -56l-21 -7l-34 -20zM670 749l13 -27l13 -11h30l6 33l35 30c14 19 29 40 43 59l30 11
l5 27h-24l-40 -26c-4 -9 -10 -19 -14 -28c-15 -13 -34 -29 -48 -42c-5 2 -18 9 -14 7l-77 84l-31 -7l-5 -26c26 -27 52 -57 78 -84z" />
    <glyph glyph-name="Scaron" unicode="&#x160;" horiz-adv-x="596" 
d="M167 -55h30l50 -18h34l74 43l22 9l20 25l61 49l32 53l3 48l10 17l-11 343l25 51c10 24 32 39 42 62l61 50l107 4l36 -19l8 -24c-8 -17 -15 -32 -22 -49l-31 -3l-21 -55l-1 -19l30 -8l39 12l39 53l8 34l1 66l-19 44l-133 11l-71 -18l-123 -70l-55 -87l-30 -96l5 -75l5 -84
l16 -81l-9 -117l-28 -25l-24 -45l-26 -13l-47 -27l-52 -14l-73 23l-21 51l-14 17l-1 23l57 65l31 46h-47l-50 -43l-51 -25l-35 -29v-18l1 -24l11 -21l47 -48zM655 831l13 -27l13 -11h30l6 33l35 30c15 19 29 40 44 59l30 11l5 27h-24l-40 -26c-5 -9 -10 -19 -15 -28
c-14 -13 -33 -29 -47 -42c-5 2 -19 9 -14 7l-77 84l-32 -7l-4 -26c25 -27 52 -57 77 -84z" />
    <glyph glyph-name="Agrave" unicode="&#xc0;" horiz-adv-x="772" 
d="M277 179l-2 1l-5 22l-14 72c1 5 0 12 0 17l9 52l7 36l8 30l4 19l21 39l27 32l15 21l24 19l57 20l53 2l52 -10l18 -26l15 -31c2 -5 5 -16 6 -21c-11 -17 -25 -36 -37 -52l-21 -30l-29 -25l-33 -29l-20 -18l-51 -51zM710 272l-22 -21l-25 127l-17 71l5 29l75 71l83 73
c10 7 23 17 34 25l27 20c17 12 35 26 52 38l56 36l59 33l4 4h7l9 4c1 -1 3 -4 2 -6l-61 -70l-24 -35l-13 -18l-14 -20l-14 -23l-120 -172l-54 -90zM-163 -156l-91 -35l-3 -17l94 20l61 42c3 3 9 7 13 10l7 4l6 3l268 195l44 36l70 -52l69 -33h59l40 34l38 56l11 33v89
l-21 10l-38 -11l-17 -30l-2 -12l13 -13c3 -2 5 -5 7 -6l15 -18l-27 -70c0 -3 -10 -6 -10 -9c-5 -5 -11 -12 -16 -17c-5 -4 -10 -7 -16 -10h-15c-18 17 -31 3 -50 23l-34 32l-5 6l-11 28l-5 7l1 7l29 28l85 74l24 20l71 65l90 79c4 -4 9 -10 14 -14l8 -19c2 -4 5 -10 7 -15
l3 -39c-1 -2 0 -4 1 -6l6 -43l2 -9v-5l-8 -247l18 -18h39l36 26l8 44l9 42l16 46l14 43l40 78l12 27l43 70l13 21l16 32l32 55l17 27l22 39l41 45l12 11l7 10l4 10l19 24l13 20l20 23l15 15l112 94l1 29l-15 18h-50l-179 -80l-217 -173l-122 -96l-17 9l-46 68l-68 29l-43 1
l-80 -15l-61 -51l-34 -45l-42 -107l-17 -147c1 -9 5 -60 5 -69l10 -31l-109 -91l-53 -40l-6 -5c-1 -1 -4 -2 -6 -4l-22 -16l-60 -41l-26 -20l-54 -40l-37 -23zM1148 903l-3 32l-14 44l-46 103l-36 19l-30 -6l-5 -40l21 -35c18 -22 37 -46 56 -69l14 -49l24 -13l20 4z" />
    <glyph glyph-name="Aacute" unicode="&#xc1;" horiz-adv-x="772" 
d="M277 179l-2 1l-5 22l-14 72c1 5 0 12 0 17l9 52l7 36l8 30l4 19l21 39l27 32l15 21l24 19l57 20l53 2l52 -10l18 -26l15 -31c2 -5 5 -16 6 -21c-11 -17 -25 -36 -37 -52l-21 -30l-29 -25l-33 -29l-20 -18l-51 -51zM710 272l-22 -21l-25 127l-17 71l5 29l75 71l83 73
c10 7 23 17 34 25l27 20c17 12 35 26 52 38l56 36l59 33l4 4h7l9 4c1 -1 3 -4 2 -6l-61 -70l-24 -35l-13 -18l-14 -20l-14 -23l-120 -172l-54 -90zM-163 -156l-91 -35l-3 -17l94 20l61 42c3 3 9 7 13 10l7 4l6 3l268 195l44 36l70 -52l69 -33h59l40 34l38 56l11 33v89
l-21 10l-38 -11l-17 -30l-2 -12l13 -13c3 -2 5 -5 7 -6l15 -18l-27 -70c0 -3 -10 -6 -10 -9c-5 -5 -11 -12 -16 -17c-5 -4 -10 -7 -16 -10h-15c-18 17 -31 3 -50 23l-34 32l-5 6l-11 28l-5 7l1 7l29 28l85 74l24 20l71 65l90 79c4 -4 9 -10 14 -14l8 -19c2 -4 5 -10 7 -15
l3 -39c-1 -2 0 -4 1 -6l6 -43l2 -9v-5l-8 -247l18 -18h39l36 26l8 44l9 42l16 46l14 43l40 78l12 27l43 70l13 21l16 32l32 55l17 27l22 39l41 45l12 11l7 10l4 10l19 24l13 20l20 23l15 15l112 94l1 29l-15 18h-50l-179 -80l-217 -173l-122 -96l-17 9l-46 68l-68 29l-43 1
l-80 -15l-61 -51l-34 -45l-42 -107l-17 -147c1 -9 5 -60 5 -69l10 -31l-109 -91l-53 -40l-6 -5c-1 -1 -4 -2 -6 -4l-22 -16l-60 -41l-26 -20l-54 -40l-37 -23zM1158 949l-31 -19l2 -19l17 -8l44 26l53 45l84 57l13 58l-25 13l-86 -80c-12 -11 -25 -25 -37 -37
c-11 -12 -23 -24 -34 -36z" />
    </font>
</defs>
</svg>
